SplineFontDB: 3.0
FontName: Sniglet
FullName: Sniglet
FamilyName: Sniglet
Weight: Book
Copyright: Haley Fiege kingdomofawesome.com
Version: 1.000
ItalicAngle: 0
UnderlinePosition: -50
UnderlineWidth: 50
Ascent: 750
Descent: 250
sfntRevision: 0x00010000
LayerCount: 2
Layer: 0 1 "Back"  1
Layer: 1 1 "Fore"  0
NeedsXUIDChange: 1
XUID: [1021 496 529952750 7499240]
FSType: 4
OS2Version: 3
OS2_WeightWidthSlopeOnly: 0
OS2_UseTypoMetrics: 1
CreationTime: 1206156852
ModificationTime: 1292017524
PfmFamily: 81
TTFWeight: 400
TTFWidth: 5
LineGap: 0
VLineGap: 0
Panose: 0 0 0 0 0 0 0 0 0 0
OS2TypoAscent: 0
OS2TypoAOffset: 1
OS2TypoDescent: 0
OS2TypoDOffset: 1
OS2TypoLinegap: 0
OS2WinAscent: 0
OS2WinAOffset: 1
OS2WinDescent: 2
OS2WinDOffset: 1
HheadAscent: -205
HheadAOffset: 1
HheadDescent: 39
HheadDOffset: 1
OS2SubXSize: 700
OS2SubYSize: 650
OS2SubXOff: 0
OS2SubYOff: 140
OS2SupXSize: 700
OS2SupYSize: 650
OS2SupXOff: 0
OS2SupYOff: 477
OS2StrikeYSize: 50
OS2StrikeYPos: 250
OS2Vendor: 'pyrs'
OS2CodePages: 00000011.00000000
OS2UnicodeRanges: 800000a7.08000042.14000000.00000000
DEI: 91125
TtTable: prep
PUSHW_1
 511
SCANCTRL
PUSHB_1
 4
SCANTYPE
EndTTInstrs
LangName: 1033 "" "" "Regular" "1.000;pyrs;Sniglet" "" "Version 1.000" "" "Haley Fiege" "Haley Fiege" "Haley Fiege" "" "" "kingdomofawesome.com" 
Encoding: UnicodeBmp
UnicodeInterp: none
NameList: Adobe Glyph List
DisplaySize: -48
AntiAlias: 1
FitToEm: 1
WinInfo: 58 29 11
BeginChars: 65543 205

StartChar: e
Encoding: 101 101 4
Width: 585
Flags: HW
LayerCount: 2
Fore
SplineSet
359 207 m 1,0,1
 388 184 388 184 420 178.5 c 128,-1,2
 452 173 452 173 479.5 169 c 128,-1,3
 507 165 507 165 526.5 154 c 128,-1,4
 546 143 546 143 551 108 c 1,5,6
 553.015 67.707 553.015 67.707 525.5 34.5 c 0,7,8
 511 17 511 17 480 5 c 1,9,10
 394.38 -22.2427 394.38 -22.2427 285 -11.5 c 0,11,12
 229 -6 229 -6 168 19 c 1,13,14
 110.408 44.9165 110.408 44.9165 71.5 102.5 c 0,15,16
 25.8072 170.125 25.8072 170.125 31 261 c 0,17,18
 39.2968 410.342 39.2968 410.342 142.5 485 c 0,19,20
 166 502 166 502 197 513 c 1,21,22
 269.3 534.265 269.3 534.265 348.5 526.5 c 0,23,24
 434.653 518.054 434.653 518.054 501 460 c 1,25,26
 554.529 406.471 554.529 406.471 557 320 c 1,27,28
 557 246.965 557 246.965 493.5 218 c 0,29,30
 435.738 191.652 435.738 191.652 359 207 c 1,0,1
362 321 m 128,-1,32
 352 334 352 334 334 334 c 128,-1,33
 316 334 316 334 303.5 321 c 128,-1,34
 291 308 291 308 293 289.5 c 0,35,36
 296.73 255 296.73 255 333 255 c 256,37,38
 350 255 350 255 361 265 c 128,-1,39
 372 275 372 275 372 291.5 c 128,-1,31
 372 308 372 308 362 321 c 128,-1,32
EndSplineSet
EndChar

StartChar: f
Encoding: 102 102 5
Width: 641
Flags: HW
LayerCount: 2
Fore
SplineSet
455 513 m 1,0,1
 532.686 534.364 532.686 534.364 577 504.5 c 0,2,3
 600 489 600 489 601.5 448 c 128,-1,4
 603 407 603 407 584 389 c 0,5,6
 546.384 353.363 546.384 353.363 477 363 c 1,7,8
 506.284 145.464 506.284 145.464 445.5 46 c 0,9,10
 408.73 -14.1695 408.73 -14.1695 342.365 -16.5847 c 128,-1,11
 276 -19 276 -19 241.5 6.5 c 128,-1,12
 207 32 207 32 191.5 82 c 128,-1,13
 176 132 176 132 174 203 c 128,-1,14
 172 274 172 274 174 363 c 1,15,16
 98.2492 341.072 98.2492 341.072 57.5 376 c 0,17,18
 34.8446 395.419 34.8446 395.419 33.4223 430.709 c 128,-1,19
 32 466 32 466 46.5 484 c 128,-1,20
 61 502 61 502 83 510 c 0,21,22
 125.075 525.3 125.075 525.3 174 515 c 1,23,24
 166.743 616.592 166.743 616.592 228 695 c 1,25,26
 280.711 757.472 280.711 757.472 383.5 769 c 0,27,28
 437 775 437 775 514 755 c 1,29,30
 560.037 738.259 560.037 738.259 580 706.5 c 0,31,32
 591 689 591 689 589 667 c 128,-1,33
 587 645 587 645 579.5 632 c 0,34,35
 560.677 599.373 560.677 599.373 520 601 c 0,36,37
 495 601 495 601 480 590.5 c 128,-1,38
 465 580 465 580 461.5 570.5 c 0,39,40
 453.562 548.954 453.562 548.954 455 513 c 1,0,1
EndSplineSet
EndChar

StartChar: g
Encoding: 103 103 6
Width: 680
Flags: HW
LayerCount: 2
Fore
SplineSet
223 -266 m 1,0,1
 139.151 -235.814 139.151 -235.814 134 -174 c 0,2,3
 131 -147 131 -147 143.5 -120.5 c 128,-1,4
 156 -94 156 -94 176 -83.5 c 0,5,6
 216.24 -62.3739 216.24 -62.3739 265 -68 c 1,7,8
 338.77 -64.7213 338.77 -64.7213 365 -28 c 0,9,10
 376 -12 376 -12 376 8 c 1,11,12
 281.102 -12.8775 281.102 -12.8775 190.5 15 c 0,13,14
 145 29 145 29 109 67 c 0,15,16
 65.8535 112.108 65.8535 112.108 51.5 190.5 c 0,17,18
 30.8222 303.433 30.8222 303.433 92 393.5 c 0,19,20
 126.138 443.759 126.138 443.759 167 471 c 1,21,22
 261.921 527.178 261.921 527.178 382 510.5 c 0,23,24
 583.517 482.512 583.517 482.512 641.5 301 c 0,25,26
 659.994 243.107 659.994 243.107 663.997 160.553 c 128,-1,27
 668 78 668 78 654.5 2 c 128,-1,28
 641 -74 641 -74 616 -121.5 c 128,-1,29
 591 -169 591 -169 558.5 -200 c 0,30,31
 500.092 -255.712 500.092 -255.712 413.046 -272.856 c 128,-1,32
 326 -290 326 -290 223 -266 c 1,0,1
392 246 m 128,-1,34
 382 259 382 259 364 259 c 128,-1,35
 346 259 346 259 333.5 246 c 128,-1,36
 321 233 321 233 323 214.5 c 0,37,38
 326.73 180 326.73 180 363 180 c 256,39,40
 380 180 380 180 391 190 c 128,-1,41
 402 200 402 200 402 216.5 c 128,-1,33
 402 233 402 233 392 246 c 128,-1,34
EndSplineSet
EndChar

StartChar: h
Encoding: 104 104 7
Width: 731
Flags: HW
LayerCount: 2
Fore
SplineSet
696 230 m 1,0,1
 698.884 144.908 698.884 144.908 669.5 81.5 c 0,2,3
 649.924 39.2562 649.924 39.2562 606.5 13 c 0,4,5
 585 0 585 0 570 -2.5 c 128,-1,6
 555 -5 555 -5 543 -6 c 128,-1,7
 531 -7 531 -7 512.5 -5 c 128,-1,8
 494 -3 494 -3 472.5 3.5 c 128,-1,9
 451 10 451 10 432 25.5 c 0,10,11
 387.562 61.7517 387.562 61.7517 384 133 c 1,12,13
 380 172 380 172 375.5 200.5 c 128,-1,14
 371 229 371 229 365 251.5 c 128,-1,15
 359 274 359 274 349 274 c 1,16,17
 354.788 202.612 354.788 202.612 350 126 c 1,18,19
 340.356 52.705 340.356 52.705 282.5 12.5 c 0,20,21
 253 -8 253 -8 201 -8 c 256,22,23
 115.462 -8 115.462 -8 73 61 c 0,24,25
 55 92 55 92 48 141.5 c 128,-1,26
 41 191 41 191 37.5 259 c 0,27,28
 28.8375 427.299 28.8375 427.299 49 597 c 1,29,30
 59.9053 719.685 59.9053 719.685 153 748.5 c 0,31,32
 174 755 174 755 210.5 754.5 c 128,-1,33
 247 754 247 754 279 734 c 128,-1,34
 311 714 311 714 330.5 677 c 0,35,36
 369.125 603.711 369.125 603.711 363 471 c 1,37,38
 488.974 532.522 488.974 532.522 578.5 487 c 0,39,40
 640.51 455.469 640.51 455.469 673 358 c 0,41,42
 690 307 690 307 696 230 c 1,0,1
EndSplineSet
EndChar

StartChar: i
Encoding: 105 105 8
Width: 389
Flags: HW
LayerCount: 2
Fore
SplineSet
290.271 703.571 m 128,-1,1
 314.593 665.061 314.593 665.061 298.775 620.77 c 128,-1,2
 282.957 576.478 282.957 576.478 238.337 554.169 c 128,-1,3
 193.718 531.859 193.718 531.859 146.769 545.422 c 128,-1,4
 99.8199 558.985 99.8199 558.985 75.6543 597.86 c 128,-1,5
 51.4887 636.736 51.4887 636.736 67.156 679.56 c 128,-1,6
 82.8233 722.384 82.8233 722.384 127.49 745.78 c 128,-1,7
 172.156 769.177 172.156 769.177 219.052 755.629 c 128,-1,0
 265.948 742.082 265.948 742.082 290.271 703.571 c 128,-1,1
348 396 m 1,8,9
 375.372 266.959 375.372 266.959 349 114 c 0,10,11
 339 56 339 56 316 32.5 c 0,12,13
 271.421 -13.0478 271.421 -13.0478 207 -15 c 1,14,15
 136.611 -18.2739 136.611 -18.2739 94 27 c 0,16,17
 76 46 76 46 65 72 c 1,18,19
 30.187 165.995 30.187 165.995 43 289 c 1,20,21
 55.4 425.4 55.4 425.4 96.5 466.5 c 0,22,23
 142.069 512.069 142.069 512.069 194.034 514.034 c 128,-1,24
 246 516 246 516 274.5 498.5 c 0,25,26
 331.057 463.772 331.057 463.772 348 396 c 1,8,9
EndSplineSet
EndChar

StartChar: j
Encoding: 106 106 9
Width: 514
Flags: HW
LayerCount: 2
Fore
SplineSet
252 550.5 m 128,-1,1
 203.78 572.513 203.78 572.513 186 614 c 0,2,3
 166.313 659.936 166.313 659.936 190.5 702 c 0,4,5
 214.107 743.055 214.107 743.055 262.5 758.5 c 0,6,7
 314.488 775.092 314.488 775.092 363 754 c 0,8,9
 410.405 733.389 410.405 733.389 429.423 689.013 c 128,-1,10
 448.441 644.637 448.441 644.637 424.674 603.303 c 128,-1,11
 400.907 561.969 400.907 561.969 350.614 545.205 c 128,-1,0
 300.321 528.44 300.321 528.44 252 550.5 c 128,-1,1
456 -69 m 0,12,13
 491.922 156.108 491.922 156.108 462 388 c 1,14,15
 456.262 453.032 456.262 453.032 394 490 c 0,16,17
 362 509 362 509 314.5 508.5 c 128,-1,18
 267 508 267 508 239 496.5 c 128,-1,19
 211 485 211 485 188.5 461 c 128,-1,20
 166 437 166 437 164 390 c 0,21,22
 157 243 157 243 157 175 c 2,23,-1
 157 78.5 l 2,24,25
 157 50 157 50 155 28 c 1,26,27
 155 -42.5238 155 -42.5238 134.5 -84.5 c 0,28,29
 124 -106 124 -106 103.5 -109.5 c 128,-1,30
 83 -113 83 -113 70 -123 c 0,31,32
 36.8772 -148.479 36.8772 -148.479 42 -198 c 1,33,34
 43.922 -236.44 43.922 -236.44 82 -265.5 c 0,35,36
 101 -280 101 -280 141 -286 c 128,-1,37
 181 -292 181 -292 221 -288.5 c 0,38,39
 358.595 -276.46 358.595 -276.46 415.5 -175.5 c 0,40,41
 446.944 -119.712 446.944 -119.712 456 -69 c 0,12,13
EndSplineSet
EndChar

StartChar: k
Encoding: 107 107 10
Width: 738
Flags: HW
LayerCount: 2
Fore
SplineSet
361 543 m 1,0,1
 439.995 649.472 439.995 649.472 527 629 c 0,2,3
 566 620 566 620 600 589 c 1,4,5
 661.071 521.143 661.071 521.143 615 429 c 0,6,7
 595 387 595 387 556 347 c 1,8,9
 611.901 311.803 611.901 311.803 655.5 248 c 0,10,11
 727.187 143.092 727.187 143.092 693.5 64 c 0,12,13
 682 37 682 37 650.5 15.5 c 128,-1,14
 619 -6 619 -6 588 -10 c 128,-1,15
 557 -14 557 -14 530 -4 c 0,16,17
 481.306 14.0349 481.306 14.0349 436.653 70.5175 c 128,-1,18
 392 127 392 127 359 216 c 1,19,20
 367.246 29.0823 367.246 29.0823 257.5 -7.5 c 0,21,22
 232 -16 232 -16 196 -14 c 0,23,24
 137.154 -10.7308 137.154 -10.7308 94 54 c 0,25,26
 76 82 76 82 65 117 c 1,27,28
 29.9022 257.391 29.9022 257.391 43 446 c 0,29,30
 48 530 48 530 63 608 c 1,31,32
 78.3846 669.538 78.3846 669.538 95.6923 693.769 c 0,33,34
 132.677 745.548 132.677 745.548 200 749 c 1,35,36
 305.899 752.416 305.899 752.416 344 649 c 0,37,38
 361 603 361 603 361 543 c 1,0,1
EndSplineSet
EndChar

StartChar: l
Encoding: 108 108 11
Width: 394
Flags: HW
LayerCount: 2
Fore
SplineSet
38.5 200.5 m 128,-1,1
 32 259 32 259 32 321.5 c 0,2,3
 32 440 32 440 44 560 c 1,4,5
 60.7141 713.213 60.7141 713.213 152.5 749.5 c 0,6,7
 174 758 174 758 206.5 757.5 c 128,-1,8
 239 757 239 757 262 740.5 c 128,-1,9
 285 724 285 724 299 709 c 128,-1,10
 313 694 313 694 324.5 671 c 0,11,12
 350.6 618.8 350.6 618.8 356.3 541.9 c 128,-1,13
 362 465 362 465 362 392 c 0,14,15
 362 243.333 362 243.333 351 137 c 0,16,17
 346 93 346 93 333 69.5 c 128,-1,18
 320 46 320 46 308.5 32 c 128,-1,19
 297 18 297 18 280.5 7.5 c 0,20,21
 243.807 -15.8502 243.807 -15.8502 192 -14 c 0,22,23
 144.38 -12.1684 144.38 -12.1684 109 21 c 0,24,25
 82.2082 46.1173 82.2082 46.1173 63.6041 94.0586 c 128,-1,0
 45 142 45 142 38.5 200.5 c 128,-1,1
EndSplineSet
EndChar

StartChar: m
Encoding: 109 109 12
Width: 994
Flags: HW
LayerCount: 2
Fore
SplineSet
713 515.5 m 0,0,1
 757 518 757 518 803.5 503 c 128,-1,2
 850 488 850 488 875 465 c 128,-1,3
 900 442 900 442 916 412 c 0,4,5
 974.412 302.478 974.412 302.478 945 105 c 1,6,7
 927.51 38.9274 927.51 38.9274 879 4 c 0,8,9
 854 -14 854 -14 814.5 -14 c 128,-1,10
 775 -14 775 -14 749 1 c 128,-1,11
 723 16 723 16 706 38.5 c 128,-1,12
 689 61 689 61 679.5 87.5 c 128,-1,13
 670 114 670 114 665.5 138 c 0,14,15
 660 167.333 660 167.333 660 201 c 1,16,17
 660 154.143 660 154.143 633.5 86 c 0,18,19
 610.256 26.2308 610.256 26.2308 558.5 -2 c 0,20,21
 531 -17 531 -17 493 -17 c 256,22,23
 425.609 -17 425.609 -17 381 37 c 0,24,25
 337.457 89.71 337.457 89.71 324.5 183 c 0,26,27
 322 201 322 201 322 205 c 1,28,29
 322 147.556 322 147.556 308 104.778 c 128,-1,30
 294 62 294 62 278 39 c 0,31,32
 241.13 -14 241.13 -14 179 -14 c 0,33,34
 101.75 -14 101.75 -14 65 49 c 1,35,36
 48 76 48 76 43 112 c 1,37,38
 34 205 34 205 40.5 260.5 c 128,-1,39
 47 316 47 316 55 350 c 128,-1,40
 63 384 63 384 77 413.5 c 0,41,42
 107.485 477.736 107.485 477.736 164.242 499.368 c 128,-1,43
 221 521 221 521 266.5 520 c 128,-1,44
 312 519 312 519 347.5 504 c 128,-1,45
 383 489 383 489 409 464.5 c 128,-1,46
 435 440 435 440 453 414.5 c 0,47,48
 481.519 374.099 481.519 374.099 493 332 c 1,49,50
 511.836 401.066 511.836 401.066 574 459.5 c 0,51,52
 628.465 510.697 628.465 510.697 713 515.5 c 0,0,1
EndSplineSet
EndChar

StartChar: n
Encoding: 110 110 13
Width: 716
Flags: HW
LayerCount: 2
Fore
SplineSet
699 230 m 1,0,1
 701.884 144.908 701.884 144.908 672.5 81.5 c 0,2,3
 652.924 39.2562 652.924 39.2562 609.5 13 c 0,4,5
 588 0 588 0 573 -2.5 c 128,-1,6
 558 -5 558 -5 546 -6 c 128,-1,7
 534 -7 534 -7 515.5 -5 c 128,-1,8
 497 -3 497 -3 475.5 3.5 c 128,-1,9
 454 10 454 10 435 25.5 c 0,10,11
 390.562 61.7517 390.562 61.7517 387 133 c 1,12,13
 383 172 383 172 378.5 200.5 c 128,-1,14
 374 229 374 229 368 251.5 c 128,-1,15
 362 274 362 274 352 274 c 1,16,17
 357.788 202.612 357.788 202.612 353 126 c 1,18,19
 343.438 55.2443 343.438 55.2443 285.5 14 c 0,20,21
 256 -7 256 -7 217.5 -7.5 c 128,-1,22
 179 -8 179 -8 159.5 -2.5 c 128,-1,23
 140 3 140 3 125 13 c 0,24,25
 68.4753 50.6832 68.4753 50.6832 52 131 c 1,26,27
 27.4659 225.632 27.4659 225.632 40 361 c 1,28,29
 50.2358 446.981 50.2358 446.981 107 490.5 c 0,30,31
 139.301 515.264 139.301 515.264 184.65 518.632 c 128,-1,32
 230 522 230 522 258.5 515 c 128,-1,33
 287 508 287 508 305 496.5 c 128,-1,34
 323 485 323 485 332.5 471.5 c 128,-1,35
 342 458 342 458 349 446 c 1,36,37
 479.456 517.026 479.456 517.026 575 478.5 c 0,38,39
 640.814 451.962 640.814 451.962 675 357 c 0,40,41
 693 307 693 307 699 230 c 1,0,1
EndSplineSet
EndChar

StartChar: o
Encoding: 111 111 14
Width: 586
Flags: HW
LayerCount: 2
Fore
SplineSet
571 263 m 1,0,1
 571 178 571 178 540 116 c 1,2,3
 512.404 65.9831 512.404 65.9831 461 30 c 1,4,5
 412.125 -6.125 412.125 -6.125 343 -16 c 0,6,7
 326 -19 326 -19 292 -19 c 128,-1,8
 258 -19 258 -19 216.5 -8 c 128,-1,9
 175 3 175 3 144 20.5 c 0,10,11
 86.9516 52.7047 86.9516 52.7047 57 108 c 1,12,13
 24 163 24 163 21 235 c 1,14,15
 21 426.111 21 426.111 167 491 c 0,16,17
 231 519 231 519 313 516 c 1,18,19
 475.5 516 475.5 516 539 389 c 0,20,21
 567 334 567 334 571 263 c 1,0,1
336 261 m 128,-1,23
 326 274 326 274 308 274 c 128,-1,24
 290 274 290 274 277.5 261 c 128,-1,25
 265 248 265 248 267 229.5 c 0,26,27
 270.73 195 270.73 195 307 195 c 256,28,29
 324 195 324 195 335 205 c 128,-1,30
 346 215 346 215 346 231.5 c 128,-1,22
 346 248 346 248 336 261 c 128,-1,23
EndSplineSet
EndChar

StartChar: p
Encoding: 112 112 15
Width: 686
Flags: HW
LayerCount: 2
Fore
SplineSet
35 -76 m 1,0,1
 5.1 193.1 5.1 193.1 86.5 362.5 c 0,2,3
 105 401 105 401 136 436.5 c 128,-1,4
 167 472 167 472 220 495 c 128,-1,5
 273 518 273 518 331.5 524 c 0,6,7
 459.072 537.084 459.072 537.084 557 482 c 1,8,9
 604.066 452.584 604.066 452.584 637.5 401 c 0,10,11
 672.5 347 672.5 347 673.5 265 c 0,12,13
 674.566 177.595 674.566 177.595 641 107.5 c 0,14,15
 601.481 24.9749 601.481 24.9749 499.5 0 c 0,16,17
 407.265 -22.5882 407.265 -22.5882 320 18 c 1,18,19
 334 -58 334 -58 329 -100 c 128,-1,20
 324 -142 324 -142 316 -166 c 128,-1,21
 308 -190 308 -190 293 -209 c 0,22,23
 259.842 -251 259.842 -251 197 -251 c 0,24,25
 108.059 -251 108.059 -251 62 -164 c 0,26,27
 42 -125 42 -125 35 -76 c 1,0,1
396 261 m 128,-1,29
 386 274 386 274 368 274 c 128,-1,30
 350 274 350 274 337.5 261 c 128,-1,31
 325 248 325 248 327 229.5 c 0,32,33
 330.73 195 330.73 195 367 195 c 256,34,35
 384 195 384 195 395 205 c 128,-1,36
 406 215 406 215 406 231.5 c 128,-1,28
 406 248 406 248 396 261 c 128,-1,29
EndSplineSet
EndChar

StartChar: q
Encoding: 113 113 16
Width: 722
Flags: HW
LayerCount: 2
Fore
SplineSet
627 -220 m 0,0,1
 595 -244 595 -244 552 -244 c 128,-1,2
 509 -244 509 -244 485.5 -232.5 c 128,-1,3
 462 -221 462 -221 446.5 -202 c 0,4,5
 388.626 -131.058 388.626 -131.058 403 25 c 1,6,7
 314.366 -20.3475 314.366 -20.3475 221.5 0.5 c 0,8,9
 167.983 12.514 167.983 12.514 123 50 c 1,10,11
 66.6087 95.113 66.6087 95.113 49.5 187.5 c 0,12,13
 34.2987 269.587 34.2987 269.587 58 345 c 0,14,15
 76.812 404.571 76.812 404.571 132 457 c 0,16,17
 156 479 156 479 182 495 c 1,18,19
 238 524 238 524 305 532 c 128,-1,20
 372 540 372 540 436 529.5 c 128,-1,21
 500 519 500 519 554 491.5 c 128,-1,22
 608 464 608 464 633.5 428 c 128,-1,23
 659 392 659 392 673.5 353.5 c 128,-1,24
 688 315 688 315 696.5 273.5 c 0,25,26
 729.304 113.339 729.304 113.339 703 -89 c 1,27,28
 687.421 -174.684 687.421 -174.684 627 -220 c 0,0,1
406 261 m 128,-1,30
 396 274 396 274 378 274 c 128,-1,31
 360 274 360 274 347.5 261 c 128,-1,32
 335 248 335 248 337 229.5 c 0,33,34
 340.73 195 340.73 195 377 195 c 256,35,36
 394 195 394 195 405 205 c 128,-1,37
 416 215 416 215 416 231.5 c 128,-1,29
 416 248 416 248 406 261 c 128,-1,30
EndSplineSet
EndChar

StartChar: r
Encoding: 114 114 17
Width: 609
Flags: HW
LayerCount: 2
Fore
SplineSet
317 448 m 1,0,1
 360.03 509.235 360.03 509.235 430 520 c 0,2,3
 461 524 461 524 491 518 c 1,4,5
 567.063 497.717 567.063 497.717 583 426 c 0,6,7
 593.808 377.366 593.808 377.366 581.404 346.683 c 128,-1,8
 569 316 569 316 557 300 c 128,-1,9
 545 284 545 284 520 269.5 c 0,10,11
 475.533 243.709 475.533 243.709 409 265 c 0,12,13
 380 275 380 275 354 293 c 1,14,15
 380.961 90.7937 380.961 90.7937 291 22 c 0,16,17
 251 -9 251 -9 195 -7 c 1,18,19
 125.927 -10.2127 125.927 -10.2127 81 40 c 0,20,21
 62 62 62 62 51 90 c 1,22,23
 18.9259 186.222 18.9259 186.222 24 308 c 1,24,25
 25 364 25 364 33 418 c 1,26,27
 51.1739 497.304 51.1739 497.304 119 526 c 0,28,29
 149 538 149 538 188 539 c 128,-1,30
 227 540 227 540 253 525.5 c 0,31,32
 303.755 497.194 303.755 497.194 317 448 c 1,0,1
EndSplineSet
EndChar

StartChar: s
Encoding: 115 115 18
Width: 561
Flags: HW
LayerCount: 2
Fore
SplineSet
330 318 m 1,0,1
 478.224 297.318 478.224 297.318 526 223 c 0,2,3
 548 190 548 190 548 153.5 c 128,-1,4
 548 117 548 117 538.5 91.5 c 128,-1,5
 529 66 529 66 513.5 47.5 c 0,6,7
 486.636 15.436 486.636 15.436 438.818 -5.28199 c 128,-1,8
 391 -26 391 -26 330 -31 c 1,9,10
 140.759 -37.7586 140.759 -37.7586 78 25 c 0,11,12
 49 53 49 53 49 90 c 1,13,14
 45.6447 173.882 45.6447 173.882 142 206 c 0,15,16
 184 220 184 220 239 222 c 1,17,18
 171 238 171 238 136 263 c 0,19,20
 68 311.571 68 311.571 68 368 c 1,21,22
 69.8146 426.068 69.8146 426.068 111.5 465.5 c 0,23,24
 143.059 495.353 143.059 495.353 198.529 513.676 c 128,-1,25
 254 532 254 532 324 532 c 1,26,27
 510.894 526.66 510.894 526.66 537 456.5 c 0,28,29
 545 435 545 435 544 411.5 c 128,-1,30
 543 388 543 388 533 372 c 128,-1,31
 523 356 523 356 508 345.5 c 0,32,33
 450.854 305.498 450.854 305.498 330 318 c 1,0,1
EndSplineSet
EndChar

StartChar: t
Encoding: 116 116 19
Width: 692
Flags: HW
LayerCount: 2
Fore
SplineSet
205 583 m 1,0,1
 198 632 198 632 206 659.5 c 128,-1,2
 214 687 214 687 223 703 c 128,-1,3
 232 719 232 719 248 731 c 0,4,5
 284 758 284 758 342 758 c 0,6,7
 442.625 758 442.625 758 476 669 c 1,8,9
 489 630 489 630 486 581 c 1,10,11
 596.455 587.252 596.455 587.252 646.5 533.5 c 0,12,13
 676 501.815 676 501.815 676 448 c 0,14,15
 676 358.812 676 358.812 587 331 c 0,16,17
 547 319 547 319 498 321 c 1,18,19
 512.222 187.313 512.222 187.313 485.5 93 c 0,20,21
 467.656 30.0225 467.656 30.0225 424 2.5 c 0,22,23
 401 -12 401 -12 369 -12 c 0,24,25
 305 -12 305 -12 272.5 15.5 c 128,-1,26
 240 43 240 43 227.5 90 c 128,-1,27
 215 137 215 137 217 198 c 128,-1,28
 219 259 219 259 224 327 c 1,29,30
 68.6581 305.198 68.6581 305.198 31.5 397 c 0,31,32
 23 418 23 418 23 454 c 128,-1,33
 23 490 23 490 41.5 516 c 128,-1,34
 60 542 60 542 88 557 c 0,35,36
 136.533 583 136.533 583 205 583 c 1,0,1
EndSplineSet
EndChar

StartChar: u
Encoding: 117 117 20
Width: 680
Flags: HW
LayerCount: 2
Fore
SplineSet
89 476 m 128,-1,1
 114 500 114 500 142 509 c 128,-1,2
 170 518 170 518 202 514 c 128,-1,3
 234 510 234 510 255.5 496 c 0,4,5
 308.635 461.401 308.635 461.401 312 384 c 1,6,7
 312 300.538 312 300.538 324.5 276.5 c 0,8,9
 331 264 331 264 344 264 c 0,10,11
 367 264 367 264 370.5 292.5 c 128,-1,12
 374 321 374 321 374.5 377 c 0,13,14
 375.3 466.599 375.3 466.599 432 499 c 0,15,16
 457 513 457 513 498 515 c 128,-1,17
 539 517 539 517 567.5 500.5 c 0,18,19
 623.409 468.132 623.409 468.132 635.704 410.566 c 0,20,21
 654.653 321.852 654.653 321.852 633 219 c 0,22,23
 623 175 623 175 605.5 133.5 c 0,24,25
 580.111 73.2926 580.111 73.2926 520 29 c 0,26,27
 453.907 -19.7002 453.907 -19.7002 364.953 -17.3501 c 0,28,29
 224.977 -13.652 224.977 -13.652 145 37 c 0,30,31
 110 59 110 59 92 87 c 1,32,33
 39.3627 163.409 39.3627 163.409 42 290 c 1,34,35
 42 346 42 346 53 399 c 128,-1,0
 64 452 64 452 89 476 c 128,-1,1
EndSplineSet
EndChar

StartChar: v
Encoding: 118 118 21
Width: 668
Flags: HW
LayerCount: 2
Fore
SplineSet
340 303 m 1,0,1
 351.455 401.798 351.455 401.798 400.5 463.5 c 0,2,3
 454.681 531.664 454.681 531.664 548 513 c 1,4,5
 630.848 494.292 630.848 494.292 639.5 409.5 c 0,6,7
 647.022 335.783 647.022 335.783 603 236 c 1,8,9
 515.8 50.7 515.8 50.7 397 4.5 c 0,10,11
 370 -6 370 -6 334 -6 c 128,-1,12
 298 -6 298 -6 262 9.5 c 128,-1,13
 226 25 226 25 195.5 50 c 128,-1,14
 165 75 165 75 141 105.5 c 128,-1,15
 117 136 117 136 98.5 167 c 0,16,17
 -23.8052 371.944 -23.8052 371.944 59 472 c 0,18,19
 83 501 83 501 124 509.5 c 128,-1,20
 165 518 165 518 190 512 c 128,-1,21
 215 506 215 506 235.5 492.5 c 0,22,23
 269.972 469.799 269.972 469.799 297.986 419.899 c 128,-1,24
 326 370 326 370 340 303 c 1,0,1
EndSplineSet
EndChar

StartChar: w
Encoding: 119 119 22
Width: 875
Flags: HW
LayerCount: 2
Fore
SplineSet
443 130 m 1,0,1
 431.142 50.9469 431.142 50.9469 367 8.5 c 0,2,3
 333 -14 333 -14 282.5 -14 c 128,-1,4
 232 -14 232 -14 201.5 4 c 0,5,6
 141.278 39.5411 141.278 39.5411 112 102 c 1,7,8
 72.7671 177.327 72.7671 177.327 51 278 c 0,9,10
 42 320 42 320 38 370 c 128,-1,11
 34 420 34 420 53.5 453 c 128,-1,12
 73 486 73 486 99 503 c 1,13,14
 129 521 129 521 169 526 c 1,15,16
 290.091 526 290.091 526 333 408 c 0,17,18
 351 356 351 356 352 290 c 1,19,20
 348.75 363.125 348.75 363.125 396 392 c 0,21,22
 417 404 417 404 444 405 c 1,23,24
 510.958 403.326 510.958 403.326 534 347 c 0,25,26
 545 321 545 321 545 290 c 1,27,28
 545 416.034 545 416.034 595.5 473.5 c 0,29,30
 641.636 526 641.636 526 705 526 c 0,31,32
 778.483 526 778.483 526 816.5 473.5 c 0,33,34
 847 431.381 847 431.381 847 363 c 1,35,36
 843.909 265.628 843.909 265.628 812 167 c 1,37,38
 777.32 67.9134 777.32 67.9134 729.5 31 c 0,39,40
 675.142 -10.9606 675.142 -10.9606 616 -13 c 1,41,42
 505.571 -13 505.571 -13 465 58 c 0,43,44
 446 90 446 90 443 130 c 1,0,1
EndSplineSet
EndChar

StartChar: x
Encoding: 120 120 23
Width: 624
Flags: HW
LayerCount: 2
Fore
SplineSet
313 429 m 1,0,1
 356.325 493.988 356.325 493.988 414.5 516 c 0,2,3
 478.646 540.272 478.646 540.272 546 481 c 1,4,5
 613.586 420.172 613.586 420.172 571 335 c 0,6,7
 553 297 553 297 516 262 c 1,8,9
 579.797 206.903 579.797 206.903 593.5 146 c 0,10,11
 603.001 103.772 603.001 103.772 578 60.5 c 0,12,13
 565 38 565 38 535 13 c 128,-1,14
 505 -12 505 -12 475.5 -20.5 c 128,-1,15
 446 -29 446 -29 421.5 -24.5 c 128,-1,16
 397 -20 397 -20 376.5 -6 c 128,-1,17
 356 8 356 8 341.5 24.5 c 0,18,19
 314.135 55.6391 314.135 55.6391 305 80 c 1,20,21
 231.314 -53.7258 231.314 -53.7258 134.5 -15 c 0,22,23
 112 -6 112 -6 86.5 17 c 128,-1,24
 61 40 61 40 47.5 63 c 128,-1,25
 34 86 34 86 30.5 107.5 c 0,26,27
 17.1753 189.352 17.1753 189.352 102 256 c 1,28,29
 6.15253 351.847 6.15253 351.847 48.5 441 c 0,30,31
 58 461 58 461 81.5 483.5 c 128,-1,32
 105 506 105 506 129 516.5 c 128,-1,33
 153 527 153 527 174.5 528 c 0,34,35
 254.307 531.712 254.307 531.712 313 429 c 1,0,1
EndSplineSet
EndChar

StartChar: y
Encoding: 121 121 24
Width: 711
Flags: HW
LayerCount: 2
Fore
SplineSet
606 505 m 0,0,1
 651.645 484.386 651.645 484.386 667 424.5 c 0,2,3
 672 405 672 405 672 379 c 0,4,5
 672 322.4 672 322.4 643.5 244.2 c 0,6,7
 571.414 46.4068 571.414 46.4068 475 -100 c 1,8,9
 433.443 -172.725 433.443 -172.725 377.5 -207.5 c 0,10,11
 312.639 -247.819 312.639 -247.819 243 -213 c 0,12,13
 157.072 -171.338 157.072 -171.338 180.5 -56 c 0,14,15
 192.498 3.06723 192.498 3.06723 209.749 40.0336 c 128,-1,16
 227 77 227 77 233 89 c 1,17,18
 227 95 227 95 220.5 100.5 c 0,19,20
 207.5 111.5 207.5 111.5 198 121 c 1,21,22
 117.992 181.612 117.992 181.612 61 269 c 1,23,24
 14.0926 344.46 14.0926 344.46 37 417 c 0,25,26
 50.4954 459.736 50.4954 459.736 93 493 c 1,27,28
 180.386 542.155 180.386 542.155 265.5 474.5 c 0,29,30
 297.217 449.289 297.217 449.289 323.609 410.644 c 2,31,-1
 364 352 l 1,32,33
 375 372 375 372 396 407 c 128,-1,34
 417 442 417 442 447 471 c 0,35,36
 521.445 542.964 521.445 542.964 606 505 c 0,0,1
EndSplineSet
EndChar

StartChar: z
Encoding: 122 122 25
Width: 601
Flags: HW
LayerCount: 2
Fore
SplineSet
180 306 m 1,0,1
 88.5801 303.968 88.5801 303.968 48.5 355.5 c 0,2,3
 24.35 386.55 24.35 386.55 27.175 428.275 c 0,4,5
 34.3331 534 34.3331 534 199 553.5 c 0,6,7
 237 558 237 558 296 556.5 c 128,-1,8
 355 555 355 555 400.5 545 c 128,-1,9
 446 535 446 535 473 518.5 c 0,10,11
 524.698 486.907 524.698 486.907 514 427 c 1,12,13
 502.881 380.67 502.881 380.67 456.5 318.5 c 0,14,15
 433 287 433 287 393 253 c 1,16,17
 493.834 250.899 493.834 250.899 540.5 200.5 c 0,18,19
 568 170.8 568 170.8 568 121.4 c 128,-1,20
 568 72 568 72 545 44 c 128,-1,21
 522 16 522 16 485.5 3.5 c 0,22,23
 434.4 -14 434.4 -14 317 -14 c 256,24,25
 201.529 -14 201.529 -14 159.765 -4 c 128,-1,26
 118 6 118 6 92 24 c 128,-1,27
 66 42 66 42 58.5 70.5 c 128,-1,28
 51 99 51 99 52.5 121.5 c 128,-1,29
 54 144 54 144 61.5 164.5 c 0,30,31
 73.9659 198.573 73.9659 198.573 105.483 236.787 c 128,-1,32
 137 275 137 275 180 306 c 1,0,1
EndSplineSet
EndChar

StartChar: A
Encoding: 65 65 26
Width: 746
Flags: HW
LayerCount: 2
Fore
SplineSet
697.5 84.5 m 0,0,1
 666.688 6.28365 666.688 6.28365 572 -1 c 0,2,3
 516.194 -6.0733 516.194 -6.0733 478.597 15.9634 c 128,-1,4
 441 38 441 38 422.5 61.5 c 128,-1,5
 404 85 404 85 393 107.5 c 0,6,7
 379.218 135.69 379.218 135.69 373 173 c 1,8,9
 362.72 111.32 362.72 111.32 323.5 61.5 c 0,10,11
 305 38 305 38 277 21.5 c 0,12,13
 208.174 -19.0581 208.174 -19.0581 124 9 c 1,14,15
 55.7726 32.8796 55.7726 32.8796 40 117 c 1,16,17
 22.2309 201.403 22.2309 201.403 50 328.5 c 0,18,19
 74.1982 439.254 74.1982 439.254 125 526.5 c 0,20,21
 148 566 148 566 175.5 606 c 128,-1,22
 203 646 203 646 237.5 671 c 128,-1,23
 272 696 272 696 301.5 707.5 c 0,24,25
 338.696 722 338.696 722 373 722 c 256,26,27
 437.6 722 437.6 722 509 671 c 0,28,29
 544 646 544 646 571.5 606 c 128,-1,30
 599 566 599 566 621.5 526.5 c 128,-1,31
 644 487 644 487 663.5 437.5 c 0,32,33
 706.492 328.368 706.492 328.368 712 198 c 1,34,35
 716.546 132.846 716.546 132.846 697.5 84.5 c 0,0,1
406 356 m 128,-1,37
 396 369 396 369 378 369 c 128,-1,38
 360 369 360 369 347.5 356 c 128,-1,39
 335 343 335 343 337 324.5 c 0,40,41
 340.73 290 340.73 290 377 290 c 256,42,43
 394 290 394 290 405 300 c 128,-1,44
 416 310 416 310 416 326.5 c 128,-1,36
 416 343 416 343 406 356 c 128,-1,37
EndSplineSet
EndChar

StartChar: B
Encoding: 66 66 27
Width: 668
Flags: HW
LayerCount: 2
Fore
SplineSet
373 714 m 1,0,1
 489.941 709.059 489.941 709.059 556 643 c 0,2,3
 585 614 585 614 598 577 c 1,4,5
 622.986 485.383 622.986 485.383 571 423 c 0,6,7
 548 395 548 395 514 377 c 1,8,9
 560 363 560 363 585 338 c 0,10,11
 632.133 290.867 632.133 290.867 636 229 c 0,12,13
 642.739 90.8452 642.739 90.8452 509 32 c 0,14,15
 449 6 449 6 389.5 1.5 c 128,-1,16
 330 -3 330 -3 295 1 c 128,-1,17
 260 5 260 5 232 13 c 0,18,19
 178.154 28.3846 178.154 28.3846 144 54 c 1,20,21
 105 81 105 81 80 124.5 c 0,22,23
 37 199.32 37 199.32 37 337 c 0,24,25
 37 464.818 37 464.818 77 563 c 1,26,27
 100.27 623.861 100.27 623.861 153.5 663.5 c 0,28,29
 191.656 691.914 191.656 691.914 250.328 705.957 c 128,-1,30
 309 720 309 720 373 714 c 1,0,1
298 476 m 0,31,32
 298 433 298 433 338 433 c 0,33,34
 358 433 358 433 368 446.5 c 128,-1,35
 378 460 378 460 378 475.5 c 128,-1,36
 378 491 378 491 368 502.5 c 128,-1,37
 358 514 358 514 339.5 514 c 128,-1,38
 321 514 321 514 309.5 503.5 c 128,-1,39
 298 493 298 493 298 476 c 0,31,32
376 261 m 128,-1,41
 366 274 366 274 348 274 c 128,-1,42
 330 274 330 274 317.5 261 c 128,-1,43
 305 248 305 248 307 229.5 c 0,44,45
 310.73 195 310.73 195 347 195 c 256,46,47
 364 195 364 195 375 205 c 128,-1,48
 386 215 386 215 386 231.5 c 128,-1,40
 386 248 386 248 376 261 c 128,-1,41
EndSplineSet
EndChar

StartChar: C
Encoding: 67 67 28
Width: 695
Flags: HW
LayerCount: 2
Fore
SplineSet
574.5 425 m 128,-1,1
 544 417 544 417 505 424 c 128,-1,2
 466 431 466 431 443 427 c 128,-1,3
 420 423 420 423 402 410 c 128,-1,4
 384 397 384 397 382.5 369 c 128,-1,5
 381 341 381 341 392.5 324.5 c 0,6,7
 420.895 283.76 420.895 283.76 500 292 c 0,8,9
 562.828 298.981 562.828 298.981 611.5 277 c 0,10,11
 642.834 262.849 642.834 262.849 661.5 226.5 c 0,12,13
 671 208 671 208 673.5 180.5 c 128,-1,14
 676 153 676 153 669.5 127 c 0,15,16
 652.562 59.248 652.562 59.248 595 28 c 0,17,18
 523.02 -10.9083 523.02 -10.9083 396 -7 c 0,19,20
 331 -5 331 -5 243 19 c 1,21,22
 153.358 47.9169 153.358 47.9169 92.5 127.5 c 0,23,24
 22.625 218.875 22.625 218.875 28 364 c 1,25,26
 29.4556 477.537 29.4556 477.537 86.5 568.5 c 0,27,28
 124.93 629.78 124.93 629.78 200.5 671 c 0,29,30
 280.966 714.89 280.966 714.89 397 717 c 0,31,32
 519.345 719.66 519.345 719.66 606 668 c 1,33,34
 679.402 616.347 679.402 616.347 666 527 c 0,35,36
 657.887 472.916 657.887 472.916 622 446 c 0,37,0
 605 433 605 433 574.5 425 c 128,-1,1
EndSplineSet
EndChar

StartChar: D
Encoding: 68 68 29
Width: 684
Flags: HW
LayerCount: 2
Fore
SplineSet
642.5 263.5 m 128,-1,1
 637 224 637 224 624.5 182 c 128,-1,2
 612 140 612 140 591 110.5 c 128,-1,3
 570 81 570 81 544 60 c 0,4,5
 499.716 24.2319 499.716 24.2319 430.358 5.61596 c 128,-1,6
 361 -13 361 -13 283 -11 c 1,7,8
 184.034 -12.6494 184.034 -12.6494 121 32 c 0,9,10
 93 51 93 51 76 75 c 1,11,12
 40 135 40 135 40 255.5 c 2,13,-1
 40 312 l 2,14,15
 40 414.4 40 414.4 51 487 c 1,16,17
 55 526 55 526 62 557 c 1,18,19
 74.9744 637.441 74.9744 637.441 139.5 678 c 0,20,21
 191.94 710.962 191.94 710.962 266 708 c 1,22,23
 396.071 708 396.071 708 483.5 660 c 0,24,25
 564.352 615.611 564.352 615.611 601 555 c 0,26,27
 626 512 626 512 634.5 472 c 128,-1,28
 643 432 643 432 646.5 402.5 c 128,-1,29
 650 373 650 373 649 338 c 128,-1,0
 648 303 648 303 642.5 263.5 c 128,-1,1
347 384 m 0,30,31
 307 384 307 384 307 342 c 0,32,33
 307 318 307 318 318.5 311.5 c 128,-1,34
 330 305 330 305 347 305 c 256,35,36
 364 305 364 305 375 315 c 128,-1,37
 386 325 386 325 386 341.5 c 128,-1,38
 386 358 386 358 376 371 c 128,-1,39
 366 384 366 384 347 384 c 0,30,31
EndSplineSet
EndChar

StartChar: E
Encoding: 69 69 30
Width: 668
Flags: HW
LayerCount: 2
Fore
SplineSet
74.5 608.5 m 0,0,1
 156.867 744.007 156.867 744.007 440.5 703 c 0,2,3
 552.141 686.859 552.141 686.859 595 644 c 1,4,5
 624 617 624 617 623.5 585.5 c 128,-1,6
 623 554 623 554 612 532.5 c 128,-1,7
 601 511 601 511 583 496 c 0,8,9
 518.714 442.429 518.714 442.429 358 451 c 1,10,11
 454.88 434.003 454.88 434.003 484 389 c 0,12,13
 497 369 497 369 495 345 c 1,14,15
 495 294.4 495 294.4 441 262 c 0,16,17
 417 248 417 248 387 241 c 1,18,19
 540.179 244.259 540.179 244.259 600 179 c 0,20,21
 625 151 625 151 625 114 c 1,22,23
 621.395 70.7366 621.395 70.7366 580.5 42 c 0,24,25
 550.955 21.2388 550.955 21.2388 491.978 7.11939 c 128,-1,26
 433 -7 433 -7 369 -8.5 c 128,-1,27
 305 -10 305 -10 263 -4 c 128,-1,28
 221 2 221 2 189 12 c 0,29,30
 69.8038 49.2488 69.8038 49.2488 51 137 c 1,31,32
 28.6159 250.642 28.6159 250.642 39 409 c 0,33,34
 43 480 43 480 53 549 c 1,35,36
 59 583 59 583 74.5 608.5 c 0,0,1
EndSplineSet
EndChar

StartChar: F
Encoding: 70 70 31
Width: 638
Flags: HW
LayerCount: 2
Fore
SplineSet
354 257 m 1,0,1
 390.533 74.3334 390.533 74.3334 302 19 c 0,2,3
 263 -6 263 -6 207 0 c 1,4,5
 130.818 0 130.818 0 89 57.5 c 0,6,7
 51.3415 109.28 51.3415 109.28 40 183 c 1,8,9
 9.92581 335.684 9.92581 335.684 40 565 c 1,10,11
 50.7849 629.709 50.7849 629.709 105 671.5 c 0,12,13
 149.239 705.601 149.239 705.601 215.12 719.801 c 128,-1,14
 281 734 281 734 345 730.5 c 128,-1,15
 409 727 409 727 445.5 720 c 128,-1,16
 482 713 482 713 508 703.5 c 0,17,18
 605.95 667.711 605.95 667.711 608 598 c 0,19,20
 610.673 525.828 610.673 525.828 537 492.5 c 0,21,22
 476.198 464.994 476.198 464.994 374 468 c 1,23,24
 458.514 454.478 458.514 454.478 486 412 c 0,25,26
 499 393 499 393 499 371 c 0,27,28
 499 329 499 329 476 306 c 0,29,30
 430.842 260.842 430.842 260.842 354 257 c 1,0,1
EndSplineSet
EndChar

StartChar: G
Encoding: 71 71 32
Width: 754
Flags: HW
LayerCount: 2
Fore
SplineSet
446 279 m 1,0,1
 409.674 294.794 409.674 294.794 404 326 c 0,2,3
 397.902 365.634 397.902 365.634 439.5 379.5 c 0,4,5
 512.368 403.789 512.368 403.789 628 386 c 1,6,7
 673.237 378.017 673.237 378.017 692 353 c 0,8,9
 723 311.667 723 311.667 723 185 c 0,10,11
 723 36 723 36 697.5 2 c 0,12,13
 665.2 -41.0667 665.2 -41.0667 613 -43 c 1,14,15
 531.41 -43 531.41 -43 505 8.5 c 0,16,17
 495 28 495 28 495 57 c 1,18,19
 450.455 0.306229 450.455 0.306229 347 -6.5 c 0,20,21
 309 -9 309 -9 249.5 2 c 0,22,23
 158.796 18.7688 158.796 18.7688 88.5 100 c 0,24,25
 41.4439 154.376 41.4439 154.376 20 246 c 0,26,27
 9 293 9 293 9.5 361 c 0,28,29
 10.2629 464.751 10.2629 464.751 65 557.5 c 0,30,31
 126.664 661.986 126.664 661.986 262 708 c 1,32,33
 347.548 729.387 347.548 729.387 435.5 715.5 c 0,34,35
 533.742 699.988 533.742 699.988 602 629 c 1,36,37
 634.566 590.328 634.566 590.328 635.5 538 c 0,38,39
 636 510 636 510 621 477 c 1,40,41
 597.997 432.91 597.997 432.91 532.5 429 c 0,42,43
 499 427 499 427 446 447 c 1,44,45
 374.677 466.276 374.677 466.276 336 430.5 c 0,46,47
 316 412 316 412 315 364 c 1,48,49
 319.176 288.836 319.176 288.836 370 272.5 c 0,50,51
 400.612 262.66 400.612 262.66 446 279 c 1,0,1
EndSplineSet
EndChar

StartChar: H
Encoding: 72 72 33
Width: 766
Flags: HW
LayerCount: 2
Fore
SplineSet
366 489 m 1,0,-1
 404 489 l 1,1,2
 405.438 581.016 405.438 581.016 442 645 c 0,3,4
 466.75 688.312 466.75 688.312 514 708 c 0,5,6
 538 718 538 718 571 718 c 1,7,8
 646.026 712.077 646.026 712.077 695.5 633.5 c 0,9,10
 749.372 547.938 749.372 547.938 738 275 c 0,11,12
 735 219 735 219 729.5 170.5 c 128,-1,13
 724 122 724 122 710.5 94 c 128,-1,14
 697 66 697 66 685 50.5 c 128,-1,15
 673 35 673 35 656.5 22.5 c 0,16,17
 621.52 -3.99999 621.52 -3.99999 581.26 -3.99999 c 128,-1,18
 541 -4 541 -4 518 6 c 128,-1,19
 495 16 495 16 478 32.5 c 0,20,21
 449.289 60.3667 449.289 60.3667 430.644 110.683 c 128,-1,22
 412 161 412 161 408 224 c 1,23,-1
 371 224 l 1,24,25
 365 160 365 160 350.5 125 c 128,-1,26
 336 90 336 90 323.5 69.5 c 128,-1,27
 311 49 311 49 294 33.5 c 0,28,29
 255.065 -2 255.065 -2 208.032 -1.5 c 128,-1,30
 161 -1 161 -1 128 19 c 1,31,32
 91.905 42.2039 91.905 42.2039 76.4525 68.602 c 0,33,34
 46.4431 119.868 46.4431 119.868 39.7216 196.934 c 0,35,36
 28.6755 323.583 28.6755 323.583 34.8377 416.291 c 128,-1,37
 41 509 41 509 48.5 552.5 c 128,-1,38
 56 596 56 596 69.5 622.5 c 128,-1,39
 83 649 83 649 94.5 664 c 128,-1,40
 106 679 106 679 121.5 691 c 0,41,42
 155.083 717 155.083 717 194.042 717 c 128,-1,43
 233 717 233 717 257 707 c 128,-1,44
 281 697 281 697 299 681 c 0,45,46
 328.16 655.08 328.16 655.08 347.08 604.04 c 128,-1,47
 366 553 366 553 366 489 c 1,0,-1
EndSplineSet
EndChar

StartChar: I
Encoding: 73 73 34
Width: 420
Flags: HW
LayerCount: 2
Fore
SplineSet
86.5 59 m 128,-1,1
 74 78 74 78 59.5 111.5 c 128,-1,2
 45 145 45 145 39 194.5 c 0,3,4
 24.786 311.766 24.786 311.766 35 482 c 1,5,6
 42.3371 572.98 42.3371 572.98 82 634 c 0,7,8
 109.23 675.892 109.23 675.892 157 695 c 0,9,10
 182 705 182 705 215 705 c 1,11,12
 255 702 255 702 278.5 687 c 128,-1,13
 302 672 302 672 316.5 658 c 128,-1,14
 331 644 331 644 343.5 623 c 0,15,16
 370.638 577.409 370.638 577.409 379.319 508.704 c 0,17,18
 399.374 349.987 399.374 349.987 380 164 c 1,19,20
 365.535 62.7465 365.535 62.7465 304 17.5 c 0,21,22
 267.96 -9.00001 267.96 -9.00001 225.98 -9 c 128,-1,23
 184 -9 184 -9 160 0.5 c 128,-1,24
 136 10 136 10 117.5 25 c 128,-1,0
 99 40 99 40 86.5 59 c 128,-1,1
EndSplineSet
EndChar

StartChar: J
Encoding: 74 74 35
Width: 547
Flags: HW
LayerCount: 2
Fore
SplineSet
91 199 m 0,0,1
 149.587 204.022 149.587 204.022 168.5 230.5 c 0,2,3
 176 241 176 241 174 268 c 0,4,5
 169 335.5 169 335.5 169 397.75 c 128,-1,6
 169 460 169 460 170 509.5 c 128,-1,7
 171 559 171 559 183 592 c 128,-1,8
 195 625 195 625 206.5 644 c 128,-1,9
 218 663 218 663 234.5 678 c 0,10,11
 271.9 712 271.9 712 320.45 712 c 128,-1,12
 369 712 369 712 394.5 699 c 128,-1,13
 420 686 420 686 435 673 c 128,-1,14
 450 660 450 660 462.5 640.5 c 0,15,16
 490.501 596.818 490.501 596.818 495.751 528.409 c 0,17,18
 506.095 393.605 506.095 393.605 504.547 331.302 c 128,-1,19
 503 269 503 269 501 234.5 c 128,-1,20
 499 200 499 200 490.5 168.5 c 0,21,22
 468.473 86.8705 468.473 86.8705 422 42 c 0,23,24
 387.622 9.77026 387.622 9.77026 311 -3 c 0,25,26
 231.159 -16.3068 231.159 -16.3068 158 0.5 c 0,27,28
 74.0261 19.7913 74.0261 19.7913 41 73 c 1,29,30
 16.916 109.126 16.916 109.126 34.5 152.5 c 0,31,32
 51.7606 195.076 51.7606 195.076 91 199 c 0,0,1
EndSplineSet
EndChar

StartChar: K
Encoding: 75 75 36
Width: 732
Flags: HW
LayerCount: 2
Fore
SplineSet
380 541 m 1,0,1
 384.956 570.734 384.956 570.734 404.978 600.367 c 128,-1,2
 425 630 425 630 454 655 c 128,-1,3
 483 680 483 680 516.5 684 c 0,4,5
 579.538 691.527 579.538 691.527 629 648 c 1,6,7
 704.027 569.711 704.027 569.711 640 463 c 0,8,9
 611 416 611 416 558 373 c 1,10,11
 711.987 205.908 711.987 205.908 696 94 c 1,12,13
 688 46 688 46 649.5 22 c 128,-1,14
 611 -2 611 -2 580.5 -7 c 128,-1,15
 550 -12 550 -12 523 -5.5 c 0,16,17
 476.244 5.7561 476.244 5.7561 432.122 49.878 c 128,-1,18
 388 94 388 94 355 164 c 1,19,20
 362.571 86.3927 362.571 86.3927 316 34 c 0,21,22
 292 7 292 7 241 -3 c 0,23,24
 191.064 -13.7005 191.064 -13.7005 149 8.5 c 0,25,26
 119.171 24.2429 119.171 24.2429 94.5857 61.1214 c 0,27,28
 34.7111 150.933 34.7111 150.933 38 368 c 0,29,30
 39 434 39 434 51 511 c 256,31,32
 63 588 63 588 89.5 629 c 0,33,34
 141.287 709.124 141.287 709.124 213 713 c 1,35,36
 341.267 716.289 341.267 716.289 374 629 c 0,37,38
 388 590 388 590 380 541 c 1,0,1
EndSplineSet
EndChar

StartChar: L
Encoding: 76 76 37
Width: 651
Flags: HW
LayerCount: 2
Fore
SplineSet
355 284 m 1,0,1
 500.644 361.902 500.644 361.902 577 291 c 0,2,3
 610 260 610 260 624 206 c 1,4,5
 636.101 151.547 636.101 151.547 593.5 87 c 0,6,7
 557.789 32.8923 557.789 32.8923 469 5.5 c 0,8,9
 422 -9 422 -9 365 -11 c 128,-1,10
 308 -13 308 -13 270.5 -5 c 128,-1,11
 233 3 233 3 203.5 16.5 c 0,12,13
 150.109 40.9332 150.109 40.9332 112.554 84.9666 c 128,-1,14
 75 129 75 129 58 186 c 1,15,16
 27.1654 273.365 27.1654 273.365 35 417 c 0,17,18
 38 481 38 481 48.5 545.5 c 128,-1,19
 59 610 59 610 85 644 c 0,20,21
 134.706 709 134.706 709 205 709 c 1,22,23
 282.52 710.846 282.52 710.846 323.5 645.5 c 0,24,25
 390.728 538.299 390.728 538.299 355 284 c 1,0,1
EndSplineSet
EndChar

StartChar: M
Encoding: 77 77 38
Width: 987
Flags: HW
LayerCount: 2
Fore
SplineSet
492 500 m 1,0,1
 499 561 499 561 515.5 595 c 128,-1,2
 532 629 532 629 546 648.5 c 128,-1,3
 560 668 560 668 579 683.5 c 0,4,5
 621.29 718 621.29 718 675.145 718 c 0,6,7
 762.276 718 762.276 718 826 641 c 0,8,9
 854 608 854 608 874 565 c 1,10,11
 918.423 461.346 918.423 461.346 937 326 c 0,12,13
 965.086 115.358 965.086 115.358 902.5 43.5 c 0,14,15
 860.667 -4.53028 860.667 -4.53028 796 -6 c 1,16,17
 664.7 -6 664.7 -6 617 153 c 0,18,19
 595 223 595 223 594 312 c 1,20,21
 585.564 212.457 585.564 212.457 541 181 c 0,22,23
 521 166 521 166 497 168 c 1,24,25
 458 168 458 168 436 190.5 c 0,26,27
 392.804 234.678 392.804 234.678 387 314 c 1,28,29
 387 112.625 387 112.625 301 32 c 1,30,31
 263 -2 263 -2 215 -6 c 1,32,33
 90 -6 90 -6 48 99 c 0,34,35
 30 146 30 146 30 216 c 0,36,37
 30 340.5 30 340.5 67 470 c 0,38,39
 84 527 84 527 107.5 580 c 128,-1,40
 131 633 131 633 167 662.5 c 0,41,42
 236.983 719.847 236.983 719.847 312 716 c 1,43,44
 427.8 716 427.8 716 471 608 c 0,45,46
 490 560 490 560 492 500 c 1,0,1
EndSplineSet
EndChar

StartChar: N
Encoding: 78 78 39
Width: 823
Flags: HW
LayerCount: 2
Fore
SplineSet
55 552 m 1,0,1
 74.5131 635.906 74.5131 635.906 145.5 685.5 c 0,2,3
 182 711 182 711 232.5 713.5 c 128,-1,4
 283 716 283 716 314.5 705.5 c 128,-1,5
 346 695 346 695 370 677 c 0,6,7
 411.731 645.701 411.731 645.701 437.866 586.351 c 128,-1,8
 464 527 464 527 467 450 c 1,9,10
 463.64 621.336 463.64 621.336 545 681 c 0,11,12
 580 707 580 707 626.5 707.5 c 0,13,14
 705.895 708.354 705.895 708.354 745 651 c 0,15,16
 763 625 763 625 769 593 c 0,17,18
 786 505 786 505 786 425.5 c 128,-1,19
 786 346 786 346 780 279 c 128,-1,20
 774 212 774 212 764 164 c 128,-1,21
 754 116 754 116 743.5 92.5 c 128,-1,22
 733 69 733 69 720.5 52.5 c 0,23,24
 698.591 23.5806 698.591 23.5806 666.796 9.2903 c 128,-1,25
 635 -5 635 -5 601 -2 c 1,26,27
 490.136 -4.704 490.136 -4.704 427 90 c 0,28,29
 369.496 176.255 369.496 176.255 354 296 c 1,30,31
 364.109 87.0818 364.109 87.0818 280 24 c 1,32,33
 242 -6 242 -6 193 -2 c 1,34,35
 121.932 -5.30547 121.932 -5.30547 81 52 c 0,36,37
 63 77 63 77 55 109 c 0,38,39
 22.9677 242.187 22.9677 242.187 36 409 c 0,40,41
 41 483 41 483 55 552 c 1,0,1
EndSplineSet
EndChar

StartChar: O
Encoding: 79 79 40
Width: 748
Flags: HW
LayerCount: 2
Fore
SplineSet
393 704 m 1,0,1
 502.917 704 502.917 704 578 651 c 0,2,3
 638.014 608.637 638.014 608.637 673.007 533.819 c 128,-1,4
 708 459 708 459 713 365 c 1,5,6
 713 236.156 713 236.156 662.5 147.5 c 0,7,8
 622.865 77.9192 622.865 77.9192 553 36 c 0,9,10
 483 -5 483 -5 393 -11 c 1,11,12
 269.894 -11 269.894 -11 185 41.5 c 0,13,14
 117.819 83.0459 117.819 83.0459 77.9097 157.523 c 128,-1,15
 38 232 38 232 33 327 c 1,16,17
 33 468.549 33 468.549 89.5 560.5 c 0,18,19
 134.78 634.19 134.78 634.19 213.39 671.095 c 128,-1,20
 292 708 292 708 393 704 c 1,0,1
407 370 m 128,-1,22
 397 383 397 383 379 383 c 128,-1,23
 361 383 361 383 348.5 370 c 128,-1,24
 336 357 336 357 338 338.5 c 0,25,26
 341.73 304 341.73 304 378 304 c 256,27,28
 395 304 395 304 406 314 c 128,-1,29
 417 324 417 324 417 340.5 c 128,-1,21
 417 357 417 357 407 370 c 128,-1,22
EndSplineSet
EndChar

StartChar: P
Encoding: 80 80 41
Width: 737
Flags: HW
LayerCount: 2
Fore
SplineSet
693 463 m 1,0,1
 696.678 361.849 696.678 361.849 650 298.5 c 0,2,3
 612.173 247.163 612.173 247.163 544.586 223.081 c 128,-1,4
 477 199 477 199 390 205 c 1,5,6
 398 168 398 168 398 140 c 128,-1,7
 398 112 398 112 392 91 c 0,8,9
 381.375 53.8125 381.375 53.8125 353.688 30.9062 c 128,-1,10
 326 8 326 8 276 2.5 c 128,-1,11
 226 -3 226 -3 187 18 c 0,12,13
 112.637 58.0418 112.637 58.0418 83 143 c 1,14,15
 26.0367 336.18 26.0367 336.18 87 537 c 1,16,17
 109.98 605.94 109.98 605.94 164.5 653.5 c 0,18,19
 203.136 687.203 203.136 687.203 263.568 706.102 c 128,-1,20
 324 725 324 725 385 722 c 128,-1,21
 446 719 446 719 488.5 707 c 128,-1,22
 531 695 531 695 562.5 676.5 c 0,23,24
 618.094 643.85 618.094 643.85 652.047 588.425 c 128,-1,25
 686 533 686 533 693 463 c 1,0,1
417 470 m 128,-1,27
 407 483 407 483 389 483 c 128,-1,28
 371 483 371 483 358.5 470 c 128,-1,29
 346 457 346 457 348 438.5 c 0,30,31
 351.73 404 351.73 404 388 404 c 256,32,33
 405 404 405 404 416 414 c 128,-1,34
 427 424 427 424 427 440.5 c 128,-1,26
 427 457 427 457 417 470 c 128,-1,27
EndSplineSet
EndChar

StartChar: Q
Encoding: 81 81 42
Width: 833
Flags: HW
LayerCount: 2
Fore
SplineSet
754 360 m 1,0,1
 754 272.286 754 272.286 722 206 c 1,2,3
 774.516 166.613 774.516 166.613 787.258 137.306 c 128,-1,4
 800 108 800 108 797.5 79.5 c 128,-1,5
 795 51 795 51 769 12 c 128,-1,6
 743 -27 743 -27 709.5 -39.5 c 128,-1,7
 676 -52 676 -52 645 -46.5 c 128,-1,8
 614 -41 614 -41 589 -24 c 128,-1,9
 564 -7 564 -7 554 11 c 1,10,11
 517.028 -4.6422 517.028 -4.6422 480.014 -11.3211 c 128,-1,12
 443 -18 443 -18 426 -18 c 0,13,14
 298.125 -18 298.125 -18 212 35 c 0,15,16
 142.404 77.8286 142.404 77.8286 102.702 152.414 c 128,-1,17
 63 227 63 227 57 323 c 1,18,19
 57 463.922 57 463.922 114.5 557.5 c 0,20,21
 159.506 630.746 159.506 630.746 240.753 667.873 c 128,-1,22
 322 705 322 705 426 701 c 1,23,24
 537.875 701 537.875 701 615.5 647 c 0,25,26
 678.796 602.968 678.796 602.968 713.898 528.984 c 128,-1,27
 749 455 749 455 754 360 c 1,0,1
455 357 m 128,-1,29
 445 370 445 370 427 370 c 128,-1,30
 409 370 409 370 396.5 357 c 128,-1,31
 384 344 384 344 386 325.5 c 0,32,33
 389.73 291 389.73 291 426 291 c 256,34,35
 443 291 443 291 454 301 c 128,-1,36
 465 311 465 311 465 327.5 c 128,-1,28
 465 344 465 344 455 357 c 128,-1,29
EndSplineSet
EndChar

StartChar: R
Encoding: 82 82 43
Width: 687
Flags: HW
LayerCount: 2
Fore
SplineSet
618 519 m 1,0,1
 633.86 433.357 633.86 433.357 603 352 c 1,2,3
 589 318 589 318 569 293 c 1,4,5
 666.748 208.828 666.748 208.828 668.5 133.5 c 0,6,7
 670.061 66.3702 670.061 66.3702 616 18 c 1,8,9
 518.54 -59.2962 518.54 -59.2962 424 51 c 0,10,11
 382 99 382 99 347 177 c 1,12,13
 363.769 66.3265 363.769 66.3265 302 20 c 1,14,15
 275 -2 275 -2 230.5 -8.5 c 128,-1,16
 186 -15 186 -15 153 3.5 c 0,17,18
 87.8325 40.0333 87.8325 40.0333 64.4162 120.017 c 0,19,20
 24.7222 255.6 24.7222 255.6 38 399 c 0,21,22
 44 461 44 461 60 512 c 1,23,24
 77.9431 585.567 77.9431 585.567 128.5 635 c 0,25,26
 210.619 715.294 210.619 715.294 347 709 c 1,27,28
 461.333 709 461.333 709 536.5 648.5 c 0,29,30
 597.064 599.753 597.064 599.753 618 519 c 1,0,1
376 437 m 128,-1,32
 366 450 366 450 348 450 c 128,-1,33
 330 450 330 450 317.5 437 c 128,-1,34
 305 424 305 424 307 405.5 c 0,35,36
 310.73 371 310.73 371 347 371 c 256,37,38
 364 371 364 371 375 381 c 128,-1,39
 386 391 386 391 386 407.5 c 128,-1,31
 386 424 386 424 376 437 c 128,-1,32
EndSplineSet
EndChar

StartChar: S
Encoding: 83 83 44
Width: 625
Flags: HW
LayerCount: 2
Fore
SplineSet
306 460 m 1,0,1
 492.725 433.325 492.725 433.325 560 335 c 0,2,3
 590 291 590 291 590.5 242.5 c 128,-1,4
 591 194 591 194 580 159 c 128,-1,5
 569 124 569 124 550.5 98.5 c 0,6,7
 518.908 54.9539 518.908 54.9539 461.454 26.9769 c 128,-1,8
 404 -1 404 -1 339.5 -5.5 c 128,-1,9
 275 -10 275 -10 232 -6 c 128,-1,10
 189 -2 189 -2 157.5 7.5 c 0,11,12
 98.2908 25.3567 98.2908 25.3567 70 58 c 1,13,14
 37 92 37 92 36 131.5 c 128,-1,15
 35 171 35 171 44 194 c 128,-1,16
 53 217 53 217 69 232.5 c 0,17,18
 129.8 291.4 129.8 291.4 261 275 c 1,19,20
 118.88 307.3 118.88 307.3 75 417 c 1,21,22
 57 465 57 465 62.5 510.5 c 128,-1,23
 68 556 68 556 80.5 584 c 128,-1,24
 93 612 93 612 110 632 c 0,25,26
 172.9 706 172.9 706 289 706 c 1,27,28
 453.411 713.071 453.411 713.071 518.5 661 c 0,29,30
 562.61 625.712 562.61 625.712 557 564 c 1,31,32
 549.125 498.375 549.125 498.375 471.5 472.5 c 0,33,34
 403.103 449.701 403.103 449.701 306 460 c 1,0,1
EndSplineSet
EndChar

StartChar: T
Encoding: 84 84 45
Width: 736
Flags: HW
LayerCount: 2
Fore
SplineSet
239 415 m 1,0,1
 122.197 406.803 122.197 406.803 67.5 461.5 c 0,2,3
 36 493 36 493 36 545 c 0,4,5
 36 631.4 36 631.4 102 671 c 0,6,7
 131 689 131 689 168 695 c 1,8,9
 301.825 723.438 301.825 723.438 461 713 c 0,10,11
 531 709 531 709 596 698 c 1,12,13
 671.171 681.659 671.171 681.659 700 624 c 0,14,15
 712 598 712 598 711.5 567.5 c 128,-1,16
 711 537 711 537 702.5 514 c 128,-1,17
 694 491 694 491 680.5 474.5 c 0,18,19
 657.797 446.752 657.797 446.752 616.898 432.876 c 128,-1,20
 576 419 576 419 525 423 c 1,21,22
 546.097 299.662 546.097 299.662 538 189 c 0,23,24
 534 141 534 141 525 107 c 1,25,26
 515 59 515 59 492.5 36 c 0,27,28
 447.5 -10 447.5 -10 389 -10 c 1,29,30
 319.972 -11.9722 319.972 -11.9722 274 34 c 0,31,32
 230.208 77.7924 230.208 77.7924 226.5 212.5 c 0,33,34
 223.896 307.114 223.896 307.114 239 415 c 1,0,1
EndSplineSet
EndChar

StartChar: U
Encoding: 85 85 46
Width: 767
Flags: HW
LayerCount: 2
Fore
SplineSet
37 559 m 1,0,1
 56.976 663.874 56.976 663.874 133.5 699 c 0,2,3
 164 713 164 713 201 711 c 128,-1,4
 238 709 238 709 264 693.5 c 0,5,6
 331 653.558 331 653.558 331 559 c 0,7,8
 331 516 331 516 330 477.5 c 128,-1,9
 329 439 329 439 332 409.5 c 0,10,11
 338.559 345 338.559 345 370 345 c 256,12,13
 413.442 345 413.442 345 410 477.5 c 0,14,15
 409 516 409 516 408 551.5 c 128,-1,16
 407 587 407 587 412.5 608.5 c 128,-1,17
 418 630 418 630 428 646 c 0,18,19
 464.25 704 464.25 704 547 704 c 1,20,21
 630.232 708.896 630.232 708.896 679 652 c 1,22,23
 699 626 699 626 709 594 c 1,24,25
 751.004 406.216 751.004 406.216 697 201 c 1,26,27
 666.823 113.342 666.823 113.342 593.5 52.5 c 0,28,29
 512.154 -15 512.154 -15 380 -15 c 0,30,31
 249.154 -15 249.154 -15 155 57 c 0,32,33
 115 88 115 88 94 123.5 c 128,-1,34
 73 159 73 159 61 194.5 c 128,-1,35
 49 230 49 230 41.5 266.5 c 0,36,37
 13.8418 401.103 13.8418 401.103 37 559 c 1,0,1
EndSplineSet
EndChar

StartChar: V
Encoding: 86 86 47
Width: 806
Flags: HW
LayerCount: 2
Fore
SplineSet
419 424 m 1,0,1
 446.224 618.755 446.224 618.755 540.5 689 c 0,2,3
 597.151 731.211 597.151 731.211 671 715 c 0,4,5
 799.041 685.452 799.041 685.452 783 509 c 0,6,7
 776 431 776 431 741 336 c 0,8,9
 689.763 196.927 689.763 196.927 612.5 103 c 0,10,11
 523.661 -4.99997 523.661 -4.99997 419 -5 c 0,12,13
 316.457 -5 316.457 -5 234 73 c 0,14,15
 171.641 131.988 171.641 131.988 120 236.5 c 0,16,17
 88.5568 300.135 88.5568 300.135 71.7784 352.068 c 128,-1,18
 55 404 55 404 45.5 436 c 128,-1,19
 36 468 36 468 31.5 502 c 128,-1,20
 27 536 27 536 29.5 570 c 128,-1,21
 32 604 32 604 46.5 633 c 0,22,23
 78.1573 696.315 78.1573 696.315 169 713 c 1,24,25
 295.83 733.567 295.83 733.567 369 582 c 0,26,27
 402 514 402 514 419 424 c 1,0,1
EndSplineSet
EndChar

StartChar: W
Encoding: 87 87 48
Width: 1012
Flags: HW
LayerCount: 2
Fore
SplineSet
513 208 m 1,0,1
 501.294 118.74 501.294 118.74 456.5 58.5 c 0,2,3
 405.564 -9.99998 405.564 -9.99998 318 -10 c 0,4,5
 232.517 -10 232.517 -10 167 66 c 0,6,7
 138 99 138 99 113.5 152 c 0,8,9
 72.3506 241.017 72.3506 241.017 53 382 c 0,10,11
 45 442 45 442 43.5 490 c 128,-1,12
 42 538 42 538 47.5 569 c 128,-1,13
 53 600 53 600 63.5 623 c 0,14,15
 82.0938 663.729 82.0938 663.729 117.047 687.365 c 128,-1,16
 152 711 152 711 198 714 c 1,17,18
 305.373 714 305.373 714 358 610.5 c 0,19,20
 403.55 520.918 403.55 520.918 405 389 c 1,21,22
 401.72 487.404 401.72 487.404 454 524 c 0,23,24
 477 540 477 540 503 540 c 128,-1,25
 529 540 529 540 545.5 533 c 128,-1,26
 562 526 562 526 574 515.5 c 0,27,28
 617.903 477.085 617.903 477.085 620 389 c 1,29,30
 620 594.471 620 594.471 709 673 c 0,31,32
 749 709 749 709 799 714 c 1,33,34
 916.238 714 916.238 714 957 607 c 0,35,36
 976 559 976 559 978 497 c 1,37,38
 978 294.4 978 294.4 906 136 c 0,39,40
 862.554 39.0828 862.554 39.0828 777 7 c 0,41,42
 739 -8 739 -8 701 -8 c 128,-1,43
 663 -8 663 -8 636 1.5 c 128,-1,44
 609 11 609 11 589 26 c 0,45,46
 515.11 81.4177 515.11 81.4177 513 208 c 1,0,1
EndSplineSet
EndChar

StartChar: X
Encoding: 88 88 49
Width: 833
Flags: HW
LayerCount: 2
Fore
SplineSet
402 539 m 1,0,1
 453.687 653.86 453.687 653.86 529 702.5 c 0,2,3
 579.1 734.856 579.1 734.856 639 716.5 c 0,4,5
 670 707 670 707 700.5 680 c 128,-1,6
 731 653 731 653 743 626.5 c 128,-1,7
 755 600 755 600 755.5 572.5 c 0,8,9
 757.321 472.322 757.321 472.322 638 353 c 1,10,11
 727.16 281.38 727.16 281.38 755 202.5 c 0,12,13
 773.772 149.312 773.772 149.312 749.5 93 c 0,14,15
 737 64 737 64 702 31 c 128,-1,16
 667 -2 667 -2 629.5 -9.5 c 128,-1,17
 592 -17 592 -17 558 -5.5 c 128,-1,18
 524 6 524 6 495 31.5 c 128,-1,19
 466 57 466 57 444 84.5 c 0,20,21
 403.333 135.333 403.333 135.333 390 172 c 1,22,23
 336.404 53.2201 336.404 53.2201 264 6 c 0,24,25
 214.158 -26.5054 214.158 -26.5054 157 -6.5 c 0,26,27
 127 4 127 4 95 34 c 128,-1,28
 63 64 63 64 50 93.5 c 128,-1,29
 37 123 37 123 36 151.5 c 0,30,31
 34.2053 202.648 34.2053 202.648 68.6027 256.824 c 128,-1,32
 103 311 103 311 168 361 c 1,33,34
 60.0057 432.51 60.0057 432.51 27.5 513 c 0,35,36
 -9.33251 604.204 -9.33251 604.204 86 681 c 1,37,38
 173.501 749.94 173.501 749.94 263.5 697 c 0,39,40
 339.337 652.39 339.337 652.39 402 539 c 1,0,1
EndSplineSet
EndChar

StartChar: Z
Encoding: 90 90 50
Width: 727
Flags: HW
LayerCount: 2
Fore
SplineSet
244 392 m 1,0,1
 123.03 387.829 123.03 387.829 68.5 448 c 0,2,3
 36 483.862 36 483.862 36 535.431 c 0,4,5
 36 607.023 36 607.023 105 652.5 c 0,6,7
 182.633 703.667 182.633 703.667 348 701 c 1,8,9
 509.97 697.049 509.97 697.049 570.5 661.5 c 0,10,11
 629.404 626.906 629.404 626.906 619 552 c 1,12,13
 601.638 474.836 601.638 474.836 538.5 384.5 c 0,14,15
 506 338 506 338 452 289 c 1,16,17
 549.181 299.153 549.181 299.153 618 271 c 0,18,19
 663.844 252.245 663.844 252.245 684.5 207 c 0,20,21
 695 184 695 184 695 152 c 0,22,23
 695 -7.28829 695 -7.28829 490.5 -16.5 c 0,24,25
 435 -19 435 -19 383 -19 c 256,26,27
 331 -19 331 -19 281 -18 c 128,-1,28
 231 -17 231 -17 189 -7 c 128,-1,29
 147 3 147 3 116 25.5 c 128,-1,30
 85 48 85 48 72.5 84.5 c 128,-1,31
 60 121 60 121 62 149.5 c 128,-1,32
 64 178 64 178 74.5 204.5 c 0,33,34
 112.365 300.065 112.365 300.065 244 392 c 1,0,1
EndSplineSet
EndChar

StartChar: period
Encoding: 46 46 51
Width: 352
Flags: HW
LayerCount: 2
Fore
SplineSet
301 116 m 256,0,1
 301 30.4255 301 30.4255 229.5 0 c 0,2,3
 206 -10 206 -10 175.5 -10 c 128,-1,4
 145 -10 145 -10 121.5 0 c 128,-1,5
 98 10 98 10 82 27 c 0,6,7
 49 62.0625 49 62.0625 49 116 c 256,8,9
 49 169.938 49 169.938 82 205 c 0,10,11
 116.824 242 116.824 242 175 242 c 0,12,13
 234.176 242 234.176 242 269 205 c 0,14,15
 301 171 301 171 301 116 c 256,0,1
EndSplineSet
EndChar

StartChar: comma
Encoding: 44 44 52
Width: 326
Flags: HW
LayerCount: 2
Fore
SplineSet
238 201.5 m 128,-1,1
 270 167 270 167 272 118.5 c 128,-1,2
 274 70 274 70 269 35.5 c 128,-1,3
 264 1 264 1 253.5 -23 c 0,4,5
 214.074 -113.117 214.074 -113.117 121 -103 c 0,6,7
 100.149 -100.021 100.149 -100.021 95 -82 c 0,8,9
 93 -74 93 -74 96.5 -63 c 0,10,11
 101.909 -46 101.909 -46 118.455 -46 c 128,-1,12
 135 -46 135 -46 136.5 -35.5 c 128,-1,13
 138 -25 138 -25 137 -15 c 1,14,15
 80 -11 80 -11 50.5 24.5 c 128,-1,16
 21 60 21 60 21 111.5 c 128,-1,17
 21 163 21 163 53 199.5 c 128,-1,18
 85 236 85 236 145.5 236 c 128,-1,0
 206 236 206 236 238 201.5 c 128,-1,1
EndSplineSet
EndChar

StartChar: braceleft
Encoding: 123 123 53
Width: 568
Flags: HW
LayerCount: 2
Fore
SplineSet
106 342 m 1,0,-1
 106 346 l 1,1,2
 107.659 415.661 107.659 415.661 153 445 c 0,3,4
 173 457 173 457 197 460.5 c 0,5,6
 255.736 469.066 255.736 469.066 223 560 c 1,7,8
 199.4 619 199.4 619 207 676 c 0,9,10
 217.109 751.819 217.109 751.819 305.5 773.5 c 0,11,12
 332 780 332 780 373 777 c 1,13,14
 420.039 769.474 420.039 769.474 454 746.5 c 0,15,16
 471 735 471 735 477.5 715.5 c 128,-1,17
 484 696 484 696 482 679.5 c 128,-1,18
 480 663 480 663 470 649 c 128,-1,19
 460 635 460 635 433 630 c 1,20,21
 395.534 618.169 395.534 618.169 396.5 566 c 0,22,23
 397 539 397 539 415.5 500 c 128,-1,24
 434 461 434 461 431.5 435 c 128,-1,25
 429 409 429 409 419 390.5 c 0,26,27
 403.366 361.577 403.366 361.577 377 344 c 1,28,29
 425.713 311.524 425.713 311.524 431.5 252.5 c 0,30,31
 434 227 434 227 415.5 187.5 c 0,32,33
 382.65 117.362 382.65 117.362 404 80 c 0,34,35
 414 63 414 63 437 57.5 c 0,36,37
 476.802 47.982 476.802 47.982 482 9 c 0,38,39
 484 -9 484 -9 477.5 -28.5 c 0,40,41
 467.255 -59.2341 467.255 -59.2341 419 -78 c 0,42,43
 398 -86 398 -86 365 -89.5 c 0,44,45
 309.877 -95.3464 309.877 -95.3464 262 -70 c 1,46,47
 192.145 -29.5576 192.145 -29.5576 207 67 c 0,48,49
 211 97 211 97 221.5 124.5 c 128,-1,50
 232 152 232 152 234 171.5 c 0,51,52
 238.783 218.134 238.783 218.134 198 227 c 1,53,54
 149.656 230.868 149.656 230.868 121.5 276.5 c 0,55,56
 107 300 107 300 106 342 c 1,0,-1
EndSplineSet
EndChar

StartChar: braceright
Encoding: 125 125 54
Width: 517
Flags: HW
LayerCount: 2
Fore
SplineSet
451 354 m 1,0,-1
 451 350 l 1,1,2
 449.341 280.339 449.341 280.339 404 251 c 0,3,4
 384 238 384 238 358 236 c 1,5,6
 316.991 227.085 316.991 227.085 322 182 c 1,7,8
 323 161 323 161 334 133.5 c 128,-1,9
 345 106 345 106 349 78 c 0,10,11
 363.347 -22.4306 363.347 -22.4306 295 -62 c 1,12,13
 247.019 -87.4019 247.019 -87.4019 183 -81 c 1,14,15
 135.961 -73.4738 135.961 -73.4738 102 -50.5 c 0,16,17
 85 -39 85 -39 80 -20 c 1,18,19
 64.9744 17.5641 64.9744 17.5641 86 47 c 0,20,21
 96 61 96 61 119 66.5 c 128,-1,22
 142 72 142 72 151 87.5 c 0,23,24
 173.613 126.445 173.613 126.445 137 203 c 0,25,26
 110.912 258.654 110.912 258.654 137.5 305.5 c 0,27,28
 154.087 334.725 154.087 334.725 180 352 c 1,29,30
 130.217 385.189 130.217 385.189 124.5 443.5 c 0,31,32
 122 469 122 469 140.5 508 c 128,-1,33
 159 547 159 547 159.5 574.5 c 0,34,35
 160.475 628.138 160.475 628.138 123 638 c 1,36,37
 79.4582 646.063 79.4582 646.063 74 687 c 0,38,39
 72 705 72 705 80 725 c 1,40,41
 87.8664 754.893 87.8664 754.893 137 774 c 0,42,43
 158 782 158 782 183 786 c 1,44,45
 248.012 790.876 248.012 790.876 295 766 c 1,46,47
 363.937 726.089 363.937 726.089 349 629 c 0,48,49
 345 599 345 599 334 571.5 c 128,-1,50
 323 544 323 544 321.5 524.5 c 0,51,52
 317.769 475.997 317.769 475.997 358 469 c 1,53,54
 407.585 463.279 407.585 463.279 435.5 419 c 0,55,56
 450 396 450 396 451 354 c 1,0,-1
EndSplineSet
EndChar

StartChar: paragraph
Encoding: 182 182 55
Width: 702
Flags: HW
LayerCount: 2
Fore
SplineSet
540 192 m 0,0,1
 540 -118 540 -118 480 -118 c 256,2,3
 418.69 -118 418.69 -118 408 192 c 0,4,5
 403 328 403 328 408 503 c 1,6,-1
 384 503 l 1,7,8
 392.121 147.719 392.121 147.719 361 -21.5 c 0,9,10
 343.253 -118 343.253 -118 312 -118 c 0,11,12
 279.483 -118 279.483 -118 260.5 -51 c 0,13,14
 230.391 55.2664 230.391 55.2664 241 312 c 1,15,16
 120.688 312 120.688 312 74 395 c 0,17,18
 53 432 53 432 50 479 c 1,19,20
 50 561.647 50 561.647 106.5 611.5 c 0,21,22
 152 651.647 152 651.647 230.5 669.823 c 128,-1,23
 309 688 309 688 411 681 c 1,24,25
 523.73 676.099 523.73 676.099 574 637 c 1,26,27
 595 619 595 619 599 595.5 c 0,28,29
 606.078 553.918 606.078 553.918 568 524 c 0,30,31
 551 511 551 511 528 503 c 1,32,33
 540 328 540 328 540 192 c 0,0,1
EndSplineSet
EndChar

StartChar: asterisk
Encoding: 42 42 56
Width: 625
Flags: HW
LayerCount: 2
Fore
SplineSet
244 590 m 1,0,1
 235.766 635.286 235.766 635.286 252 671 c 0,2,3
 269.273 709 269.273 709 326 709 c 1,4,5
 390.333 705.101 390.333 705.101 410 652 c 0,6,7
 420 625 420 625 404 576 c 1,8,9
 458.245 591.3 458.245 591.3 501 576.5 c 0,10,11
 547 560.577 547 560.577 547 498 c 256,12,13
 547 436 547 436 508 416.5 c 0,14,15
 473.167 399.083 473.167 399.083 425 409 c 1,16,17
 465.294 356.618 465.294 356.618 454 310.5 c 0,18,19
 448 286 448 286 415 266 c 0,20,21
 357.954 233.402 357.954 233.402 313 281 c 0,22,23
 294 302 294 302 281 336 c 1,24,25
 250.428 282.499 250.428 282.499 197.5 281.5 c 0,26,27
 171 281 171 281 138 310 c 1,28,29
 104.217 349.745 104.217 349.745 118.5 394.5 c 0,30,31
 126 418 126 418 160 443 c 1,32,33
 60.2081 480.759 60.2081 480.759 69 544.5 c 0,34,35
 71 559 71 559 82 576 c 0,36,37
 118.441 633.974 118.441 633.974 185 618 c 0,38,39
 214 611 214 611 244 590 c 1,0,1
EndSplineSet
EndChar

StartChar: d
Encoding: 100 100 57
Width: 754
Flags: HW
LayerCount: 2
Fore
SplineSet
693 457 m 0,0,1
 693 329.176 693 329.176 663 218 c 1,2,3
 718.388 191.261 718.388 191.261 723 129 c 0,4,5
 727.336 70.4657 727.336 70.4657 689 30 c 0,6,7
 645.815 -14.8456 645.815 -14.8456 578 -0.5 c 0,8,9
 552 5 552 5 535 14 c 2,10,-1
 518 23 l 1,11,12
 440.568 -16.7085 440.568 -16.7085 336.5 -21 c 0,13,14
 230.786 -25.3593 230.786 -25.3593 160 12 c 1,15,16
 114.881 38.3192 114.881 38.3192 78.5 86.5 c 0,17,18
 47.2036 127.947 47.2036 127.947 41.5 213.5 c 0,19,20
 36.0705 294.942 36.0705 294.942 67 365.5 c 0,21,22
 83 402 83 402 121 437.5 c 128,-1,23
 159 473 159 473 209.5 487 c 0,24,25
 305.922 513.731 305.922 513.731 401 486 c 1,26,27
 377.99 642.884 377.99 642.884 431.5 713 c 0,28,29
 463.553 755 463.553 755 523 755 c 0,30,31
 597.182 755 597.182 755 641.5 696.5 c 0,32,33
 678.093 648.198 678.093 648.198 685.546 582.099 c 128,-1,34
 693 516 693 516 693 457 c 0,0,1
425 265 m 128,-1,36
 415 278 415 278 397 278 c 128,-1,37
 379 278 379 278 366.5 265 c 128,-1,38
 354 252 354 252 356 233.5 c 0,39,40
 359.73 199 359.73 199 396 199 c 256,41,42
 413 199 413 199 424 209 c 128,-1,43
 435 219 435 219 435 235.5 c 128,-1,35
 435 252 435 252 425 265 c 128,-1,36
EndSplineSet
EndChar

StartChar: Y
Encoding: 89 89 58
Width: 792
Flags: HW
LayerCount: 2
Fore
SplineSet
415 547 m 1,0,1
 436 623 436 623 468.5 660.5 c 0,2,3
 531.985 733.752 531.985 733.752 610 724 c 0,4,5
 695.59 713.301 695.59 713.301 725.5 657 c 0,6,7
 734 641 734 641 741.5 614 c 128,-1,8
 749 587 749 587 741 541 c 1,9,10
 718.956 447.737 718.956 447.737 637 379 c 0,11,12
 601 348 601 348 559 327 c 1,13,14
 590.997 226.21 590.997 226.21 566 129 c 0,15,16
 555 88 555 88 535 56 c 1,17,18
 492.594 -3 492.594 -3 415 -3 c 0,19,20
 359.333 -3 359.333 -3 321 20 c 1,21,22
 267.966 49.4633 267.966 49.4633 248 126 c 0,23,24
 238 164.333 238 164.333 238 215.667 c 128,-1,25
 238 267 238 267 249 320 c 1,26,27
 145.348 364.713 145.348 364.713 88 445 c 0,28,29
 55.5 490.5 55.5 490.5 49.25 533.25 c 128,-1,30
 43 576 43 576 47 601.5 c 128,-1,31
 51 627 51 627 60 646.5 c 0,32,33
 93.2239 718.485 93.2239 718.485 185 731 c 1,34,35
 298.477 737.877 298.477 737.877 367 643 c 1,36,37
 398 602 398 602 415 547 c 1,0,1
EndSplineSet
EndChar

StartChar: a
Encoding: 97 97 59
Width: 704
Flags: HW
LayerCount: 2
Fore
SplineSet
419 435 m 1,0,1
 433.922 479.765 433.922 479.765 476.5 506.5 c 0,2,3
 498 520 498 520 529.5 520 c 128,-1,4
 561 520 561 520 582 509 c 128,-1,5
 603 498 603 498 619 480 c 0,6,7
 678.84 412.68 678.84 412.68 683 265 c 1,8,9
 693.043 74.1801 693.043 74.1801 617 9 c 0,10,11
 584 -20 584 -20 540 -18 c 1,12,13
 487.46 -19.9459 487.46 -19.9459 450 18.5 c 0,14,15
 431 38 431 38 426 76 c 1,16,17
 407.252 19.757 407.252 19.757 328 -6 c 0,18,19
 288 -19 288 -19 228 -12 c 0,20,21
 72.6362 6.12578 72.6362 6.12578 38 149 c 0,22,23
 30 182 30 182 30 225 c 1,24,25
 27.0816 334.439 27.0816 334.439 73 412.5 c 0,26,27
 125.91 502.446 125.91 502.446 242 513 c 0,28,29
 333.309 521.153 333.309 521.153 386 479 c 0,30,31
 409 461 409 461 419 435 c 1,0,1
404 265 m 128,-1,33
 394 278 394 278 376 278 c 128,-1,34
 358 278 358 278 345.5 265 c 128,-1,35
 333 252 333 252 335 233.5 c 0,36,37
 338.73 199 338.73 199 375 199 c 256,38,39
 392 199 392 199 403 209 c 128,-1,40
 414 219 414 219 414 235.5 c 128,-1,32
 414 252 414 252 404 265 c 128,-1,33
EndSplineSet
EndChar

StartChar: b
Encoding: 98 98 60
Width: 680
Flags: HW
LayerCount: 2
Fore
SplineSet
204 764.5 m 0,0,1
 233 762 233 762 255 748.5 c 128,-1,2
 277 735 277 735 291 714.5 c 0,3,4
 341.444 640.635 341.444 640.635 312 485 c 1,5,6
 358 504 358 504 392 504.5 c 128,-1,7
 426 505 426 505 449 502 c 128,-1,8
 472 499 472 499 495.5 489.5 c 0,9,10
 546.958 468.698 546.958 468.698 589 423 c 1,11,12
 631.318 374.636 631.318 374.636 638 290 c 0,13,14
 644.608 206.302 644.608 206.302 616 145 c 0,15,16
 587.155 82.2194 587.155 82.2194 538 46 c 0,17,18
 516 29 516 29 494 20 c 0,19,20
 384.197 -30.0854 384.197 -30.0854 264.5 -1 c 0,21,22
 107.78 37.0815 107.78 37.0815 59 166 c 0,23,24
 24 258.5 24 258.5 24 410 c 1,25,26
 25 503 25 503 41 604 c 0,27,28
 57.5765 703.459 57.5765 703.459 118 745 c 0,29,30
 152.786 768.915 152.786 768.915 204 764.5 c 0,0,1
366 276 m 128,-1,32
 356 289 356 289 338 289 c 128,-1,33
 320 289 320 289 307.5 276 c 128,-1,34
 295 263 295 263 297 244.5 c 0,35,36
 300.73 210 300.73 210 337 210 c 256,37,38
 354 210 354 210 365 220 c 128,-1,39
 376 230 376 230 376 246.5 c 128,-1,31
 376 263 376 263 366 276 c 128,-1,32
EndSplineSet
EndChar

StartChar: c
Encoding: 99 99 61
Width: 570
Flags: HW
LayerCount: 2
Fore
SplineSet
384 285 m 1,0,1
 346.069 296.379 346.069 296.379 324.5 282 c 0,2,3
 314 275 314 275 314.5 258.5 c 128,-1,4
 315 242 315 242 322.5 234.5 c 0,5,6
 341.658 215.342 341.658 215.342 385 233 c 0,7,8
 414 244 414 244 440 243.5 c 0,9,10
 505.39 242.242 505.39 242.242 542 184 c 1,11,12
 554 158 554 158 554 133.5 c 0,13,14
 554 70.0526 554 70.0526 492 26 c 1,15,16
 414.5 -26.3125 414.5 -26.3125 299 -21.5 c 0,17,18
 239 -19 239 -19 166 14 c 1,19,20
 97.1781 48.411 97.1781 48.411 58 139.5 c 0,21,22
 38 186 38 186 38.5 249.5 c 0,23,24
 39.475 373.328 39.475 373.328 111 450.5 c 0,25,26
 151.373 494.06 151.373 494.06 209.186 511.53 c 128,-1,27
 267 529 267 529 314 530 c 0,28,29
 431.744 532.505 431.744 532.505 506 465 c 1,30,31
 531.683 439.317 531.683 439.317 536.5 395 c 0,32,33
 539 372 539 372 528 343 c 1,34,35
 508.819 300.802 508.819 300.802 454.5 285 c 0,36,37
 427 277 427 277 384 285 c 1,0,1
EndSplineSet
EndChar

StartChar: glyph62
Encoding: 65539 -1 62
Width: 675
Flags: HW
LayerCount: 2
Fore
SplineSet
319 365 m 1,0,-1
 348 365 l 1,1,2
 369.863 496.178 369.863 496.178 456.5 529.5 c 0,3,4
 476 537 476 537 505.5 536 c 128,-1,5
 535 535 535 535 563 519.5 c 0,6,7
 632.362 481.103 632.362 481.103 644 388 c 1,8,9
 657.951 262.444 657.951 262.444 639 126 c 1,10,11
 631.309 54.8556 631.309 54.8556 578.5 15 c 0,12,13
 552 -5 552 -5 515 -5 c 128,-1,14
 478 -5 478 -5 457.5 2 c 128,-1,15
 437 9 437 9 421 21 c 0,16,17
 394.6 40.8 394.6 40.8 375.8 79.4 c 128,-1,18
 357 118 357 118 351 166 c 1,19,-1
 323 166 l 1,20,21
 310.625 67 310.625 67 252.5 22 c 0,22,23
 218.917 -4 218.917 -4 175.958 -4 c 128,-1,24
 133 -4 133 -4 106 10 c 0,25,26
 37.2455 45.6505 37.2455 45.6505 29 138 c 1,27,28
 16.7708 296.979 16.7708 296.979 35 410 c 0,29,30
 46.5727 477.507 46.5727 477.507 99.5 516 c 0,31,32
 127 536 127 536 164.5 536 c 128,-1,33
 202 536 202 536 223 528.5 c 128,-1,34
 244 521 244 521 259.5 509 c 0,35,36
 286.247 488.293 286.247 488.293 302.123 450.146 c 128,-1,37
 318 412 318 412 319 365 c 1,0,-1
EndSplineSet
EndChar

StartChar: endash
Encoding: 8211 8211 65
Width: 579
Flags: HW
LayerCount: 2
Fore
SplineSet
407 409 m 1,0,1
 466.13 393.348 466.13 393.348 487 349 c 1,2,3
 507.312 308.375 507.312 308.375 494 264 c 0,4,5
 489 247 489 247 473.5 229 c 128,-1,6
 458 211 458 211 426 200 c 0,7,8
 353 176 353 176 288.5 174 c 128,-1,9
 224 172 224 172 171 180 c 128,-1,10
 118 188 118 188 98.5 205 c 128,-1,11
 79 222 79 222 69.5 241.5 c 128,-1,12
 60 261 60 261 59 286.5 c 128,-1,13
 58 312 58 312 66.5 333.5 c 128,-1,14
 75 355 75 355 93.5 374 c 128,-1,15
 112 393 112 393 157.5 403 c 0,16,17
 280.63 430.062 280.63 430.062 407 409 c 1,0,1
EndSplineSet
EndChar

StartChar: emdash
Encoding: 8212 8212 66
Width: 833
Flags: HW
LayerCount: 2
Fore
SplineSet
531 409 m 1,0,1
 590.268 395.054 590.268 395.054 611 351 c 1,2,3
 631.556 309.889 631.556 309.889 616 261 c 0,4,5
 600.668 212.448 600.668 212.448 547 194 c 0,6,7
 477.51 170.837 477.51 170.837 358.5 167.5 c 0,8,9
 246.238 164.352 246.238 164.352 153 183 c 0,10,11
 97.3421 194.132 97.3421 194.132 72 242 c 0,12,13
 47.8152 285.972 47.8152 285.972 67 335 c 0,14,15
 87.3333 385.833 87.3333 385.833 151.167 401.417 c 0,16,17
 249.841 425.506 249.841 425.506 404 420 c 0,18,19
 469 417 469 417 531 409 c 1,0,1
EndSplineSet
EndChar

StartChar: sterling
Encoding: 163 163 67
Width: 705
Flags: HW
LayerCount: 2
Fore
SplineSet
152 203 m 1,0,1
 147 213 147 213 147 233.5 c 128,-1,2
 147 254 147 254 149 265 c 1,3,4
 126 263 126 263 108.5 263.5 c 128,-1,5
 91 264 91 264 72.5 275.5 c 0,6,7
 25.7522 304.559 25.7522 304.559 43 377 c 1,8,9
 64.6444 437.123 64.6444 437.123 143 430 c 1,10,11
 144.742 506.632 144.742 506.632 158.871 547.316 c 128,-1,12
 173 588 173 588 186 612 c 128,-1,13
 199 636 199 636 220.5 655 c 128,-1,14
 242 674 242 674 266.5 685.5 c 0,15,16
 359.072 728.952 359.072 728.952 495 696 c 1,17,18
 571.032 669.072 571.032 669.072 614 586 c 0,19,20
 644.018 527.632 644.018 527.632 617 479 c 0,21,22
 606 458 606 458 586.5 444.5 c 128,-1,23
 567 431 567 431 548.5 427.5 c 128,-1,24
 530 424 530 424 514 426 c 0,25,26
 481.273 430.091 481.273 430.091 468 450 c 258,27,-1
 455.5 468 l 2,28,29
 430.868 502.105 430.868 502.105 399 493 c 256,30,31
 376.178 486.479 376.178 486.479 371 458 c 0,32,33
 368 445 368 445 370 430 c 1,34,35
 452.848 439.747 452.848 439.747 481 394 c 0,36,37
 502.08 360.624 502.08 360.624 489 324 c 1,38,39
 476.676 279.632 476.676 279.632 442 270 c 0,40,41
 424 265 424 265 405.5 265 c 128,-1,42
 387 265 387 265 365 270 c 1,43,44
 360.345 238.965 360.345 238.965 364.672 226.983 c 128,-1,45
 369 215 369 215 373 213 c 0,46,47
 450.591 176.052 450.591 176.052 503 206 c 0,48,49
 549.588 233.31 549.588 233.31 592 222 c 0,50,51
 610 217 610 217 621 206 c 0,52,53
 673.085 158.956 673.085 158.956 660 104 c 0,54,55
 655 79 655 79 637 57 c 1,56,57
 575.8 -11 575.8 -11 466 -11 c 0,58,59
 418 -11 418 -11 368 2 c 1,60,61
 290.192 31.641 290.192 31.641 201 -8 c 0,62,63
 154 -29 154 -29 124 -18.5 c 0,64,65
 66.8657 1.49702 66.8657 1.49702 47 75 c 1,66,67
 36.3846 133.385 36.3846 133.385 71.5 168.5 c 0,68,69
 99.8667 196.867 99.8667 196.867 152 203 c 1,0,1
EndSplineSet
EndChar

StartChar: mu
Encoding: 181 181 68
AltUni2: 0003bc.ffffffff.0
Width: 833
Flags: HW
LayerCount: 2
Fore
SplineSet
99 -72 m 1,0,1
 71.6989 161.3 71.6989 161.3 94.5 352 c 0,2,3
 100 398 100 398 115.5 425 c 0,4,5
 154.537 493 154.537 493 236 493 c 0,6,7
 319.857 493 319.857 493 341 419 c 0,8,9
 350 386 350 386 345 346 c 1,10,11
 345 315 345 315 344.5 288 c 128,-1,12
 344 261 344 261 347.5 241.5 c 0,13,14
 355.128 199 355.128 199 387 199 c 0,15,16
 406 199 406 199 413 222 c 0,17,18
 428.181 271.88 428.181 271.88 419 349 c 1,19,20
 410.925 444.287 410.925 444.287 467 479 c 1,21,22
 492 493 492 493 524 493 c 1,23,24
 608.505 479.479 608.505 479.479 636 375 c 1,25,26
 647 329 647 329 645.5 269.5 c 128,-1,27
 644 210 644 210 631.5 165 c 128,-1,28
 619 120 619 120 599.5 89.5 c 0,29,30
 565.396 36.1586 565.396 36.1586 505.198 12.5793 c 128,-1,31
 445 -11 445 -11 370 2 c 1,32,33
 370 -102.5 370 -102.5 342 -155 c 0,34,35
 307.333 -220 307.333 -220 222 -220 c 0,36,37
 154.357 -220 154.357 -220 120 -146 c 0,38,39
 105 -113 105 -113 99 -72 c 1,0,1
EndSplineSet
EndChar

StartChar: ampersand
Encoding: 38 38 69
Width: 798
Flags: HW
LayerCount: 2
Fore
SplineSet
175 467 m 1,0,1
 136.497 547.856 136.497 547.856 148 625.5 c 0,2,3
 154 666 154 666 186 698 c 128,-1,4
 218 730 218 730 255 744.5 c 128,-1,5
 292 759 292 759 329.5 759.5 c 0,6,7
 411.43 760.592 411.43 760.592 464 706 c 1,8,9
 517.767 646.472 517.767 646.472 508 561.5 c 0,10,11
 503 518 503 518 464 467 c 1,12,13
 531.25 399.75 531.25 399.75 568 321 c 1,14,15
 629.432 378.468 629.432 378.468 688.5 377.5 c 0,16,17
 719 377 719 377 745 345 c 1,18,19
 786.117 286.751 786.117 286.751 734 219 c 0,20,21
 710 187 710 187 672 158 c 1,22,23
 724.759 105.241 724.759 105.241 735.5 50 c 0,24,25
 747.843 -13.4777 747.843 -13.4777 688 -57 c 1,26,27
 622.439 -106.171 622.439 -106.171 548 -53 c 0,28,29
 515 -30 515 -30 488 8 c 1,30,31
 391.754 -58.9536 391.754 -58.9536 284.5 -53.5 c 0,32,33
 221.916 -50.3178 221.916 -50.3178 159 -16 c 1,34,35
 99.1509 18.796 99.1509 18.796 64 87.5 c 0,36,37
 24.7729 164.171 24.7729 164.171 46 265 c 1,38,39
 56.8768 324.823 56.8768 324.823 107 397 c 0,40,41
 132 433 132 433 175 467 c 1,0,1
308 258 m 1,42,43
 252.396 231.407 252.396 231.407 280 190 c 1,44,45
 307.862 152.006 307.862 152.006 349 200 c 1,46,-1
 308 258 l 1,42,43
EndSplineSet
EndChar

StartChar: question
Encoding: 63 63 70
Width: 646
Flags: HW
LayerCount: 2
Fore
SplineSet
472 143.5 m 128,-1,1
 509 112 509 112 509 60.5 c 128,-1,2
 509 9 509 9 472 -19.5 c 128,-1,3
 435 -48 435 -48 377 -48 c 256,4,5
 319 -48 319 -48 284.5 -15.5 c 128,-1,6
 250 17 250 17 250 67 c 128,-1,7
 250 117 250 117 284.5 146 c 128,-1,8
 319 175 319 175 377 175 c 256,9,0
 435 175 435 175 472 143.5 c 128,-1,1
569.5 399.5 m 0,10,11
 537.116 275.077 537.116 275.077 468 229 c 0,12,13
 433.308 206.698 433.308 206.698 405.654 205.349 c 0,14,15
 352.765 202.769 352.765 202.769 305 234 c 1,16,17
 274.381 252.011 274.381 252.011 268.5 292 c 0,18,19
 259.391 353.942 259.391 353.942 319 454 c 1,20,21
 254.998 393.877 254.998 393.877 186.5 392 c 0,22,23
 150 391 150 391 114 421 c 1,24,25
 41.9769 488.908 41.9769 488.908 64 577 c 0,26,27
 77.0482 629.193 77.0482 629.193 129 683 c 1,28,29
 195.204 738.906 195.204 738.906 284.5 749.5 c 0,30,31
 385.798 761.518 385.798 761.518 497 691 c 0,32,33
 565.668 647.63 565.668 647.63 580.5 557.5 c 0,34,35
 592.168 486.594 592.168 486.594 569.5 399.5 c 0,10,11
EndSplineSet
EndChar

StartChar: asciitilde
Encoding: 126 126 71
Width: 496
Flags: HW
LayerCount: 2
Fore
SplineSet
441.5 272.5 m 128,-1,1
 445 249 445 249 427.5 218 c 128,-1,2
 410 187 410 187 391 173 c 128,-1,3
 372 159 372 159 352 154 c 0,4,5
 317.277 145.319 317.277 145.319 272.138 162.16 c 128,-1,6
 227 179 227 179 180 218 c 1,7,8
 165.12 161.786 165.12 161.786 121 154 c 1,9,10
 82.7953 145.957 82.7953 145.957 56.5 171 c 0,11,12
 35.7386 190.773 35.7386 190.773 33.3693 212.886 c 128,-1,13
 31 235 31 235 36 248 c 0,14,15
 61.75 325.25 61.75 325.25 122.5 345.5 c 0,16,17
 190.488 368.163 190.488 368.163 296 287 c 0,18,19
 297 286 297 286 297 285 c 128,-1,20
 297 284 297 284 298 283 c 1,21,22
 308 312 308 312 331 328.5 c 128,-1,23
 354 345 354 345 382 335.5 c 128,-1,24
 410 326 410 326 424 311 c 128,-1,0
 438 296 438 296 441.5 272.5 c 128,-1,1
EndSplineSet
EndChar

StartChar: atilde
Encoding: 227 227 72
Width: 724
Flags: HW
LayerCount: 2
Fore
SplineSet
560.5 683.5 m 128,-1,1
 564 660 564 660 546.5 629 c 128,-1,2
 529 598 529 598 510 584 c 128,-1,3
 491 570 491 570 471 565 c 0,4,5
 436.277 556.319 436.277 556.319 391.138 573.16 c 128,-1,6
 346 590 346 590 299 629 c 1,7,8
 284.12 572.786 284.12 572.786 240 565 c 1,9,10
 201.795 556.957 201.795 556.957 175.5 582 c 0,11,12
 154.739 601.773 154.739 601.773 152.369 623.886 c 128,-1,13
 150 646 150 646 155 659 c 0,14,15
 180.75 736.25 180.75 736.25 241.5 756.5 c 0,16,17
 309.488 779.163 309.488 779.163 415 698 c 0,18,19
 416 697 416 697 416 696 c 128,-1,20
 416 695 416 695 417 694 c 1,21,22
 427 723 427 723 450 739.5 c 128,-1,23
 473 756 473 756 501 746.5 c 128,-1,24
 529 737 529 737 543 722 c 128,-1,0
 557 707 557 707 560.5 683.5 c 128,-1,1
419 435 m 1,25,26
 433.922 479.765 433.922 479.765 476.5 506.5 c 0,27,28
 498 520 498 520 529.5 520 c 128,-1,29
 561 520 561 520 582 509 c 128,-1,30
 603 498 603 498 619 480 c 0,31,32
 678.84 412.68 678.84 412.68 683 265 c 1,33,34
 693.043 74.1801 693.043 74.1801 617 9 c 0,35,36
 584 -20 584 -20 540 -18 c 1,37,38
 487.46 -19.9459 487.46 -19.9459 450 18.5 c 0,39,40
 431 38 431 38 426 76 c 1,41,42
 407.252 19.757 407.252 19.757 328 -6 c 0,43,44
 288 -19 288 -19 228 -12 c 0,45,46
 72.6362 6.12578 72.6362 6.12578 38 149 c 0,47,48
 30 182 30 182 30 225 c 1,49,50
 27.0816 334.439 27.0816 334.439 73 412.5 c 0,51,52
 125.91 502.446 125.91 502.446 242 513 c 0,53,54
 333.309 521.153 333.309 521.153 386 479 c 0,55,56
 409 461 409 461 419 435 c 1,25,26
404 265 m 128,-1,58
 394 278 394 278 376 278 c 128,-1,59
 358 278 358 278 345.5 265 c 128,-1,60
 333 252 333 252 335 233.5 c 0,61,62
 338.73 199 338.73 199 375 199 c 256,63,64
 392 199 392 199 403 209 c 128,-1,65
 414 219 414 219 414 235.5 c 128,-1,57
 414 252 414 252 404 265 c 128,-1,58
EndSplineSet
EndChar

StartChar: otilde
Encoding: 245 245 73
Width: 597
Flags: HW
LayerCount: 2
Fore
SplineSet
516.5 683.5 m 128,-1,1
 520 660 520 660 502.5 629 c 128,-1,2
 485 598 485 598 466 584 c 128,-1,3
 447 570 447 570 427 565 c 0,4,5
 392.277 556.319 392.277 556.319 347.138 573.16 c 128,-1,6
 302 590 302 590 255 629 c 1,7,8
 240.12 572.786 240.12 572.786 196 565 c 1,9,10
 157.795 556.957 157.795 556.957 131.5 582 c 0,11,12
 110.739 601.773 110.739 601.773 108.369 623.886 c 128,-1,13
 106 646 106 646 111 659 c 0,14,15
 136.75 736.25 136.75 736.25 197.5 756.5 c 0,16,17
 265.488 779.163 265.488 779.163 371 698 c 0,18,19
 372 697 372 697 372 696 c 128,-1,20
 372 695 372 695 373 694 c 1,21,22
 383 723 383 723 406 739.5 c 128,-1,23
 429 756 429 756 457 746.5 c 128,-1,24
 485 737 485 737 499 722 c 128,-1,0
 513 707 513 707 516.5 683.5 c 128,-1,1
472 30 m 1,25,26
 582 107 582 107 582 263 c 1,27,28
 576.164 366.584 576.164 366.584 519.5 435.5 c 0,29,30
 479.618 484.006 479.618 484.006 409 505 c 0,31,32
 372 516 372 516 324 516 c 1,33,34
 205.757 520.326 205.757 520.326 124.5 459 c 0,35,36
 32 389.189 32 389.189 32 235 c 1,37,38
 35 163 35 163 68 108 c 1,39,40
 114.628 21.9179 114.628 21.9179 227.5 -8 c 0,41,42
 269 -19 269 -19 303 -19 c 128,-1,43
 337 -19 337 -19 352.5 -16.5 c 0,44,45
 424.883 -4.82524 424.883 -4.82524 472 30 c 1,25,26
288.5 261 m 128,-1,47
 301 274 301 274 319 274 c 128,-1,48
 337 274 337 274 347 261 c 128,-1,49
 357 248 357 248 357 231.5 c 128,-1,50
 357 215 357 215 346 205 c 128,-1,51
 335 195 335 195 318 195 c 256,52,53
 281.524 195 281.524 195 278 232 c 0,54,46
 276 248 276 248 288.5 261 c 128,-1,47
EndSplineSet
EndChar

StartChar: Otilde
Encoding: 213 213 74
Width: 771
Flags: HW
LayerCount: 2
Fore
SplineSet
576.5 865.5 m 128,-1,1
 580 842 580 842 562.5 811 c 128,-1,2
 545 780 545 780 526 766 c 128,-1,3
 507 752 507 752 487 747 c 0,4,5
 452.277 738.319 452.277 738.319 407.138 755.16 c 128,-1,6
 362 772 362 772 315 811 c 1,7,8
 300.12 754.786 300.12 754.786 256 747 c 1,9,10
 217.795 738.957 217.795 738.957 191.5 764 c 0,11,12
 170.739 783.773 170.739 783.773 168.369 805.886 c 128,-1,13
 166 828 166 828 171 841 c 0,14,15
 196.75 918.25 196.75 918.25 257.5 938.5 c 0,16,17
 325.488 961.163 325.488 961.163 431 880 c 0,18,19
 432 879 432 879 432 878 c 128,-1,20
 432 877 432 877 433 876 c 1,21,22
 443 905 443 905 466 921.5 c 128,-1,23
 489 938 489 938 517 928.5 c 128,-1,24
 545 919 545 919 559 904 c 128,-1,0
 573 889 573 889 576.5 865.5 c 128,-1,1
404 704 m 1,25,26
 256.236 709.852 256.236 709.852 158 628.5 c 0,27,28
 89.3073 571.614 89.3073 571.614 59.5 462 c 0,29,30
 44 405 44 405 44 327 c 1,31,32
 51.1953 190.29 51.1953 190.29 132 95.5 c 0,33,34
 186.57 31.4849 186.57 31.4849 285 3.5 c 0,35,36
 336 -11 336 -11 404 -11 c 1,37,38
 534.578 -2.29482 534.578 -2.29482 622.5 81 c 0,39,40
 683.346 138.644 683.346 138.644 710 240.5 c 0,41,42
 724 294 724 294 724 365 c 1,43,44
 716.671 502.784 716.671 502.784 646 596.5 c 0,45,46
 596.864 661.659 596.864 661.659 509.5 689.5 c 0,47,48
 464 704 464 704 404 704 c 1,25,26
359.5 370 m 128,-1,50
 372 383 372 383 390 383 c 128,-1,51
 408 383 408 383 418 370 c 128,-1,52
 428 357 428 357 428 340.5 c 128,-1,53
 428 324 428 324 417 314 c 128,-1,54
 406 304 406 304 389 304 c 256,55,56
 352.524 304 352.524 304 349 341 c 0,57,49
 347 357 347 357 359.5 370 c 128,-1,50
EndSplineSet
EndChar

StartChar: Atilde
Encoding: 195 195 75
Width: 746
Flags: HW
LayerCount: 2
Fore
SplineSet
566.5 873.5 m 128,-1,1
 570 850 570 850 552.5 819 c 128,-1,2
 535 788 535 788 516 774 c 128,-1,3
 497 760 497 760 477 755 c 0,4,5
 442.277 746.319 442.277 746.319 397.138 763.16 c 128,-1,6
 352 780 352 780 305 819 c 1,7,8
 290.12 762.786 290.12 762.786 246 755 c 1,9,10
 207.795 746.957 207.795 746.957 181.5 772 c 0,11,12
 160.739 791.773 160.739 791.773 158.369 813.886 c 128,-1,13
 156 836 156 836 161 849 c 0,14,15
 186.75 926.25 186.75 926.25 247.5 946.5 c 0,16,17
 315.488 969.163 315.488 969.163 421 888 c 0,18,19
 422 887 422 887 422 886 c 128,-1,20
 422 885 422 885 423 884 c 1,21,22
 433 913 433 913 456 929.5 c 128,-1,23
 479 946 479 946 507 936.5 c 128,-1,24
 535 927 535 927 549 912 c 128,-1,0
 563 897 563 897 566.5 873.5 c 128,-1,1
697.5 84.5 m 0,25,26
 666.688 6.28365 666.688 6.28365 572 -1 c 0,27,28
 516.194 -6.0733 516.194 -6.0733 478.597 15.9634 c 128,-1,29
 441 38 441 38 422.5 61.5 c 128,-1,30
 404 85 404 85 393 107.5 c 0,31,32
 379.218 135.69 379.218 135.69 373 173 c 1,33,34
 362.72 111.32 362.72 111.32 323.5 61.5 c 0,35,36
 305 38 305 38 277 21.5 c 0,37,38
 208.174 -19.0581 208.174 -19.0581 124 9 c 1,39,40
 55.7726 32.8796 55.7726 32.8796 40 117 c 1,41,42
 22.2309 201.403 22.2309 201.403 50 328.5 c 0,43,44
 74.1982 439.254 74.1982 439.254 125 526.5 c 0,45,46
 148 566 148 566 175.5 606 c 128,-1,47
 203 646 203 646 237.5 671 c 128,-1,48
 272 696 272 696 301.5 707.5 c 0,49,50
 338.696 722 338.696 722 373 722 c 256,51,52
 437.6 722 437.6 722 509 671 c 0,53,54
 544 646 544 646 571.5 606 c 128,-1,55
 599 566 599 566 621.5 526.5 c 128,-1,56
 644 487 644 487 663.5 437.5 c 0,57,58
 706.492 328.368 706.492 328.368 712 198 c 1,59,60
 716.546 132.846 716.546 132.846 697.5 84.5 c 0,25,26
406 356 m 128,-1,62
 396 369 396 369 378 369 c 128,-1,63
 360 369 360 369 347.5 356 c 128,-1,64
 335 343 335 343 337 324.5 c 0,65,66
 340.73 290 340.73 290 377 290 c 256,67,68
 394 290 394 290 405 300 c 128,-1,69
 416 310 416 310 416 326.5 c 128,-1,61
 416 343 416 343 406 356 c 128,-1,62
EndSplineSet
EndChar

StartChar: edieresis
Encoding: 235 235 76
Width: 584
Flags: HW
LayerCount: 2
Fore
SplineSet
290 628 m 256,0,1
 290 596 290 596 270.5 573 c 128,-1,2
 251 550 251 550 213 550 c 256,3,4
 175 550 175 550 155.5 573 c 128,-1,5
 136 596 136 596 136 628 c 256,6,7
 136 660 136 660 155.5 682.5 c 128,-1,8
 175 705 175 705 213 705 c 256,9,10
 251 705 251 705 270.5 682.5 c 128,-1,11
 290 660 290 660 290 628 c 256,0,1
473 628 m 256,12,13
 473 596 473 596 453.5 573 c 128,-1,14
 434 550 434 550 396 550 c 256,15,16
 358 550 358 550 338.5 573 c 128,-1,17
 319 596 319 596 319 628 c 256,18,19
 319 660 319 660 338.5 682.5 c 128,-1,20
 358 705 358 705 396 705 c 256,21,22
 434 705 434 705 453.5 682.5 c 128,-1,23
 473 660 473 660 473 628 c 256,12,13
365 207 m 1,24,25
 441.738 191.652 441.738 191.652 499.5 218 c 0,26,27
 563 246.965 563 246.965 563 320 c 1,28,29
 560.529 406.47 560.529 406.47 507 460 c 1,30,31
 440.653 518.054 440.653 518.054 354.5 526.5 c 0,32,33
 275.3 534.265 275.3 534.265 203 513 c 1,34,35
 100.97 476.796 100.97 476.796 58 364 c 1,36,37
 14.565 245.76 14.565 245.76 55.5 144.5 c 0,38,39
 91.1652 56.2757 91.1652 56.2757 174 19 c 1,40,41
 277.301 -23.3363 277.301 -23.3363 391 -13 c 0,42,43
 442 -9 442 -9 486 5 c 1,44,45
 536.281 24.4637 536.281 24.4637 552 69 c 0,46,47
 558 88 558 88 557 108 c 1,48,49
 552 143 552 143 532.5 154 c 128,-1,50
 513 165 513 165 485.5 169 c 128,-1,51
 458 173 458 173 426 178.5 c 128,-1,52
 394 184 394 184 365 207 c 1,24,25
309.5 321 m 128,-1,54
 322 334 322 334 340 334 c 128,-1,55
 358 334 358 334 368 321 c 128,-1,56
 378 308 378 308 378 291.5 c 128,-1,57
 378 275 378 275 367 265 c 128,-1,58
 356 255 356 255 339 255 c 256,59,60
 302.524 255 302.524 255 299 292 c 0,61,53
 297 308 297 308 309.5 321 c 128,-1,54
EndSplineSet
EndChar

StartChar: adieresis
Encoding: 228 228 77
Width: 704
Flags: HW
LayerCount: 2
Fore
SplineSet
344 628 m 256,0,1
 344 596 344 596 324.5 573 c 128,-1,2
 305 550 305 550 267 550 c 256,3,4
 229 550 229 550 209.5 573 c 128,-1,5
 190 596 190 596 190 628 c 256,6,7
 190 660 190 660 209.5 682.5 c 128,-1,8
 229 705 229 705 267 705 c 256,9,10
 305 705 305 705 324.5 682.5 c 128,-1,11
 344 660 344 660 344 628 c 256,0,1
527 628 m 256,12,13
 527 596 527 596 507.5 573 c 128,-1,14
 488 550 488 550 450 550 c 256,15,16
 412 550 412 550 392.5 573 c 128,-1,17
 373 596 373 596 373 628 c 256,18,19
 373 660 373 660 392.5 682.5 c 128,-1,20
 412 705 412 705 450 705 c 256,21,22
 488 705 488 705 507.5 682.5 c 128,-1,23
 527 660 527 660 527 628 c 256,12,13
419 435 m 1,24,25
 433.922 479.765 433.922 479.765 476.5 506.5 c 0,26,27
 498 520 498 520 529.5 520 c 128,-1,28
 561 520 561 520 582 509 c 128,-1,29
 603 498 603 498 619 480 c 0,30,31
 678.84 412.68 678.84 412.68 683 265 c 1,32,33
 693.043 74.1801 693.043 74.1801 617 9 c 0,34,35
 584 -20 584 -20 540 -18 c 1,36,37
 487.46 -19.9459 487.46 -19.9459 450 18.5 c 0,38,39
 431 38 431 38 426 76 c 1,40,41
 407.252 19.757 407.252 19.757 328 -6 c 0,42,43
 288 -19 288 -19 228 -12 c 0,44,45
 72.6362 6.12578 72.6362 6.12578 38 149 c 0,46,47
 30 182 30 182 30 225 c 1,48,49
 27.0816 334.439 27.0816 334.439 73 412.5 c 0,50,51
 125.91 502.446 125.91 502.446 242 513 c 0,52,53
 333.309 521.153 333.309 521.153 386 479 c 0,54,55
 409 461 409 461 419 435 c 1,24,25
404 265 m 128,-1,57
 394 278 394 278 376 278 c 128,-1,58
 358 278 358 278 345.5 265 c 128,-1,59
 333 252 333 252 335 233.5 c 0,60,61
 338.73 199 338.73 199 375 199 c 256,62,63
 392 199 392 199 403 209 c 128,-1,64
 414 219 414 219 414 235.5 c 128,-1,56
 414 252 414 252 404 265 c 128,-1,57
EndSplineSet
EndChar

StartChar: Edieresis
Encoding: 203 203 78
Width: 668
Flags: HW
LayerCount: 2
Fore
SplineSet
307 822 m 256,0,1
 307 790 307 790 287.5 767 c 128,-1,2
 268 744 268 744 230 744 c 256,3,4
 192 744 192 744 172.5 767 c 128,-1,5
 153 790 153 790 153 822 c 256,6,7
 153 854 153 854 172.5 876.5 c 128,-1,8
 192 899 192 899 230 899 c 256,9,10
 268 899 268 899 287.5 876.5 c 128,-1,11
 307 854 307 854 307 822 c 256,0,1
490 822 m 256,12,13
 490 790 490 790 470.5 767 c 128,-1,14
 451 744 451 744 413 744 c 256,15,16
 375 744 375 744 355.5 767 c 128,-1,17
 336 790 336 790 336 822 c 256,18,19
 336 854 336 854 355.5 876.5 c 128,-1,20
 375 899 375 899 413 899 c 256,21,22
 451 899 451 899 470.5 876.5 c 128,-1,23
 490 854 490 854 490 822 c 256,12,13
440.5 703 m 0,24,25
 156.867 744.007 156.867 744.007 74.5 608.5 c 0,26,27
 59 583 59 583 53 549 c 1,28,29
 33.6095 415.206 33.6095 415.206 35.8048 309.103 c 128,-1,30
 38 203 38 203 51 137 c 1,31,32
 75.4737 22.7895 75.4737 22.7895 263 -4 c 0,33,34
 305 -10 305 -10 369 -8.5 c 128,-1,35
 433 -7 433 -7 473.5 2.5 c 128,-1,36
 514 12 514 12 538 20.5 c 128,-1,37
 562 29 562 29 580.5 42 c 0,38,39
 621.395 70.7368 621.395 70.7368 625 114 c 1,40,41
 625 166.647 625 166.647 572 202.5 c 0,42,43
 511.181 243.642 511.181 243.642 387 241 c 1,44,45
 443.781 254.249 443.781 254.249 478 293.5 c 0,46,47
 495 313 495 313 495 345 c 1,48,49
 498.787 390.439 498.787 390.439 444 423.5 c 0,50,51
 415 441 415 441 358 451 c 1,52,53
 564.663 439.978 564.663 439.978 612 532.5 c 0,54,55
 623 554 623 554 623.5 585.5 c 0,56,57
 624.259 633.308 624.259 633.308 563 667 c 0,58,59
 517.889 691.811 517.889 691.811 440.5 703 c 0,24,25
EndSplineSet
EndChar

StartChar: Adieresis
Encoding: 196 196 79
Width: 746
Flags: HW
LayerCount: 2
Fore
SplineSet
355 823 m 256,0,1
 355 791 355 791 335.5 768 c 128,-1,2
 316 745 316 745 278 745 c 256,3,4
 240 745 240 745 220.5 768 c 128,-1,5
 201 791 201 791 201 823 c 256,6,7
 201 855 201 855 220.5 877.5 c 128,-1,8
 240 900 240 900 278 900 c 256,9,10
 316 900 316 900 335.5 877.5 c 128,-1,11
 355 855 355 855 355 823 c 256,0,1
538 823 m 256,12,13
 538 791 538 791 518.5 768 c 128,-1,14
 499 745 499 745 461 745 c 256,15,16
 423 745 423 745 403.5 768 c 128,-1,17
 384 791 384 791 384 823 c 256,18,19
 384 855 384 855 403.5 877.5 c 128,-1,20
 423 900 423 900 461 900 c 256,21,22
 499 900 499 900 518.5 877.5 c 128,-1,23
 538 855 538 855 538 823 c 256,12,13
697.5 84.5 m 0,24,25
 666.688 6.28365 666.688 6.28365 572 -1 c 0,26,27
 516.194 -6.0733 516.194 -6.0733 478.597 15.9634 c 128,-1,28
 441 38 441 38 422.5 61.5 c 128,-1,29
 404 85 404 85 393 107.5 c 0,30,31
 379.218 135.69 379.218 135.69 373 173 c 1,32,33
 362.72 111.32 362.72 111.32 323.5 61.5 c 0,34,35
 305 38 305 38 277 21.5 c 0,36,37
 208.174 -19.0581 208.174 -19.0581 124 9 c 1,38,39
 55.7726 32.8796 55.7726 32.8796 40 117 c 1,40,41
 22.2309 201.403 22.2309 201.403 50 328.5 c 0,42,43
 74.1982 439.254 74.1982 439.254 125 526.5 c 0,44,45
 148 566 148 566 175.5 606 c 128,-1,46
 203 646 203 646 237.5 671 c 128,-1,47
 272 696 272 696 301.5 707.5 c 0,48,49
 338.696 722 338.696 722 373 722 c 256,50,51
 437.6 722 437.6 722 509 671 c 0,52,53
 544 646 544 646 571.5 606 c 128,-1,54
 599 566 599 566 621.5 526.5 c 128,-1,55
 644 487 644 487 663.5 437.5 c 0,56,57
 706.492 328.368 706.492 328.368 712 198 c 1,58,59
 716.546 132.846 716.546 132.846 697.5 84.5 c 0,24,25
406 356 m 128,-1,61
 396 369 396 369 378 369 c 128,-1,62
 360 369 360 369 347.5 356 c 128,-1,63
 335 343 335 343 337 324.5 c 0,64,65
 340.73 290 340.73 290 377 290 c 256,66,67
 394 290 394 290 405 300 c 128,-1,68
 416 310 416 310 416 326.5 c 128,-1,60
 416 343 416 343 406 356 c 128,-1,61
EndSplineSet
EndChar

StartChar: Idieresis
Encoding: 207 207 80
Width: 420
Flags: HW
LayerCount: 2
Fore
SplineSet
190 803 m 256,0,1
 190 771 190 771 170.5 748 c 128,-1,2
 151 725 151 725 113 725 c 256,3,4
 75 725 75 725 55.5 748 c 128,-1,5
 36 771 36 771 36 803 c 256,6,7
 36 835 36 835 55.5 857.5 c 128,-1,8
 75 880 75 880 113 880 c 256,9,10
 151 880 151 880 170.5 857.5 c 128,-1,11
 190 835 190 835 190 803 c 256,0,1
373 803 m 256,12,13
 373 771 373 771 353.5 748 c 128,-1,14
 334 725 334 725 296 725 c 256,15,16
 258 725 258 725 238.5 748 c 128,-1,17
 219 771 219 771 219 803 c 256,18,19
 219 835 219 835 238.5 857.5 c 128,-1,20
 258 880 258 880 296 880 c 256,21,22
 334 880 334 880 353.5 857.5 c 128,-1,23
 373 835 373 835 373 803 c 256,12,13
35 482 m 1,24,25
 24.786 311.766 24.786 311.766 39 194.5 c 0,26,27
 48.4056 116.903 48.4056 116.903 86.5 59 c 0,28,29
 112.658 19.2394 112.658 19.2394 160 0.5 c 0,30,31
 184 -9 184 -9 213.5 -9 c 128,-1,32
 243 -9 243 -9 265 -2 c 128,-1,33
 287 5 287 5 304 17.5 c 0,34,35
 332.191 38.2288 332.191 38.2288 354 77 c 1,36,37
 373 115 373 115 379 163.5 c 128,-1,38
 385 212 385 212 387.5 263.5 c 0,39,40
 393.663 390.451 393.663 390.451 380 510 c 1,41,42
 362.941 632.824 362.941 632.824 288 681 c 0,43,44
 255 702 255 702 215 705 c 1,45,46
 108 705 108 705 60 593 c 0,47,48
 40 544 40 544 35 482 c 1,24,25
EndSplineSet
EndChar

StartChar: Odieresis
Encoding: 214 214 81
Width: 771
Flags: HW
LayerCount: 2
Fore
SplineSet
365 820 m 256,0,1
 365 788 365 788 345.5 765 c 128,-1,2
 326 742 326 742 288 742 c 256,3,4
 250 742 250 742 230.5 765 c 128,-1,5
 211 788 211 788 211 820 c 256,6,7
 211 852 211 852 230.5 874.5 c 128,-1,8
 250 897 250 897 288 897 c 256,9,10
 326 897 326 897 345.5 874.5 c 128,-1,11
 365 852 365 852 365 820 c 256,0,1
548 820 m 256,12,13
 548 788 548 788 528.5 765 c 128,-1,14
 509 742 509 742 471 742 c 256,15,16
 433 742 433 742 413.5 765 c 128,-1,17
 394 788 394 788 394 820 c 256,18,19
 394 852 394 852 413.5 874.5 c 128,-1,20
 433 897 433 897 471 897 c 256,21,22
 509 897 509 897 528.5 874.5 c 128,-1,23
 548 852 548 852 548 820 c 256,12,13
404 704 m 1,24,25
 256.236 709.852 256.236 709.852 158 628.5 c 0,26,27
 89.3073 571.614 89.3073 571.614 59.5 462 c 0,28,29
 44 405 44 405 44 327 c 1,30,31
 51.1953 190.29 51.1953 190.29 132 95.5 c 0,32,33
 186.57 31.4849 186.57 31.4849 285 3.5 c 0,34,35
 336 -11 336 -11 404 -11 c 1,36,37
 534.578 -2.29482 534.578 -2.29482 622.5 81 c 0,38,39
 683.346 138.644 683.346 138.644 710 240.5 c 0,40,41
 724 294 724 294 724 365 c 1,42,43
 716.671 502.784 716.671 502.784 646 596.5 c 0,44,45
 596.864 661.659 596.864 661.659 509.5 689.5 c 0,46,47
 464 704 464 704 404 704 c 1,24,25
359.5 370 m 128,-1,49
 372 383 372 383 390 383 c 128,-1,50
 408 383 408 383 418 370 c 128,-1,51
 428 357 428 357 428 340.5 c 128,-1,52
 428 324 428 324 417 314 c 128,-1,53
 406 304 406 304 389 304 c 256,54,55
 352.524 304 352.524 304 349 341 c 0,56,48
 347 357 347 357 359.5 370 c 128,-1,49
EndSplineSet
EndChar

StartChar: Udieresis
Encoding: 220 220 82
Width: 767
Flags: HW
LayerCount: 2
Fore
SplineSet
354 820 m 256,0,1
 354 788 354 788 334.5 765 c 128,-1,2
 315 742 315 742 277 742 c 256,3,4
 239 742 239 742 219.5 765 c 128,-1,5
 200 788 200 788 200 820 c 256,6,7
 200 852 200 852 219.5 874.5 c 128,-1,8
 239 897 239 897 277 897 c 256,9,10
 315 897 315 897 334.5 874.5 c 128,-1,11
 354 852 354 852 354 820 c 256,0,1
537 820 m 256,12,13
 537 788 537 788 517.5 765 c 128,-1,14
 498 742 498 742 460 742 c 256,15,16
 422 742 422 742 402.5 765 c 128,-1,17
 383 788 383 788 383 820 c 256,18,19
 383 852 383 852 402.5 874.5 c 128,-1,20
 422 897 422 897 460 897 c 256,21,22
 498 897 498 897 517.5 874.5 c 128,-1,23
 537 852 537 852 537 820 c 256,12,13
331 559 m 0,24,25
 331 653.558 331 653.558 264 693.5 c 0,26,27
 238 709 238 709 201 711 c 128,-1,28
 164 713 164 713 133.5 699 c 0,29,30
 56.976 663.874 56.976 663.874 37 559 c 1,31,32
 6.97908 354.312 6.97908 354.312 61 194.5 c 0,33,34
 73 159 73 159 94 123.5 c 0,35,36
 124.384 72.1368 124.384 72.1368 194 31 c 0,37,38
 271.846 -15 271.846 -15 380 -15 c 0,39,40
 512.154 -15 512.154 -15 593.5 52.5 c 0,41,42
 666.823 113.342 666.823 113.342 697 201 c 1,43,44
 727.428 316.627 727.428 316.627 726.5 447.5 c 0,45,46
 726 518 726 518 709 594 c 1,47,48
 699 626 699 626 679 652 c 1,49,50
 630.232 708.896 630.232 708.896 547 704 c 1,51,52
 464.25 704 464.25 704 428 646 c 0,53,54
 406.142 611.027 406.142 611.027 407.571 563.514 c 128,-1,55
 409 516 409 516 410 477.5 c 128,-1,56
 411 439 411 439 408 409.5 c 0,57,58
 401.441 345 401.441 345 370 345 c 256,59,60
 326.558 345 326.558 345 330 477.5 c 0,61,62
 331 516 331 516 331 559 c 0,24,25
EndSplineSet
EndChar

StartChar: odieresis
Encoding: 246 246 83
Width: 597
Flags: HW
LayerCount: 2
Fore
SplineSet
285 635 m 256,0,1
 285 603 285 603 265.5 580 c 128,-1,2
 246 557 246 557 208 557 c 256,3,4
 170 557 170 557 150.5 580 c 128,-1,5
 131 603 131 603 131 635 c 256,6,7
 131 667 131 667 150.5 689.5 c 128,-1,8
 170 712 170 712 208 712 c 256,9,10
 246 712 246 712 265.5 689.5 c 128,-1,11
 285 667 285 667 285 635 c 256,0,1
468 635 m 256,12,13
 468 603 468 603 448.5 580 c 128,-1,14
 429 557 429 557 391 557 c 256,15,16
 353 557 353 557 333.5 580 c 128,-1,17
 314 603 314 603 314 635 c 256,18,19
 314 667 314 667 333.5 689.5 c 128,-1,20
 353 712 353 712 391 712 c 256,21,22
 429 712 429 712 448.5 689.5 c 128,-1,23
 468 667 468 667 468 635 c 256,12,13
472 30 m 1,24,25
 582 107 582 107 582 263 c 1,26,27
 576.164 366.584 576.164 366.584 519.5 435.5 c 0,28,29
 479.618 484.006 479.618 484.006 409 505 c 0,30,31
 372 516 372 516 324 516 c 1,32,33
 205.757 520.326 205.757 520.326 124.5 459 c 0,34,35
 32 389.189 32 389.189 32 235 c 1,36,37
 35 163 35 163 68 108 c 1,38,39
 114.628 21.9179 114.628 21.9179 227.5 -8 c 0,40,41
 269 -19 269 -19 303 -19 c 128,-1,42
 337 -19 337 -19 352.5 -16.5 c 0,43,44
 424.883 -4.82524 424.883 -4.82524 472 30 c 1,24,25
288.5 261 m 128,-1,46
 301 274 301 274 319 274 c 128,-1,47
 337 274 337 274 347 261 c 128,-1,48
 357 248 357 248 357 231.5 c 128,-1,49
 357 215 357 215 346 205 c 128,-1,50
 335 195 335 195 318 195 c 256,51,52
 281.524 195 281.524 195 278 232 c 0,53,45
 276 248 276 248 288.5 261 c 128,-1,46
EndSplineSet
EndChar

StartChar: idieresis
Encoding: 239 239 84
Width: 436
Flags: HW
LayerCount: 2
Fore
SplineSet
199 628 m 256,0,1
 199 596 199 596 179.5 573 c 128,-1,2
 160 550 160 550 122 550 c 256,3,4
 84 550 84 550 64.5 573 c 128,-1,5
 45 596 45 596 45 628 c 256,6,7
 45 660 45 660 64.5 682.5 c 128,-1,8
 84 705 84 705 122 705 c 256,9,10
 160 705 160 705 179.5 682.5 c 128,-1,11
 199 660 199 660 199 628 c 256,0,1
382 628 m 256,12,13
 382 596 382 596 362.5 573 c 128,-1,14
 343 550 343 550 305 550 c 256,15,16
 267 550 267 550 247.5 573 c 128,-1,17
 228 596 228 596 228 628 c 256,18,19
 228 660 228 660 247.5 682.5 c 128,-1,20
 267 705 267 705 305 705 c 256,21,22
 343 705 343 705 362.5 682.5 c 128,-1,23
 382 660 382 660 382 628 c 256,12,13
352 106 m 0,24,25
 338.561 30.407 338.561 30.407 274 2 c 0,26,27
 245 -10 245 -10 206.5 -11.5 c 0,28,29
 141.05 -14.05 141.05 -14.05 96 31 c 0,30,31
 77 50 77 50 62 91 c 128,-1,32
 47 132 47 132 43.5 189.5 c 0,33,34
 37.0139 296.058 37.0139 296.058 63 404 c 1,35,36
 84.3399 479.51 84.3399 479.51 146 509 c 0,37,38
 173 521 173 521 212 522.5 c 128,-1,39
 251 524 251 524 279.5 506 c 0,40,41
 335.63 470.549 335.63 470.549 353 403 c 1,42,43
 380.16 274.96 380.16 274.96 352 106 c 0,24,25
EndSplineSet
EndChar

StartChar: ydieresis
Encoding: 255 255 85
Width: 728
Flags: HW
LayerCount: 2
Fore
SplineSet
335 628 m 256,0,1
 335 596 335 596 315.5 573 c 128,-1,2
 296 550 296 550 258 550 c 256,3,4
 220 550 220 550 200.5 573 c 128,-1,5
 181 596 181 596 181 628 c 256,6,7
 181 660 181 660 200.5 682.5 c 128,-1,8
 220 705 220 705 258 705 c 256,9,10
 296 705 296 705 315.5 682.5 c 128,-1,11
 335 660 335 660 335 628 c 256,0,1
518 628 m 256,12,13
 518 596 518 596 498.5 573 c 128,-1,14
 479 550 479 550 441 550 c 256,15,16
 403 550 403 550 383.5 573 c 128,-1,17
 364 596 364 596 364 628 c 256,18,19
 364 660 364 660 383.5 682.5 c 128,-1,20
 403 705 403 705 441 705 c 256,21,22
 479 705 479 705 498.5 682.5 c 128,-1,23
 518 660 518 660 518 628 c 256,12,13
596 505 m 0,24,25
 511.445 542.964 511.445 542.964 437 471 c 0,26,27
 407 442 407 442 386 407 c 128,-1,28
 365 372 365 372 354 352 c 1,29,30
 326 392.5 l 2,31,32
 287.217 449.289 287.217 449.289 261.609 469.644 c 128,-1,33
 236 490 236 490 217.5 499 c 0,34,35
 151.097 531.304 151.097 531.304 83 493 c 1,36,37
 23.6233 446.531 23.6233 446.531 20 379.5 c 0,38,39
 16.9849 323.72 16.9849 323.72 51 269 c 1,40,41
 107.992 181.612 107.992 181.612 188 121 c 1,42,43
 197.5 111.5 197.5 111.5 207.25 103.25 c 128,-1,44
 217 95 217 95 223 89 c 1,45,-1
 206.5 54.5 l 1,46,47
 137.637 -93.0625 137.637 -93.0625 185 -172 c 0,48,49
 200 -197 200 -197 229.5 -211.5 c 128,-1,50
 259 -226 259 -226 282.5 -228 c 128,-1,51
 306 -230 306 -230 327.5 -224.5 c 0,52,53
 405.218 -204.619 405.218 -204.619 465 -100 c 1,54,55
 559.397 43.3436 559.397 43.3436 634 244 c 1,56,57
 662 322.4 662 322.4 662 379 c 0,58,59
 662 424 662 424 645 458 c 1,60,61
 627 491 627 491 596 505 c 0,24,25
EndSplineSet
EndChar

StartChar: dotlessi
Encoding: 305 305 86
Width: 389
Flags: HW
LayerCount: 2
Fore
SplineSet
347 106 m 0,0,1
 333.561 30.407 333.561 30.407 269 2 c 0,2,3
 240 -10 240 -10 201.5 -11.5 c 0,4,5
 136.05 -14.05 136.05 -14.05 91 31 c 0,6,7
 72 50 72 50 57 91 c 128,-1,8
 42 132 42 132 38.5 189.5 c 0,9,10
 32.0139 296.058 32.0139 296.058 58 404 c 1,11,12
 79.3399 479.51 79.3399 479.51 141 509 c 0,13,14
 168 521 168 521 207 522.5 c 128,-1,15
 246 524 246 524 274.5 506 c 0,16,17
 330.63 470.549 330.63 470.549 348 403 c 1,18,19
 375.16 274.96 375.16 274.96 347 106 c 0,0,1
EndSplineSet
EndChar

StartChar: colon
Encoding: 58 58 87
Width: 339
Flags: HW
LayerCount: 2
Fore
SplineSet
278 408 m 0,0,1
 278 360 278 360 249.5 328 c 128,-1,2
 221 296 221 296 165.5 296 c 128,-1,3
 110 296 110 296 81 328 c 128,-1,4
 52 360 52 360 52 407.5 c 128,-1,5
 52 455 52 455 81 488 c 128,-1,6
 110 521 110 521 164 521 c 0,7,8
 245.073 521 245.073 521 270.5 451.5 c 0,9,10
 278 431 278 431 278 408 c 0,0,1
249 174.5 m 128,-1,12
 278 141 278 141 278 93.5 c 128,-1,13
 278 46 278 46 249.5 14 c 128,-1,14
 221 -18 221 -18 165.5 -18 c 128,-1,15
 110 -18 110 -18 81 14 c 128,-1,16
 52 46 52 46 52 94 c 0,17,18
 52 142.966 52 142.966 81.5 174.5 c 0,19,20
 112.839 208 112.839 208 166.419 208 c 128,-1,11
 220 208 220 208 249 174.5 c 128,-1,12
EndSplineSet
EndChar

StartChar: semicolon
Encoding: 59 59 88
Width: 337
Flags: HW
LayerCount: 2
Fore
SplineSet
245 477 m 128,-1,1
 273 444 273 444 273 397.5 c 128,-1,2
 273 351 273 351 245 319.5 c 128,-1,3
 217 288 217 288 163 288 c 128,-1,4
 109 288 109 288 80.5 319.5 c 128,-1,5
 52 351 52 351 52 397.5 c 128,-1,6
 52 444 52 444 80.5 477 c 128,-1,7
 109 510 109 510 163 510 c 128,-1,0
 217 510 217 510 245 477 c 128,-1,1
269 98 m 0,8,9
 267 140 267 140 239.5 170.5 c 128,-1,10
 212 201 212 201 159 201 c 128,-1,11
 106 201 106 201 78 169.5 c 128,-1,12
 50 138 50 138 50 92.5 c 128,-1,13
 50 47 50 47 75.5 16.5 c 128,-1,14
 101 -14 101 -14 151 -18 c 1,15,16
 152 -27 152 -27 151 -36.5 c 128,-1,17
 150 -46 150 -46 138 -46 c 0,18,19
 121.333 -46 121.333 -46 117.667 -58.5 c 0,20,21
 111.732 -78.732 111.732 -78.732 118.366 -85.366 c 128,-1,22
 125 -92 125 -92 138 -94 c 0,23,24
 219.492 -104.186 219.492 -104.186 253 -26 c 0,25,26
 272.714 20 272.714 20 269 98 c 0,8,9
EndSplineSet
EndChar

StartChar: hyphen
Encoding: 45 45 89
Width: 526
Flags: HW
LayerCount: 2
Fore
SplineSet
395 404 m 1,0,1
 454.13 388.348 454.13 388.348 475 344 c 1,2,3
 495.455 303.091 495.455 303.091 482 256 c 0,4,5
 477 237 477 237 461.5 219 c 128,-1,6
 446 201 446 201 414 192 c 0,7,8
 340 172 340 172 276 172 c 128,-1,9
 212 172 212 172 159 180 c 128,-1,10
 106 188 106 188 86.5 205 c 128,-1,11
 67 222 67 222 57.5 241.5 c 128,-1,12
 48 261 48 261 47 286.5 c 128,-1,13
 46 312 46 312 54.5 333.5 c 128,-1,14
 63 355 63 355 81.5 374 c 128,-1,15
 100 393 100 393 145.5 403 c 0,16,17
 220.817 419.553 220.817 419.553 289.909 415.277 c 128,-1,18
 359 411 359 411 395 404 c 1,0,1
EndSplineSet
EndChar

StartChar: equal
Encoding: 61 61 90
Width: 536
Flags: HW
LayerCount: 2
Fore
SplineSet
398 550 m 1,0,1
 456.556 536.222 456.556 536.222 477 503 c 1,2,3
 497.269 472.596 497.269 472.596 484 435 c 0,4,5
 470.307 396.661 470.307 396.661 417 385 c 0,6,7
 343 369 343 369 279.5 369 c 128,-1,8
 216 369 216 369 163 376 c 128,-1,9
 110 383 110 383 91 395.5 c 0,10,11
 54.9388 419.224 54.9388 419.224 53 458 c 1,12,13
 47.3741 495.506 47.3741 495.506 86 526 c 0,14,15
 122.305 554.662 122.305 554.662 240 558.5 c 0,16,17
 318.394 561.056 318.394 561.056 398 550 c 1,0,1
398 328 m 1,18,19
 456.556 314.222 456.556 314.222 477 281 c 1,20,21
 497.269 250.596 497.269 250.596 484 213 c 0,22,23
 470.307 174.661 470.307 174.661 417 163 c 0,24,25
 343 147 343 147 279.5 147 c 128,-1,26
 216 147 216 147 163 154 c 128,-1,27
 110 161 110 161 91 173.5 c 0,28,29
 54.9388 197.224 54.9388 197.224 53 236 c 1,30,31
 47.3741 273.506 47.3741 273.506 86 304 c 0,32,33
 122.305 332.662 122.305 332.662 240 336.5 c 0,34,35
 318.394 339.056 318.394 339.056 398 328 c 1,18,19
EndSplineSet
EndChar

StartChar: underscore
Encoding: 95 95 91
Width: 686
Flags: HW
LayerCount: 2
Fore
SplineSet
620.5 2 m 0,0,1
 606 -12 606 -12 572 -17.5 c 128,-1,2
 538 -23 538 -23 486 -26.5 c 128,-1,3
 434 -30 434 -30 376.5 -31 c 0,4,5
 262.943 -32.9749 262.943 -32.9749 153 -24 c 0,6,7
 93.6652 -18.9142 93.6652 -18.9142 72 19 c 0,8,9
 48.4571 59.0229 48.4571 59.0229 69 96 c 1,10,11
 90.0541 138.108 90.0541 138.108 159.027 148.054 c 0,12,13
 267.141 163.644 267.141 163.644 424.295 157.387 c 128,-1,14
 581.449 151.129 581.449 151.129 614.224 128.983 c 128,-1,15
 647 106.838 647 106.838 647.988 68.1655 c 128,-1,16
 648.975 29.4932 648.975 29.4932 620.5 2 c 0,0,1
EndSplineSet
EndChar

StartChar: Aacute
Encoding: 193 193 92
Width: 746
Flags: HW
LayerCount: 2
Fore
SplineSet
227 774 m 1,0,1
 213.448 799.41 213.448 799.41 228.068 833.462 c 0,2,3
 239.979 861.208 239.979 861.208 298 901.5 c 0,4,5
 404.891 975.73 404.891 975.73 457.5 935.5 c 0,6,7
 512.021 893.808 512.021 893.808 493 841.5 c 0,8,9
 487 825 487 825 467 807.5 c 0,10,11
 436.831 781.102 436.831 781.102 365 759 c 0,12,13
 335 750 335 750 312 745.5 c 128,-1,14
 289 741 289 741 275 743 c 0,15,16
 239.18 748.117 239.18 748.117 227 774 c 1,0,1
697.5 84.5 m 0,17,18
 666.688 6.28365 666.688 6.28365 572 -1 c 0,19,20
 516.194 -6.0733 516.194 -6.0733 478.597 15.9634 c 128,-1,21
 441 38 441 38 422.5 61.5 c 128,-1,22
 404 85 404 85 393 107.5 c 0,23,24
 379.218 135.69 379.218 135.69 373 173 c 1,25,26
 362.72 111.32 362.72 111.32 323.5 61.5 c 0,27,28
 305 38 305 38 277 21.5 c 0,29,30
 208.174 -19.0581 208.174 -19.0581 124 9 c 1,31,32
 55.7726 32.8796 55.7726 32.8796 40 117 c 1,33,34
 22.2309 201.403 22.2309 201.403 50 328.5 c 0,35,36
 74.1982 439.254 74.1982 439.254 125 526.5 c 0,37,38
 148 566 148 566 175.5 606 c 128,-1,39
 203 646 203 646 237.5 671 c 128,-1,40
 272 696 272 696 301.5 707.5 c 0,41,42
 338.696 722 338.696 722 373 722 c 256,43,44
 437.6 722 437.6 722 509 671 c 0,45,46
 544 646 544 646 571.5 606 c 128,-1,47
 599 566 599 566 621.5 526.5 c 128,-1,48
 644 487 644 487 663.5 437.5 c 0,49,50
 706.492 328.368 706.492 328.368 712 198 c 1,51,52
 716.546 132.846 716.546 132.846 697.5 84.5 c 0,17,18
406 356 m 128,-1,54
 396 369 396 369 378 369 c 128,-1,55
 360 369 360 369 347.5 356 c 128,-1,56
 335 343 335 343 337 324.5 c 0,57,58
 340.73 290 340.73 290 377 290 c 256,59,60
 394 290 394 290 405 300 c 128,-1,61
 416 310 416 310 416 326.5 c 128,-1,53
 416 343 416 343 406 356 c 128,-1,54
EndSplineSet
EndChar

StartChar: Eacute
Encoding: 201 201 93
Width: 668
Flags: HW
LayerCount: 2
Fore
SplineSet
217 774 m 1,0,1
 203.448 799.41 203.448 799.41 218.068 833.462 c 0,2,3
 229.979 861.208 229.979 861.208 288 901.5 c 0,4,5
 394.891 975.73 394.891 975.73 447.5 935.5 c 0,6,7
 502.021 893.808 502.021 893.808 483 841.5 c 0,8,9
 477 825 477 825 457 807.5 c 0,10,11
 426.831 781.102 426.831 781.102 355 759 c 0,12,13
 325 750 325 750 302 745.5 c 128,-1,14
 279 741 279 741 265 743 c 0,15,16
 229.18 748.117 229.18 748.117 217 774 c 1,0,1
74.5 608.5 m 0,17,18
 156.867 744.007 156.867 744.007 440.5 703 c 0,19,20
 552.141 686.859 552.141 686.859 595 644 c 1,21,22
 624 617 624 617 623.5 585.5 c 128,-1,23
 623 554 623 554 612 532.5 c 128,-1,24
 601 511 601 511 583 496 c 0,25,26
 518.714 442.429 518.714 442.429 358 451 c 1,27,28
 454.88 434.003 454.88 434.003 484 389 c 0,29,30
 497 369 497 369 495 345 c 1,31,32
 495 294.4 495 294.4 441 262 c 0,33,34
 417 248 417 248 387 241 c 1,35,36
 540.179 244.259 540.179 244.259 600 179 c 0,37,38
 625 151 625 151 625 114 c 1,39,40
 621.395 70.7366 621.395 70.7366 580.5 42 c 0,41,42
 550.955 21.2388 550.955 21.2388 491.978 7.11939 c 128,-1,43
 433 -7 433 -7 369 -8.5 c 128,-1,44
 305 -10 305 -10 263 -4 c 128,-1,45
 221 2 221 2 189 12 c 0,46,47
 69.8038 49.2488 69.8038 49.2488 51 137 c 1,48,49
 28.6159 250.642 28.6159 250.642 39 409 c 0,50,51
 43 480 43 480 53 549 c 1,52,53
 59 583 59 583 74.5 608.5 c 0,17,18
EndSplineSet
EndChar

StartChar: Iacute
Encoding: 205 205 94
Width: 420
Flags: HW
LayerCount: 2
Fore
SplineSet
83 773 m 1,0,1
 69.4481 798.41 69.4481 798.41 84.0675 832.462 c 0,2,3
 95.9795 860.208 95.9795 860.208 154 900.5 c 0,4,5
 260.891 974.73 260.891 974.73 313.5 934.5 c 0,6,7
 368.021 892.808 368.021 892.808 349 840.5 c 0,8,9
 343 824 343 824 323 806.5 c 0,10,11
 292.831 780.102 292.831 780.102 221 758 c 0,12,13
 191 749 191 749 168 744.5 c 128,-1,14
 145 740 145 740 131 742 c 0,15,16
 95.1802 747.117 95.1802 747.117 83 773 c 1,0,1
86.5 59 m 128,-1,18
 74 78 74 78 59.5 111.5 c 128,-1,19
 45 145 45 145 39 194.5 c 0,20,21
 24.786 311.766 24.786 311.766 35 482 c 1,22,23
 42.3371 572.98 42.3371 572.98 82 634 c 0,24,25
 109.23 675.892 109.23 675.892 157 695 c 0,26,27
 182 705 182 705 215 705 c 1,28,29
 255 702 255 702 278.5 687 c 128,-1,30
 302 672 302 672 316.5 658 c 128,-1,31
 331 644 331 644 343.5 623 c 0,32,33
 370.638 577.409 370.638 577.409 379.319 508.704 c 0,34,35
 399.374 349.987 399.374 349.987 380 164 c 1,36,37
 365.535 62.7465 365.535 62.7465 304 17.5 c 0,38,39
 267.96 -9.00001 267.96 -9.00001 225.98 -9 c 128,-1,40
 184 -9 184 -9 160 0.5 c 128,-1,41
 136 10 136 10 117.5 25 c 128,-1,17
 99 40 99 40 86.5 59 c 128,-1,18
EndSplineSet
EndChar

StartChar: Oacute
Encoding: 211 211 95
Width: 771
Flags: HW
LayerCount: 2
Fore
SplineSet
235 774 m 1,0,1
 221.448 799.41 221.448 799.41 236.068 833.462 c 0,2,3
 247.979 861.208 247.979 861.208 306 901.5 c 0,4,5
 412.891 975.73 412.891 975.73 465.5 935.5 c 0,6,7
 520.021 893.808 520.021 893.808 501 841.5 c 0,8,9
 495 825 495 825 475 807.5 c 0,10,11
 444.831 781.102 444.831 781.102 373 759 c 0,12,13
 343 750 343 750 320 745.5 c 128,-1,14
 297 741 297 741 283 743 c 0,15,16
 247.18 748.117 247.18 748.117 235 774 c 1,0,1
404 704 m 1,17,18
 513.917 704 513.917 704 589 651 c 0,19,20
 649.014 608.637 649.014 608.637 684.007 533.819 c 128,-1,21
 719 459 719 459 724 365 c 1,22,23
 724 236.156 724 236.156 673.5 147.5 c 0,24,25
 633.865 77.9192 633.865 77.9192 564 36 c 0,26,27
 494 -5 494 -5 404 -11 c 1,28,29
 280.894 -11 280.894 -11 196 41.5 c 0,30,31
 128.819 83.0459 128.819 83.0459 88.9097 157.523 c 128,-1,32
 49 232 49 232 44 327 c 1,33,34
 44 468.549 44 468.549 100.5 560.5 c 0,35,36
 145.78 634.19 145.78 634.19 224.39 671.095 c 128,-1,37
 303 708 303 708 404 704 c 1,17,18
418 370 m 128,-1,39
 408 383 408 383 390 383 c 128,-1,40
 372 383 372 383 359.5 370 c 128,-1,41
 347 357 347 357 349 338.5 c 0,42,43
 352.73 304 352.73 304 389 304 c 256,44,45
 406 304 406 304 417 314 c 128,-1,46
 428 324 428 324 428 340.5 c 128,-1,38
 428 357 428 357 418 370 c 128,-1,39
EndSplineSet
EndChar

StartChar: Uacute
Encoding: 218 218 96
Width: 767
Flags: HW
LayerCount: 2
Fore
SplineSet
257 774 m 1,0,1
 243.448 799.41 243.448 799.41 258.068 833.462 c 0,2,3
 269.979 861.208 269.979 861.208 328 901.5 c 0,4,5
 434.891 975.73 434.891 975.73 487.5 935.5 c 0,6,7
 542.021 893.808 542.021 893.808 523 841.5 c 0,8,9
 517 825 517 825 497 807.5 c 0,10,11
 466.831 781.102 466.831 781.102 395 759 c 0,12,13
 365 750 365 750 342 745.5 c 128,-1,14
 319 741 319 741 305 743 c 0,15,16
 269.18 748.117 269.18 748.117 257 774 c 1,0,1
37 559 m 1,17,18
 56.976 663.874 56.976 663.874 133.5 699 c 0,19,20
 164 713 164 713 201 711 c 128,-1,21
 238 709 238 709 264 693.5 c 0,22,23
 331 653.558 331 653.558 331 559 c 0,24,25
 331 516 331 516 330 477.5 c 128,-1,26
 329 439 329 439 332 409.5 c 0,27,28
 338.559 345 338.559 345 370 345 c 256,29,30
 413.442 345 413.442 345 410 477.5 c 0,31,32
 409 516 409 516 408 551.5 c 128,-1,33
 407 587 407 587 412.5 608.5 c 128,-1,34
 418 630 418 630 428 646 c 0,35,36
 464.25 704 464.25 704 547 704 c 1,37,38
 630.232 708.896 630.232 708.896 679 652 c 1,39,40
 699 626 699 626 709 594 c 1,41,42
 751.004 406.216 751.004 406.216 697 201 c 1,43,44
 666.823 113.342 666.823 113.342 593.5 52.5 c 0,45,46
 512.154 -15 512.154 -15 380 -15 c 0,47,48
 249.154 -15 249.154 -15 155 57 c 0,49,50
 115 88 115 88 94 123.5 c 128,-1,51
 73 159 73 159 61 194.5 c 128,-1,52
 49 230 49 230 41.5 266.5 c 0,53,54
 13.8418 401.103 13.8418 401.103 37 559 c 1,17,18
EndSplineSet
EndChar

StartChar: Yacute
Encoding: 221 221 97
Width: 833
Flags: HW
LayerCount: 2
Fore
SplineSet
330 774 m 1,0,1
 316.448 799.41 316.448 799.41 331.068 833.462 c 0,2,3
 342.979 861.208 342.979 861.208 401 901.5 c 0,4,5
 507.891 975.73 507.891 975.73 560.5 935.5 c 0,6,7
 615.021 893.808 615.021 893.808 596 841.5 c 0,8,9
 590 825 590 825 570 807.5 c 0,10,11
 539.831 781.102 539.831 781.102 468 759 c 0,12,13
 438 750 438 750 415 745.5 c 128,-1,14
 392 741 392 741 378 743 c 0,15,16
 342.18 748.117 342.18 748.117 330 774 c 1,0,1
447 547 m 1,17,18
 468 623 468 623 500.5 660.5 c 0,19,20
 563.985 733.752 563.985 733.752 642 724 c 0,21,22
 727.59 713.301 727.59 713.301 757.5 657 c 0,23,24
 766 641 766 641 773.5 614 c 128,-1,25
 781 587 781 587 773 541 c 1,26,27
 750.956 447.737 750.956 447.737 669 379 c 0,28,29
 633 348 633 348 591 327 c 1,30,31
 622.997 226.21 622.997 226.21 598 129 c 0,32,33
 587 88 587 88 567 56 c 1,34,35
 524.594 -3 524.594 -3 447 -3 c 0,36,37
 391.333 -3 391.333 -3 353 20 c 1,38,39
 299.966 49.4633 299.966 49.4633 280 126 c 0,40,41
 270 164.333 270 164.333 270 215.667 c 128,-1,42
 270 267 270 267 281 320 c 1,43,44
 177.348 364.713 177.348 364.713 120 445 c 0,45,46
 87.5 490.5 87.5 490.5 81.25 533.25 c 128,-1,47
 75 576 75 576 79 601.5 c 128,-1,48
 83 627 83 627 92 646.5 c 0,49,50
 125.224 718.485 125.224 718.485 217 731 c 1,51,52
 330.477 737.877 330.477 737.877 399 643 c 1,53,54
 430 602 430 602 447 547 c 1,17,18
EndSplineSet
EndChar

StartChar: aacute
Encoding: 225 225 98
Width: 704
Flags: HW
LayerCount: 2
Fore
SplineSet
237 589 m 1,0,1
 223.448 614.41 223.448 614.41 238.068 648.462 c 0,2,3
 249.979 676.208 249.979 676.208 308 716.5 c 0,4,5
 414.891 790.73 414.891 790.73 467.5 750.5 c 0,6,7
 522.021 708.808 522.021 708.808 503 656.5 c 0,8,9
 497 640 497 640 477 622.5 c 0,10,11
 446.831 596.102 446.831 596.102 375 574 c 0,12,13
 345 565 345 565 322 560.5 c 128,-1,14
 299 556 299 556 285 558 c 0,15,16
 249.18 563.117 249.18 563.117 237 589 c 1,0,1
419 435 m 1,17,18
 433.922 479.765 433.922 479.765 476.5 506.5 c 0,19,20
 498 520 498 520 529.5 520 c 128,-1,21
 561 520 561 520 582 509 c 128,-1,22
 603 498 603 498 619 480 c 0,23,24
 678.84 412.68 678.84 412.68 683 265 c 1,25,26
 693.043 74.1801 693.043 74.1801 617 9 c 0,27,28
 584 -20 584 -20 540 -18 c 1,29,30
 487.46 -19.9459 487.46 -19.9459 450 18.5 c 0,31,32
 431 38 431 38 426 76 c 1,33,34
 407.252 19.757 407.252 19.757 328 -6 c 0,35,36
 288 -19 288 -19 228 -12 c 0,37,38
 72.6362 6.12578 72.6362 6.12578 38 149 c 0,39,40
 30 182 30 182 30 225 c 1,41,42
 27.0816 334.439 27.0816 334.439 73 412.5 c 0,43,44
 125.91 502.446 125.91 502.446 242 513 c 0,45,46
 333.309 521.153 333.309 521.153 386 479 c 0,47,48
 409 461 409 461 419 435 c 1,17,18
404 265 m 128,-1,50
 394 278 394 278 376 278 c 128,-1,51
 358 278 358 278 345.5 265 c 128,-1,52
 333 252 333 252 335 233.5 c 0,53,54
 338.73 199 338.73 199 375 199 c 256,55,56
 392 199 392 199 403 209 c 128,-1,57
 414 219 414 219 414 235.5 c 128,-1,49
 414 252 414 252 404 265 c 128,-1,50
EndSplineSet
EndChar

StartChar: eacute
Encoding: 233 233 99
Width: 584
Flags: HW
LayerCount: 2
Fore
SplineSet
164 589 m 1,0,1
 150.448 614.41 150.448 614.41 165.068 648.462 c 0,2,3
 176.979 676.208 176.979 676.208 235 716.5 c 0,4,5
 341.891 790.73 341.891 790.73 394.5 750.5 c 0,6,7
 449.021 708.808 449.021 708.808 430 656.5 c 0,8,9
 424 640 424 640 404 622.5 c 0,10,11
 373.831 596.102 373.831 596.102 302 574 c 0,12,13
 272 565 272 565 249 560.5 c 128,-1,14
 226 556 226 556 212 558 c 0,15,16
 176.18 563.117 176.18 563.117 164 589 c 1,0,1
365 207 m 1,17,18
 394 184 394 184 426 178.5 c 128,-1,19
 458 173 458 173 485.5 169 c 128,-1,20
 513 165 513 165 532.5 154 c 128,-1,21
 552 143 552 143 557 108 c 1,22,23
 559.015 67.707 559.015 67.707 531.5 34.5 c 0,24,25
 517 17 517 17 486 5 c 1,26,27
 400.38 -22.2427 400.38 -22.2427 291 -11.5 c 0,28,29
 235 -6 235 -6 174 19 c 1,30,31
 116.408 44.9165 116.408 44.9165 77.5 102.5 c 0,32,33
 31.8072 170.125 31.8072 170.125 37 261 c 0,34,35
 45.2968 410.342 45.2968 410.342 148.5 485 c 0,36,37
 172 502 172 502 203 513 c 1,38,39
 275.3 534.265 275.3 534.265 354.5 526.5 c 0,40,41
 440.653 518.054 440.653 518.054 507 460 c 1,42,43
 560.529 406.471 560.529 406.471 563 320 c 1,44,45
 563 246.965 563 246.965 499.5 218 c 0,46,47
 441.738 191.652 441.738 191.652 365 207 c 1,17,18
368 321 m 128,-1,49
 358 334 358 334 340 334 c 128,-1,50
 322 334 322 334 309.5 321 c 128,-1,51
 297 308 297 308 299 289.5 c 0,52,53
 302.73 255 302.73 255 339 255 c 256,54,55
 356 255 356 255 367 265 c 128,-1,56
 378 275 378 275 378 291.5 c 128,-1,48
 378 308 378 308 368 321 c 128,-1,49
EndSplineSet
EndChar

StartChar: iacute
Encoding: 237 237 100
Width: 389
Flags: HW
LayerCount: 2
Fore
SplineSet
73 589 m 1,0,1
 59.4481 614.41 59.4481 614.41 74.0675 648.462 c 0,2,3
 85.9795 676.208 85.9795 676.208 144 716.5 c 0,4,5
 250.891 790.73 250.891 790.73 303.5 750.5 c 0,6,7
 358.021 708.808 358.021 708.808 339 656.5 c 0,8,9
 333 640 333 640 313 622.5 c 0,10,11
 282.831 596.102 282.831 596.102 211 574 c 0,12,13
 181 565 181 565 158 560.5 c 128,-1,14
 135 556 135 556 121 558 c 0,15,16
 85.1802 563.117 85.1802 563.117 73 589 c 1,0,1
347 106 m 0,17,18
 333.561 30.407 333.561 30.407 269 2 c 0,19,20
 240 -10 240 -10 201.5 -11.5 c 0,21,22
 136.05 -14.05 136.05 -14.05 91 31 c 0,23,24
 72 50 72 50 57 91 c 128,-1,25
 42 132 42 132 38.5 189.5 c 0,26,27
 32.0139 296.058 32.0139 296.058 58 404 c 1,28,29
 79.3399 479.51 79.3399 479.51 141 509 c 0,30,31
 168 521 168 521 207 522.5 c 128,-1,32
 246 524 246 524 274.5 506 c 0,33,34
 330.63 470.549 330.63 470.549 348 403 c 1,35,36
 375.16 274.96 375.16 274.96 347 106 c 0,17,18
EndSplineSet
EndChar

StartChar: oacute
Encoding: 243 243 101
Width: 597
Flags: HW
LayerCount: 2
Fore
SplineSet
167 589 m 1,0,1
 153.448 614.41 153.448 614.41 168.068 648.462 c 0,2,3
 179.979 676.208 179.979 676.208 238 716.5 c 0,4,5
 344.891 790.73 344.891 790.73 397.5 750.5 c 0,6,7
 452.021 708.808 452.021 708.808 433 656.5 c 0,8,9
 427 640 427 640 407 622.5 c 0,10,11
 376.831 596.102 376.831 596.102 305 574 c 0,12,13
 275 565 275 565 252 560.5 c 128,-1,14
 229 556 229 556 215 558 c 0,15,16
 179.18 563.117 179.18 563.117 167 589 c 1,0,1
582 263 m 1,17,18
 582 178 582 178 551 116 c 1,19,20
 523.404 65.9831 523.404 65.9831 472 30 c 1,21,22
 423.125 -6.125 423.125 -6.125 354 -16 c 0,23,24
 337 -19 337 -19 303 -19 c 128,-1,25
 269 -19 269 -19 227.5 -8 c 128,-1,26
 186 3 186 3 155 20.5 c 0,27,28
 97.9516 52.7047 97.9516 52.7047 68 108 c 1,29,30
 35 163 35 163 32 235 c 1,31,32
 32 426.111 32 426.111 178 491 c 0,33,34
 242 519 242 519 324 516 c 1,35,36
 486.5 516 486.5 516 550 389 c 0,37,38
 578 334 578 334 582 263 c 1,17,18
347 261 m 128,-1,40
 337 274 337 274 319 274 c 128,-1,41
 301 274 301 274 288.5 261 c 128,-1,42
 276 248 276 248 278 229.5 c 0,43,44
 281.73 195 281.73 195 318 195 c 256,45,46
 335 195 335 195 346 205 c 128,-1,47
 357 215 357 215 357 231.5 c 128,-1,39
 357 248 357 248 347 261 c 128,-1,40
EndSplineSet
EndChar

StartChar: uacute
Encoding: 250 250 102
Width: 680
Flags: HW
LayerCount: 2
Fore
SplineSet
224 589 m 1,0,1
 210.448 614.41 210.448 614.41 225.068 648.462 c 0,2,3
 236.979 676.208 236.979 676.208 295 716.5 c 0,4,5
 401.891 790.73 401.891 790.73 454.5 750.5 c 0,6,7
 509.021 708.808 509.021 708.808 490 656.5 c 0,8,9
 484 640 484 640 464 622.5 c 0,10,11
 433.831 596.102 433.831 596.102 362 574 c 0,12,13
 332 565 332 565 309 560.5 c 128,-1,14
 286 556 286 556 272 558 c 0,15,16
 236.18 563.117 236.18 563.117 224 589 c 1,0,1
89 476 m 128,-1,18
 114 500 114 500 142 509 c 128,-1,19
 170 518 170 518 202 514 c 128,-1,20
 234 510 234 510 255.5 496 c 0,21,22
 308.635 461.401 308.635 461.401 312 384 c 1,23,24
 312 300.538 312 300.538 324.5 276.5 c 0,25,26
 331 264 331 264 344 264 c 0,27,28
 367 264 367 264 370.5 292.5 c 128,-1,29
 374 321 374 321 374.5 377 c 0,30,31
 375.3 466.599 375.3 466.599 432 499 c 0,32,33
 457 513 457 513 498 515 c 128,-1,34
 539 517 539 517 567.5 500.5 c 0,35,36
 623.409 468.132 623.409 468.132 635.704 410.566 c 0,37,38
 654.653 321.852 654.653 321.852 633 219 c 0,39,40
 623 175 623 175 605.5 133.5 c 0,41,42
 580.111 73.2926 580.111 73.2926 520 29 c 0,43,44
 453.907 -19.7002 453.907 -19.7002 364.953 -17.3501 c 0,45,46
 224.977 -13.652 224.977 -13.652 145 37 c 0,47,48
 110 59 110 59 92 87 c 1,49,50
 39.3627 163.409 39.3627 163.409 42 290 c 1,51,52
 42 346 42 346 53 399 c 128,-1,17
 64 452 64 452 89 476 c 128,-1,18
EndSplineSet
EndChar

StartChar: yacute
Encoding: 253 253 103
Width: 728
Flags: HW
LayerCount: 2
Fore
SplineSet
237 589 m 1,0,1
 223.448 614.41 223.448 614.41 238.068 648.462 c 0,2,3
 249.979 676.208 249.979 676.208 308 716.5 c 0,4,5
 414.891 790.73 414.891 790.73 467.5 750.5 c 0,6,7
 522.021 708.808 522.021 708.808 503 656.5 c 0,8,9
 497 640 497 640 477 622.5 c 0,10,11
 446.831 596.102 446.831 596.102 375 574 c 0,12,13
 345 565 345 565 322 560.5 c 128,-1,14
 299 556 299 556 285 558 c 0,15,16
 249.18 563.117 249.18 563.117 237 589 c 1,0,1
596 505 m 0,17,18
 641.645 484.386 641.645 484.386 657 424.5 c 0,19,20
 662 405 662 405 662 379 c 0,21,22
 662 322.4 662 322.4 633.5 244.2 c 0,23,24
 561.414 46.4068 561.414 46.4068 465 -100 c 1,25,26
 423.443 -172.725 423.443 -172.725 367.5 -207.5 c 0,27,28
 302.639 -247.819 302.639 -247.819 233 -213 c 0,29,30
 147.072 -171.338 147.072 -171.338 170.5 -56 c 0,31,32
 182.498 3.06723 182.498 3.06723 199.749 40.0336 c 128,-1,33
 217 77 217 77 223 89 c 1,34,35
 217 95 217 95 210.5 100.5 c 0,36,37
 197.5 111.5 197.5 111.5 188 121 c 1,38,39
 107.992 181.612 107.992 181.612 51 269 c 1,40,41
 4.09257 344.46 4.09257 344.46 27 417 c 0,42,43
 40.4954 459.736 40.4954 459.736 83 493 c 1,44,45
 170.386 542.155 170.386 542.155 255.5 474.5 c 0,46,47
 287.217 449.289 287.217 449.289 313.609 410.644 c 2,48,-1
 354 352 l 1,49,50
 365 372 365 372 386 407 c 128,-1,51
 407 442 407 442 437 471 c 0,52,53
 511.445 542.964 511.445 542.964 596 505 c 0,17,18
EndSplineSet
EndChar

StartChar: acute
Encoding: 180 180 104
Width: 342
Flags: HW
LayerCount: 2
Fore
SplineSet
35 589 m 1,0,1
 21.4481 614.41 21.4481 614.41 36.0675 648.462 c 0,2,3
 47.9794 676.208 47.9794 676.208 106 716.5 c 0,4,5
 212.891 790.73 212.891 790.73 265.5 750.5 c 0,6,7
 320.021 708.808 320.021 708.808 301 656.5 c 0,8,9
 295 640 295 640 275 622.5 c 0,10,11
 244.831 596.102 244.831 596.102 173 574 c 0,12,13
 143 565 143 565 120 560.5 c 128,-1,14
 97 556 97 556 83 558 c 0,15,16
 47.1802 563.117 47.1802 563.117 35 589 c 1,0,1
EndSplineSet
EndChar

StartChar: Agrave
Encoding: 192 192 105
Width: 746
Flags: HW
LayerCount: 2
Fore
SplineSet
351.5 946 m 0,0,1
 371 940 371 940 390.5 929.5 c 128,-1,2
 410 919 410 919 428 906.5 c 0,3,4
 467.15 879.312 467.15 879.312 480.575 862.156 c 128,-1,5
 494 845 494 845 499 833.5 c 0,6,7
 512.054 803.476 512.054 803.476 501.527 782.738 c 128,-1,8
 491 762 491 762 478 756 c 0,9,10
 449.541 742.865 449.541 742.865 421 750 c 1,11,12
 365.016 759.03 365.016 759.03 322.008 777.015 c 128,-1,13
 279 795 279 795 259 812.5 c 128,-1,14
 239 830 239 830 233 846.5 c 128,-1,15
 227 863 227 863 228.5 878 c 0,16,17
 232.162 914.617 232.162 914.617 268 940.5 c 0,18,19
 298.286 962.373 298.286 962.373 351.5 946 c 0,0,1
697.5 84.5 m 0,20,21
 666.688 6.28365 666.688 6.28365 572 -1 c 0,22,23
 516.194 -6.0733 516.194 -6.0733 478.597 15.9634 c 128,-1,24
 441 38 441 38 422.5 61.5 c 128,-1,25
 404 85 404 85 393 107.5 c 0,26,27
 379.218 135.69 379.218 135.69 373 173 c 1,28,29
 362.72 111.32 362.72 111.32 323.5 61.5 c 0,30,31
 305 38 305 38 277 21.5 c 0,32,33
 208.174 -19.0581 208.174 -19.0581 124 9 c 1,34,35
 55.7726 32.8796 55.7726 32.8796 40 117 c 1,36,37
 22.2309 201.403 22.2309 201.403 50 328.5 c 0,38,39
 74.1982 439.254 74.1982 439.254 125 526.5 c 0,40,41
 148 566 148 566 175.5 606 c 128,-1,42
 203 646 203 646 237.5 671 c 128,-1,43
 272 696 272 696 301.5 707.5 c 0,44,45
 338.696 722 338.696 722 373 722 c 256,46,47
 437.6 722 437.6 722 509 671 c 0,48,49
 544 646 544 646 571.5 606 c 128,-1,50
 599 566 599 566 621.5 526.5 c 128,-1,51
 644 487 644 487 663.5 437.5 c 0,52,53
 706.492 328.368 706.492 328.368 712 198 c 1,54,55
 716.546 132.846 716.546 132.846 697.5 84.5 c 0,20,21
406 356 m 128,-1,57
 396 369 396 369 378 369 c 128,-1,58
 360 369 360 369 347.5 356 c 128,-1,59
 335 343 335 343 337 324.5 c 0,60,61
 340.73 290 340.73 290 377 290 c 256,62,63
 394 290 394 290 405 300 c 128,-1,64
 416 310 416 310 416 326.5 c 128,-1,56
 416 343 416 343 406 356 c 128,-1,57
EndSplineSet
EndChar

StartChar: Egrave
Encoding: 200 200 106
Width: 668
Flags: HW
LayerCount: 2
Fore
SplineSet
299.5 948 m 0,0,1
 319 942 319 942 338.5 931.5 c 128,-1,2
 358 921 358 921 376 908.5 c 0,3,4
 415.15 881.312 415.15 881.312 428.575 864.156 c 128,-1,5
 442 847 442 847 447 835.5 c 0,6,7
 460.054 805.476 460.054 805.476 449.527 784.738 c 128,-1,8
 439 764 439 764 426 758 c 0,9,10
 397.541 744.865 397.541 744.865 369 752 c 1,11,12
 313.016 761.03 313.016 761.03 270.008 779.015 c 128,-1,13
 227 797 227 797 207 814.5 c 128,-1,14
 187 832 187 832 181 848.5 c 128,-1,15
 175 865 175 865 176.5 880 c 0,16,17
 180.162 916.617 180.162 916.617 216 942.5 c 0,18,19
 246.286 964.373 246.286 964.373 299.5 948 c 0,0,1
74.5 608.5 m 0,20,21
 156.867 744.007 156.867 744.007 440.5 703 c 0,22,23
 552.141 686.859 552.141 686.859 595 644 c 1,24,25
 624 617 624 617 623.5 585.5 c 128,-1,26
 623 554 623 554 612 532.5 c 128,-1,27
 601 511 601 511 583 496 c 0,28,29
 518.714 442.429 518.714 442.429 358 451 c 1,30,31
 454.88 434.003 454.88 434.003 484 389 c 0,32,33
 497 369 497 369 495 345 c 1,34,35
 495 294.4 495 294.4 441 262 c 0,36,37
 417 248 417 248 387 241 c 1,38,39
 540.179 244.259 540.179 244.259 600 179 c 0,40,41
 625 151 625 151 625 114 c 1,42,43
 621.395 70.7366 621.395 70.7366 580.5 42 c 0,44,45
 550.955 21.2388 550.955 21.2388 491.978 7.11939 c 128,-1,46
 433 -7 433 -7 369 -8.5 c 128,-1,47
 305 -10 305 -10 263 -4 c 128,-1,48
 221 2 221 2 189 12 c 0,49,50
 69.8038 49.2488 69.8038 49.2488 51 137 c 1,51,52
 28.6159 250.642 28.6159 250.642 39 409 c 0,53,54
 43 480 43 480 53 549 c 1,55,56
 59 583 59 583 74.5 608.5 c 0,20,21
EndSplineSet
EndChar

StartChar: Igrave
Encoding: 204 204 107
Width: 420
Flags: HW
LayerCount: 2
Fore
SplineSet
196.5 943 m 0,0,1
 216 937 216 937 235.5 926.5 c 128,-1,2
 255 916 255 916 273 903.5 c 0,3,4
 312.15 876.312 312.15 876.312 325.575 859.156 c 128,-1,5
 339 842 339 842 344 830.5 c 0,6,7
 357.054 800.476 357.054 800.476 346.527 779.738 c 128,-1,8
 336 759 336 759 323 753 c 0,9,10
 294.541 739.865 294.541 739.865 266 747 c 1,11,12
 210.016 756.03 210.016 756.03 167.008 774.015 c 128,-1,13
 124 792 124 792 104 809.5 c 128,-1,14
 84 827 84 827 78 843.5 c 128,-1,15
 72 860 72 860 73.5 875 c 0,16,17
 77.1617 911.617 77.1617 911.617 113 937.5 c 0,18,19
 143.286 959.373 143.286 959.373 196.5 943 c 0,0,1
86.5 59 m 128,-1,21
 74 78 74 78 59.5 111.5 c 128,-1,22
 45 145 45 145 39 194.5 c 0,23,24
 24.786 311.766 24.786 311.766 35 482 c 1,25,26
 42.3371 572.98 42.3371 572.98 82 634 c 0,27,28
 109.23 675.892 109.23 675.892 157 695 c 0,29,30
 182 705 182 705 215 705 c 1,31,32
 255 702 255 702 278.5 687 c 128,-1,33
 302 672 302 672 316.5 658 c 128,-1,34
 331 644 331 644 343.5 623 c 0,35,36
 370.638 577.409 370.638 577.409 379.319 508.704 c 0,37,38
 399.374 349.987 399.374 349.987 380 164 c 1,39,40
 365.535 62.7465 365.535 62.7465 304 17.5 c 0,41,42
 267.96 -9.00001 267.96 -9.00001 225.98 -9 c 128,-1,43
 184 -9 184 -9 160 0.5 c 128,-1,44
 136 10 136 10 117.5 25 c 128,-1,20
 99 40 99 40 86.5 59 c 128,-1,21
EndSplineSet
EndChar

StartChar: Ograve
Encoding: 210 210 108
Width: 771
Flags: HW
LayerCount: 2
Fore
SplineSet
361.5 946 m 0,0,1
 381 940 381 940 400.5 929.5 c 128,-1,2
 420 919 420 919 438 906.5 c 0,3,4
 477.15 879.312 477.15 879.312 490.575 862.156 c 128,-1,5
 504 845 504 845 509 833.5 c 0,6,7
 522.054 803.476 522.054 803.476 511.527 782.738 c 128,-1,8
 501 762 501 762 488 756 c 0,9,10
 459.541 742.865 459.541 742.865 431 750 c 1,11,12
 375.016 759.03 375.016 759.03 332.008 777.015 c 128,-1,13
 289 795 289 795 269 812.5 c 128,-1,14
 249 830 249 830 243 846.5 c 128,-1,15
 237 863 237 863 238.5 878 c 0,16,17
 242.162 914.617 242.162 914.617 278 940.5 c 0,18,19
 308.286 962.373 308.286 962.373 361.5 946 c 0,0,1
404 704 m 1,20,21
 513.917 704 513.917 704 589 651 c 0,22,23
 649.014 608.637 649.014 608.637 684.007 533.819 c 128,-1,24
 719 459 719 459 724 365 c 1,25,26
 724 236.156 724 236.156 673.5 147.5 c 0,27,28
 633.865 77.9192 633.865 77.9192 564 36 c 0,29,30
 494 -5 494 -5 404 -11 c 1,31,32
 280.894 -11 280.894 -11 196 41.5 c 0,33,34
 128.819 83.0459 128.819 83.0459 88.9097 157.523 c 128,-1,35
 49 232 49 232 44 327 c 1,36,37
 44 468.549 44 468.549 100.5 560.5 c 0,38,39
 145.78 634.19 145.78 634.19 224.39 671.095 c 128,-1,40
 303 708 303 708 404 704 c 1,20,21
418 370 m 128,-1,42
 408 383 408 383 390 383 c 128,-1,43
 372 383 372 383 359.5 370 c 128,-1,44
 347 357 347 357 349 338.5 c 0,45,46
 352.73 304 352.73 304 389 304 c 256,47,48
 406 304 406 304 417 314 c 128,-1,49
 428 324 428 324 428 340.5 c 128,-1,41
 428 357 428 357 418 370 c 128,-1,42
EndSplineSet
EndChar

StartChar: Ugrave
Encoding: 217 217 109
Width: 767
Flags: HW
LayerCount: 2
Fore
SplineSet
327.5 938 m 0,0,1
 347 932 347 932 366.5 921.5 c 128,-1,2
 386 911 386 911 404 898.5 c 0,3,4
 443.15 871.312 443.15 871.312 456.575 854.156 c 128,-1,5
 470 837 470 837 475 825.5 c 0,6,7
 488.054 795.476 488.054 795.476 477.527 774.738 c 128,-1,8
 467 754 467 754 454 748 c 0,9,10
 425.541 734.865 425.541 734.865 397 742 c 1,11,12
 341.016 751.03 341.016 751.03 298.008 769.015 c 128,-1,13
 255 787 255 787 235 804.5 c 128,-1,14
 215 822 215 822 209 838.5 c 128,-1,15
 203 855 203 855 204.5 870 c 0,16,17
 208.162 906.617 208.162 906.617 244 932.5 c 0,18,19
 274.286 954.373 274.286 954.373 327.5 938 c 0,0,1
37 559 m 1,20,21
 56.976 663.874 56.976 663.874 133.5 699 c 0,22,23
 164 713 164 713 201 711 c 128,-1,24
 238 709 238 709 264 693.5 c 0,25,26
 331 653.558 331 653.558 331 559 c 0,27,28
 331 516 331 516 330 477.5 c 128,-1,29
 329 439 329 439 332 409.5 c 0,30,31
 338.559 345 338.559 345 370 345 c 256,32,33
 413.442 345 413.442 345 410 477.5 c 0,34,35
 409 516 409 516 408 551.5 c 128,-1,36
 407 587 407 587 412.5 608.5 c 128,-1,37
 418 630 418 630 428 646 c 0,38,39
 464.25 704 464.25 704 547 704 c 1,40,41
 630.232 708.896 630.232 708.896 679 652 c 1,42,43
 699 626 699 626 709 594 c 1,44,45
 751.004 406.216 751.004 406.216 697 201 c 1,46,47
 666.823 113.342 666.823 113.342 593.5 52.5 c 0,48,49
 512.154 -15 512.154 -15 380 -15 c 0,50,51
 249.154 -15 249.154 -15 155 57 c 0,52,53
 115 88 115 88 94 123.5 c 128,-1,54
 73 159 73 159 61 194.5 c 128,-1,55
 49 230 49 230 41.5 266.5 c 0,56,57
 13.8418 401.103 13.8418 401.103 37 559 c 1,20,21
EndSplineSet
EndChar

StartChar: agrave
Encoding: 224 224 110
Width: 704
Flags: HW
LayerCount: 2
Fore
SplineSet
331.5 757 m 0,0,1
 351 751 351 751 370.5 740.5 c 128,-1,2
 390 730 390 730 408 717.5 c 0,3,4
 447.15 690.312 447.15 690.312 460.575 673.156 c 128,-1,5
 474 656 474 656 479 644.5 c 0,6,7
 492.054 614.476 492.054 614.476 481.527 593.738 c 128,-1,8
 471 573 471 573 458 567 c 0,9,10
 429.541 553.865 429.541 553.865 401 561 c 1,11,12
 345.016 570.03 345.016 570.03 302.008 588.015 c 128,-1,13
 259 606 259 606 239 623.5 c 128,-1,14
 219 641 219 641 213 657.5 c 128,-1,15
 207 674 207 674 208.5 689 c 0,16,17
 212.162 725.617 212.162 725.617 248 751.5 c 0,18,19
 278.286 773.373 278.286 773.373 331.5 757 c 0,0,1
419 435 m 1,20,21
 433.922 479.765 433.922 479.765 476.5 506.5 c 0,22,23
 498 520 498 520 529.5 520 c 128,-1,24
 561 520 561 520 582 509 c 128,-1,25
 603 498 603 498 619 480 c 0,26,27
 678.84 412.68 678.84 412.68 683 265 c 1,28,29
 693.043 74.1801 693.043 74.1801 617 9 c 0,30,31
 584 -20 584 -20 540 -18 c 1,32,33
 487.46 -19.9459 487.46 -19.9459 450 18.5 c 0,34,35
 431 38 431 38 426 76 c 1,36,37
 407.252 19.757 407.252 19.757 328 -6 c 0,38,39
 288 -19 288 -19 228 -12 c 0,40,41
 72.6362 6.12578 72.6362 6.12578 38 149 c 0,42,43
 30 182 30 182 30 225 c 1,44,45
 27.0816 334.439 27.0816 334.439 73 412.5 c 0,46,47
 125.91 502.446 125.91 502.446 242 513 c 0,48,49
 333.309 521.153 333.309 521.153 386 479 c 0,50,51
 409 461 409 461 419 435 c 1,20,21
404 265 m 128,-1,53
 394 278 394 278 376 278 c 128,-1,54
 358 278 358 278 345.5 265 c 128,-1,55
 333 252 333 252 335 233.5 c 0,56,57
 338.73 199 338.73 199 375 199 c 256,58,59
 392 199 392 199 403 209 c 128,-1,60
 414 219 414 219 414 235.5 c 128,-1,52
 414 252 414 252 404 265 c 128,-1,53
EndSplineSet
EndChar

StartChar: egrave
Encoding: 232 232 111
Width: 584
Flags: HW
LayerCount: 2
Fore
SplineSet
275.5 757 m 0,0,1
 295 751 295 751 314.5 740.5 c 128,-1,2
 334 730 334 730 352 717.5 c 0,3,4
 391.15 690.312 391.15 690.312 404.575 673.156 c 128,-1,5
 418 656 418 656 423 644.5 c 0,6,7
 436.054 614.476 436.054 614.476 425.527 593.738 c 128,-1,8
 415 573 415 573 402 567 c 0,9,10
 373.541 553.865 373.541 553.865 345 561 c 1,11,12
 289.016 570.03 289.016 570.03 246.008 588.015 c 128,-1,13
 203 606 203 606 183 623.5 c 128,-1,14
 163 641 163 641 157 657.5 c 128,-1,15
 151 674 151 674 152.5 689 c 0,16,17
 156.162 725.617 156.162 725.617 192 751.5 c 0,18,19
 222.286 773.373 222.286 773.373 275.5 757 c 0,0,1
365 207 m 1,20,21
 394 184 394 184 426 178.5 c 128,-1,22
 458 173 458 173 485.5 169 c 128,-1,23
 513 165 513 165 532.5 154 c 128,-1,24
 552 143 552 143 557 108 c 1,25,26
 559.015 67.707 559.015 67.707 531.5 34.5 c 0,27,28
 517 17 517 17 486 5 c 1,29,30
 400.38 -22.2427 400.38 -22.2427 291 -11.5 c 0,31,32
 235 -6 235 -6 174 19 c 1,33,34
 116.408 44.9165 116.408 44.9165 77.5 102.5 c 0,35,36
 31.8072 170.125 31.8072 170.125 37 261 c 0,37,38
 45.2968 410.342 45.2968 410.342 148.5 485 c 0,39,40
 172 502 172 502 203 513 c 1,41,42
 275.3 534.265 275.3 534.265 354.5 526.5 c 0,43,44
 440.653 518.054 440.653 518.054 507 460 c 1,45,46
 560.529 406.471 560.529 406.471 563 320 c 1,47,48
 563 246.965 563 246.965 499.5 218 c 0,49,50
 441.738 191.652 441.738 191.652 365 207 c 1,20,21
368 321 m 128,-1,52
 358 334 358 334 340 334 c 128,-1,53
 322 334 322 334 309.5 321 c 128,-1,54
 297 308 297 308 299 289.5 c 0,55,56
 302.73 255 302.73 255 339 255 c 256,57,58
 356 255 356 255 367 265 c 128,-1,59
 378 275 378 275 378 291.5 c 128,-1,51
 378 308 378 308 368 321 c 128,-1,52
EndSplineSet
EndChar

StartChar: igrave
Encoding: 236 236 112
Width: 389
Flags: HW
LayerCount: 2
Fore
SplineSet
180.5 757 m 0,0,1
 200 751 200 751 219.5 740.5 c 128,-1,2
 239 730 239 730 257 717.5 c 0,3,4
 296.15 690.312 296.15 690.312 309.575 673.156 c 128,-1,5
 323 656 323 656 328 644.5 c 0,6,7
 341.054 614.476 341.054 614.476 330.527 593.738 c 128,-1,8
 320 573 320 573 307 567 c 0,9,10
 278.541 553.865 278.541 553.865 250 561 c 1,11,12
 194.016 570.03 194.016 570.03 151.008 588.015 c 128,-1,13
 108 606 108 606 88 623.5 c 128,-1,14
 68 641 68 641 62 657.5 c 128,-1,15
 56 674 56 674 57.5 689 c 0,16,17
 61.1617 725.617 61.1617 725.617 97 751.5 c 0,18,19
 127.286 773.373 127.286 773.373 180.5 757 c 0,0,1
347 106 m 0,20,21
 333.561 30.407 333.561 30.407 269 2 c 0,22,23
 240 -10 240 -10 201.5 -11.5 c 0,24,25
 136.05 -14.05 136.05 -14.05 91 31 c 0,26,27
 72 50 72 50 57 91 c 128,-1,28
 42 132 42 132 38.5 189.5 c 0,29,30
 32.0139 296.058 32.0139 296.058 58 404 c 1,31,32
 79.3399 479.51 79.3399 479.51 141 509 c 0,33,34
 168 521 168 521 207 522.5 c 128,-1,35
 246 524 246 524 274.5 506 c 0,36,37
 330.63 470.549 330.63 470.549 348 403 c 1,38,39
 375.16 274.96 375.16 274.96 347 106 c 0,20,21
EndSplineSet
EndChar

StartChar: ograve
Encoding: 242 242 113
Width: 597
Flags: HW
LayerCount: 2
Fore
SplineSet
277.5 757 m 0,0,1
 297 751 297 751 316.5 740.5 c 128,-1,2
 336 730 336 730 354 717.5 c 0,3,4
 393.15 690.312 393.15 690.312 406.575 673.156 c 128,-1,5
 420 656 420 656 425 644.5 c 0,6,7
 438.054 614.476 438.054 614.476 427.527 593.738 c 128,-1,8
 417 573 417 573 404 567 c 0,9,10
 375.541 553.865 375.541 553.865 347 561 c 1,11,12
 291.016 570.03 291.016 570.03 248.008 588.015 c 128,-1,13
 205 606 205 606 185 623.5 c 128,-1,14
 165 641 165 641 159 657.5 c 128,-1,15
 153 674 153 674 154.5 689 c 0,16,17
 158.162 725.617 158.162 725.617 194 751.5 c 0,18,19
 224.286 773.373 224.286 773.373 277.5 757 c 0,0,1
582 263 m 1,20,21
 582 178 582 178 551 116 c 1,22,23
 523.404 65.9831 523.404 65.9831 472 30 c 1,24,25
 423.125 -6.125 423.125 -6.125 354 -16 c 0,26,27
 337 -19 337 -19 303 -19 c 128,-1,28
 269 -19 269 -19 227.5 -8 c 128,-1,29
 186 3 186 3 155 20.5 c 0,30,31
 97.9516 52.7047 97.9516 52.7047 68 108 c 1,32,33
 35 163 35 163 32 235 c 1,34,35
 32 426.111 32 426.111 178 491 c 0,36,37
 242 519 242 519 324 516 c 1,38,39
 486.5 516 486.5 516 550 389 c 0,40,41
 578 334 578 334 582 263 c 1,20,21
347 261 m 128,-1,43
 337 274 337 274 319 274 c 128,-1,44
 301 274 301 274 288.5 261 c 128,-1,45
 276 248 276 248 278 229.5 c 0,46,47
 281.73 195 281.73 195 318 195 c 256,48,49
 335 195 335 195 346 205 c 128,-1,50
 357 215 357 215 357 231.5 c 128,-1,42
 357 248 357 248 347 261 c 128,-1,43
EndSplineSet
EndChar

StartChar: ugrave
Encoding: 249 249 114
Width: 680
Flags: HW
LayerCount: 2
Fore
SplineSet
293.5 757 m 0,0,1
 313 751 313 751 332.5 740.5 c 128,-1,2
 352 730 352 730 370 717.5 c 0,3,4
 409.15 690.312 409.15 690.312 422.575 673.156 c 128,-1,5
 436 656 436 656 441 644.5 c 0,6,7
 454.054 614.476 454.054 614.476 443.527 593.738 c 128,-1,8
 433 573 433 573 420 567 c 0,9,10
 391.541 553.865 391.541 553.865 363 561 c 1,11,12
 307.016 570.03 307.016 570.03 264.008 588.015 c 128,-1,13
 221 606 221 606 201 623.5 c 128,-1,14
 181 641 181 641 175 657.5 c 128,-1,15
 169 674 169 674 170.5 689 c 0,16,17
 174.162 725.617 174.162 725.617 210 751.5 c 0,18,19
 240.286 773.373 240.286 773.373 293.5 757 c 0,0,1
89 476 m 128,-1,21
 114 500 114 500 142 509 c 128,-1,22
 170 518 170 518 202 514 c 128,-1,23
 234 510 234 510 255.5 496 c 0,24,25
 308.635 461.401 308.635 461.401 312 384 c 1,26,27
 312 300.538 312 300.538 324.5 276.5 c 0,28,29
 331 264 331 264 344 264 c 0,30,31
 367 264 367 264 370.5 292.5 c 128,-1,32
 374 321 374 321 374.5 377 c 0,33,34
 375.3 466.599 375.3 466.599 432 499 c 0,35,36
 457 513 457 513 498 515 c 128,-1,37
 539 517 539 517 567.5 500.5 c 0,38,39
 623.409 468.132 623.409 468.132 635.704 410.566 c 0,40,41
 654.653 321.852 654.653 321.852 633 219 c 0,42,43
 623 175 623 175 605.5 133.5 c 0,44,45
 580.111 73.2926 580.111 73.2926 520 29 c 0,46,47
 453.907 -19.7002 453.907 -19.7002 364.953 -17.3501 c 0,48,49
 224.977 -13.652 224.977 -13.652 145 37 c 0,50,51
 110 59 110 59 92 87 c 1,52,53
 39.3627 163.409 39.3627 163.409 42 290 c 1,54,55
 42 346 42 346 53 399 c 128,-1,20
 64 452 64 452 89 476 c 128,-1,21
EndSplineSet
EndChar

StartChar: udieresis
Encoding: 252 252 115
Width: 680
Flags: HW
LayerCount: 2
Fore
SplineSet
331 645 m 256,0,1
 331 613 331 613 311.5 590 c 128,-1,2
 292 567 292 567 254 567 c 256,3,4
 216 567 216 567 196.5 590 c 128,-1,5
 177 613 177 613 177 645 c 256,6,7
 177 677 177 677 196.5 699.5 c 128,-1,8
 216 722 216 722 254 722 c 256,9,10
 292 722 292 722 311.5 699.5 c 128,-1,11
 331 677 331 677 331 645 c 256,0,1
514 645 m 256,12,13
 514 613 514 613 494.5 590 c 128,-1,14
 475 567 475 567 437 567 c 256,15,16
 399 567 399 567 379.5 590 c 128,-1,17
 360 613 360 613 360 645 c 256,18,19
 360 677 360 677 379.5 699.5 c 128,-1,20
 399 722 399 722 437 722 c 256,21,22
 475 722 475 722 494.5 699.5 c 128,-1,23
 514 677 514 677 514 645 c 256,12,13
312 384 m 0,24,25
 308.635 461.4 308.635 461.4 255.5 496 c 0,26,27
 234 510 234 510 202 514 c 128,-1,28
 170 518 170 518 142 509 c 128,-1,29
 114 500 114 500 89 476 c 128,-1,30
 64 452 64 452 53 399 c 128,-1,31
 42 346 42 346 41.5 294 c 0,32,33
 40.2322 162.147 40.2322 162.147 92 87 c 1,34,35
 126.082 33.983 126.082 33.983 225.5 1.5 c 0,36,37
 276 -15 276 -15 333.5 -16.5 c 128,-1,38
 391 -18 391 -18 421 -12 c 128,-1,39
 451 -6 451 -6 476 4.5 c 0,40,41
 518.241 22.2414 518.241 22.2414 553.121 57.1207 c 128,-1,42
 588 92 588 92 605.5 133.5 c 128,-1,43
 623 175 623 175 632 216 c 0,44,45
 654.839 320.046 654.839 320.046 637 406 c 0,46,47
 623.409 468.132 623.409 468.132 567.5 500.5 c 0,48,49
 539 517 539 517 498 515 c 128,-1,50
 457 513 457 513 434 500 c 0,51,52
 375 466.652 375 466.652 375 384 c 1,53,54
 374 321 374 321 370.5 292.5 c 128,-1,55
 367 264 367 264 344 264 c 0,56,57
 314.452 264 314.452 264 312.5 346 c 0,58,59
 312 367 312 367 312 384 c 0,24,25
EndSplineSet
EndChar

StartChar: bullet
Encoding: 8226 8226 116
Width: 541
Flags: HW
LayerCount: 2
Fore
SplineSet
476 327 m 256,0,1
 476 239.039 476 239.039 424.5 183.5 c 0,2,3
 369.327 124 369.327 124 273 124 c 0,4,5
 177.673 124 177.673 124 122.5 183.5 c 0,6,7
 70 240.118 70 240.118 70 327 c 256,8,9
 70 412.353 70 412.353 122.5 470 c 0,10,11
 177.143 530 177.143 530 273 530 c 0,12,13
 369.857 530 369.857 530 424.5 470 c 0,14,15
 476 413.451 476 413.451 476 327 c 256,0,1
EndSplineSet
EndChar

StartChar: Ydieresis
Encoding: 376 376 117
Width: 833
Flags: HW
LayerCount: 2
Fore
SplineSet
422 833 m 256,0,1
 422 801 422 801 402.5 778 c 128,-1,2
 383 755 383 755 345 755 c 256,3,4
 307 755 307 755 287.5 778 c 128,-1,5
 268 801 268 801 268 833 c 256,6,7
 268 865 268 865 287.5 887.5 c 128,-1,8
 307 910 307 910 345 910 c 256,9,10
 383 910 383 910 402.5 887.5 c 128,-1,11
 422 865 422 865 422 833 c 256,0,1
605 833 m 256,12,13
 605 801 605 801 585.5 778 c 128,-1,14
 566 755 566 755 528 755 c 256,15,16
 490 755 490 755 470.5 778 c 128,-1,17
 451 801 451 801 451 833 c 256,18,19
 451 865 451 865 470.5 887.5 c 128,-1,20
 490 910 490 910 528 910 c 256,21,22
 566 910 566 910 585.5 887.5 c 128,-1,23
 605 865 605 865 605 833 c 256,12,13
447 547 m 1,24,25
 401.192 695.202 401.192 695.202 278 726 c 0,26,27
 250 733 250 733 217 731 c 1,28,29
 125.224 718.485 125.224 718.485 92 646.5 c 0,30,31
 71.1597 601.346 71.1597 601.346 80 543 c 0,32,33
 93.5 448.5 93.5 448.5 188 375 c 0,34,35
 230 342 230 342 281 320 c 1,36,37
 270 267 270 267 270 231.5 c 128,-1,38
 270 196 270 196 272 172.5 c 128,-1,39
 274 149 274 149 280 126 c 0,40,41
 299.966 49.4633 299.966 49.4633 353 20 c 1,42,43
 391.333 -3.00001 391.333 -3.00001 438.667 -3 c 128,-1,44
 486 -3 486 -3 515 10.5 c 128,-1,45
 544 24 544 24 567 56 c 1,46,47
 605.12 116.991 605.12 116.991 609 214 c 0,48,49
 611 264 611 264 591 327 c 1,50,51
 672.353 367.676 672.353 367.676 730 445.5 c 0,52,53
 760 486 760 486 773 541 c 1,54,55
 781 587 781 587 773.5 614 c 128,-1,56
 766 641 766 641 757.5 657 c 128,-1,57
 749 673 749 673 734 686.5 c 0,58,59
 700.452 716.694 700.452 716.694 651.226 722.847 c 128,-1,60
 602 729 602 729 567.5 713.5 c 0,61,62
 482.448 675.288 482.448 675.288 447 547 c 1,24,25
EndSplineSet
EndChar

StartChar: glyph118
Encoding: 65542 -1 118
Width: 719
Flags: HW
LayerCount: 2
Fore
SplineSet
57 401 m 1,0,1
 76.2588 466.48 76.2588 466.48 132 503 c 0,2,3
 161 522 161 522 202 522.5 c 128,-1,4
 243 523 243 523 270.5 515 c 128,-1,5
 298 507 298 507 318 493 c 0,6,7
 355.874 466.488 355.874 466.488 376.937 423.244 c 128,-1,8
 398 380 398 380 403 323 c 1,9,10
 403 429.375 403 429.375 444 475.5 c 0,11,12
 481.778 518 481.778 518 536 518 c 1,13,14
 603.442 519.606 603.442 519.606 641 474 c 0,15,16
 657 454 657 454 663 428 c 1,17,18
 683.656 298.901 683.656 298.901 671 185 c 1,19,20
 659.371 64.0632 659.371 64.0632 620.5 28.5 c 0,21,22
 597 7 597 7 571.5 -4.5 c 128,-1,23
 546 -16 546 -16 513.5 -17.5 c 128,-1,24
 481 -19 481 -19 454 -10.5 c 128,-1,25
 427 -2 427 -2 406 12.5 c 0,26,27
 370.328 37.1305 370.328 37.1305 344.164 84.5653 c 128,-1,28
 318 132 318 132 309 192 c 1,29,30
 315.641 49.2134 315.641 49.2134 246 1 c 0,31,32
 215 -20 215 -20 174 -18 c 1,33,34
 114.639 -19.6044 114.639 -19.6044 79 27 c 0,35,36
 64 47 64 47 56 73 c 1,37,38
 31.3503 176.529 31.3503 176.529 42 299 c 0,39,40
 46 353 46 353 57 401 c 1,0,1
EndSplineSet
EndChar

StartChar: ntilde
Encoding: 241 241 119
Width: 716
Flags: HW
LayerCount: 2
Fore
SplineSet
564.5 683.5 m 128,-1,1
 568 660 568 660 550.5 629 c 128,-1,2
 533 598 533 598 514 584 c 128,-1,3
 495 570 495 570 475 565 c 0,4,5
 440.277 556.319 440.277 556.319 395.138 573.16 c 128,-1,6
 350 590 350 590 303 629 c 1,7,8
 288.12 572.786 288.12 572.786 244 565 c 1,9,10
 205.795 556.957 205.795 556.957 179.5 582 c 0,11,12
 158.739 601.773 158.739 601.773 156.369 623.886 c 128,-1,13
 154 646 154 646 159 659 c 0,14,15
 184.75 736.25 184.75 736.25 245.5 756.5 c 0,16,17
 313.488 779.163 313.488 779.163 419 698 c 0,18,19
 420 697 420 697 420 696 c 128,-1,20
 420 695 420 695 421 694 c 1,21,22
 431 723 431 723 454 739.5 c 128,-1,23
 477 756 477 756 505 746.5 c 128,-1,24
 533 737 533 737 547 722 c 128,-1,0
 561 707 561 707 564.5 683.5 c 128,-1,1
699 230 m 1,25,26
 688.003 371.135 688.003 371.135 631.5 436.5 c 0,27,28
 585.548 489.66 585.548 489.66 512.274 492.33 c 128,-1,29
 439 495 439 495 349 446 c 1,30,31
 342 458 342 458 332.5 471.5 c 128,-1,32
 323 485 323 485 305 496.5 c 0,33,34
 261.704 524.162 261.704 524.162 186 519 c 0,35,36
 100.583 512.167 100.583 512.167 63 437 c 0,37,38
 45 403 45 403 40 355 c 0,39,40
 26.7941 228.223 26.7941 228.223 52 131 c 1,41,42
 68.4753 50.6832 68.4753 50.6832 125 13 c 0,43,44
 156.5 -8 156.5 -8 206.25 -7.5 c 128,-1,45
 256 -7 256 -7 285.5 14 c 0,46,47
 343.438 55.2443 343.438 55.2443 353 126 c 1,48,49
 357.788 202.612 357.788 202.612 352 274 c 1,50,51
 362 274 362 274 368 251.5 c 128,-1,52
 374 229 374 229 378.5 200.5 c 128,-1,53
 383 172 383 172 387 133 c 1,54,55
 390.562 61.7518 390.562 61.7518 435 25.5 c 0,56,57
 465.801 0.372873 465.801 0.372873 515.5 -5 c 0,58,59
 534 -7 534 -7 546 -6 c 2,60,-1
 558 -5 l 1,61,62
 610.685 3.78089 610.685 3.78089 647 43.5 c 0,63,64
 673.597 72.5909 673.597 72.5909 687.299 121.795 c 128,-1,65
 701 171 701 171 699 230 c 1,25,26
EndSplineSet
EndChar

StartChar: questiondown
Encoding: 191 191 120
Width: 646
Flags: HW
LayerCount: 2
Fore
SplineSet
175 359.5 m 128,-1,1
 138 391 138 391 138 442.5 c 128,-1,2
 138 494 138 494 175 522.5 c 128,-1,3
 212 551 212 551 270 551 c 256,4,5
 328 551 328 551 362.5 518.5 c 128,-1,6
 397 486 397 486 397 436 c 128,-1,7
 397 386 397 386 362.5 357 c 128,-1,8
 328 328 328 328 270 328 c 256,9,0
 212 328 212 328 175 359.5 c 128,-1,1
179 274 m 0,10,11
 109.884 227.923 109.884 227.923 77.5 103.5 c 0,12,13
 41.0306 -36.6191 41.0306 -36.6191 92.5 -129 c 0,14,15
 112 -164 112 -164 151.5 -189 c 128,-1,16
 191 -214 191 -214 228.5 -228 c 128,-1,17
 266 -242 266 -242 299.5 -246.5 c 0,18,19
 362.223 -254.926 362.223 -254.926 417.612 -237.463 c 128,-1,20
 473 -220 473 -220 518 -180 c 1,21,22
 612.985 -81.6231 612.985 -81.6231 581 9 c 1,23,24
 568 49 568 49 533 82 c 1,25,26
 473.103 131.915 473.103 131.915 394 95 c 0,27,28
 360 79 360 79 328 49 c 1,29,30
 404.586 177.555 404.586 177.555 367.5 243 c 0,31,32
 359 258 359 258 337 271.5 c 128,-1,33
 315 285 315 285 291.5 291.5 c 128,-1,34
 268 298 268 298 247.5 297.5 c 0,35,36
 214.296 296.69 214.296 296.69 179 274 c 0,10,11
EndSplineSet
EndChar

StartChar: Acircumflex
Encoding: 194 194 121
Width: 746
Flags: HW
LayerCount: 2
Fore
SplineSet
221 842 m 0,0,1
 222 843 222 843 235 858 c 128,-1,2
 248 873 248 873 269 890 c 0,3,4
 325.824 936 325.824 936 373 936 c 0,5,6
 419.167 936 419.167 936 474 889 c 0,7,8
 495 871 495 871 507.5 855.5 c 128,-1,9
 520 840 520 840 521 839 c 0,10,11
 535 820 535 820 531 797 c 128,-1,12
 527 774 527 774 507 760 c 256,13,14
 487 746 487 746 464 750 c 128,-1,15
 441 754 441 754 427 774 c 1,16,-1
 428 774 l 1,17,18
 394.454 811.273 394.454 811.273 373 822 c 1,19,20
 342.2 802.2 342.2 802.2 329.6 790.1 c 2,21,-1
 310 771 l 1,22,23
 288.917 748 288.917 748 267.958 748 c 128,-1,24
 247 748 247 748 229 762.5 c 128,-1,25
 211 777 211 777 208.5 800.5 c 128,-1,26
 206 824 206 824 221 842 c 0,0,1
697.5 84.5 m 0,27,28
 666.688 6.28365 666.688 6.28365 572 -1 c 0,29,30
 516.194 -6.0733 516.194 -6.0733 478.597 15.9634 c 128,-1,31
 441 38 441 38 422.5 61.5 c 128,-1,32
 404 85 404 85 393 107.5 c 0,33,34
 379.218 135.69 379.218 135.69 373 173 c 1,35,36
 362.72 111.32 362.72 111.32 323.5 61.5 c 0,37,38
 305 38 305 38 277 21.5 c 0,39,40
 208.174 -19.0581 208.174 -19.0581 124 9 c 1,41,42
 55.7726 32.8796 55.7726 32.8796 40 117 c 1,43,44
 22.2309 201.403 22.2309 201.403 50 328.5 c 0,45,46
 74.1982 439.254 74.1982 439.254 125 526.5 c 0,47,48
 148 566 148 566 175.5 606 c 128,-1,49
 203 646 203 646 237.5 671 c 128,-1,50
 272 696 272 696 301.5 707.5 c 0,51,52
 338.696 722 338.696 722 373 722 c 256,53,54
 437.6 722 437.6 722 509 671 c 0,55,56
 544 646 544 646 571.5 606 c 128,-1,57
 599 566 599 566 621.5 526.5 c 128,-1,58
 644 487 644 487 663.5 437.5 c 0,59,60
 706.492 328.368 706.492 328.368 712 198 c 1,61,62
 716.546 132.846 716.546 132.846 697.5 84.5 c 0,27,28
406 356 m 128,-1,64
 396 369 396 369 378 369 c 128,-1,65
 360 369 360 369 347.5 356 c 128,-1,66
 335 343 335 343 337 324.5 c 0,67,68
 340.73 290 340.73 290 377 290 c 256,69,70
 394 290 394 290 405 300 c 128,-1,71
 416 310 416 310 416 326.5 c 128,-1,63
 416 343 416 343 406 356 c 128,-1,64
EndSplineSet
EndChar

StartChar: Ecircumflex
Encoding: 202 202 122
Width: 668
Flags: HW
LayerCount: 2
Fore
SplineSet
190 834 m 0,0,1
 191 835 191 835 204 850 c 128,-1,2
 217 865 217 865 238 882 c 0,3,4
 294.824 928 294.824 928 342 928 c 0,5,6
 388.167 928 388.167 928 443 881 c 0,7,8
 464 863 464 863 476.5 847.5 c 128,-1,9
 489 832 489 832 490 831 c 0,10,11
 504 812 504 812 500 789 c 128,-1,12
 496 766 496 766 476 752 c 256,13,14
 456 738 456 738 433 742 c 128,-1,15
 410 746 410 746 396 766 c 1,16,-1
 397 766 l 1,17,18
 363.454 803.273 363.454 803.273 342 814 c 1,19,20
 311.2 794.2 311.2 794.2 298.6 782.1 c 2,21,-1
 279 763 l 1,22,23
 257.917 740 257.917 740 236.958 740 c 128,-1,24
 216 740 216 740 198 754.5 c 128,-1,25
 180 769 180 769 177.5 792.5 c 128,-1,26
 175 816 175 816 190 834 c 0,0,1
74.5 608.5 m 0,27,28
 156.867 744.007 156.867 744.007 440.5 703 c 0,29,30
 552.141 686.859 552.141 686.859 595 644 c 1,31,32
 624 617 624 617 623.5 585.5 c 128,-1,33
 623 554 623 554 612 532.5 c 128,-1,34
 601 511 601 511 583 496 c 0,35,36
 518.714 442.429 518.714 442.429 358 451 c 1,37,38
 454.88 434.003 454.88 434.003 484 389 c 0,39,40
 497 369 497 369 495 345 c 1,41,42
 495 294.4 495 294.4 441 262 c 0,43,44
 417 248 417 248 387 241 c 1,45,46
 540.179 244.259 540.179 244.259 600 179 c 0,47,48
 625 151 625 151 625 114 c 1,49,50
 621.395 70.7366 621.395 70.7366 580.5 42 c 0,51,52
 550.955 21.2388 550.955 21.2388 491.978 7.11939 c 128,-1,53
 433 -7 433 -7 369 -8.5 c 128,-1,54
 305 -10 305 -10 263 -4 c 128,-1,55
 221 2 221 2 189 12 c 0,56,57
 69.8038 49.2488 69.8038 49.2488 51 137 c 1,58,59
 28.6159 250.642 28.6159 250.642 39 409 c 0,60,61
 43 480 43 480 53 549 c 1,62,63
 59 583 59 583 74.5 608.5 c 0,27,28
EndSplineSet
EndChar

StartChar: Icircumflex
Encoding: 206 206 123
Width: 420
Flags: HW
LayerCount: 2
Fore
SplineSet
59 833 m 0,0,1
 60 834 60 834 73 849 c 128,-1,2
 86 864 86 864 107 881 c 0,3,4
 163.824 927 163.824 927 211 927 c 0,5,6
 257.167 927 257.167 927 312 880 c 0,7,8
 333 862 333 862 345.5 846.5 c 128,-1,9
 358 831 358 831 359 830 c 0,10,11
 373 811 373 811 369 788 c 128,-1,12
 365 765 365 765 345 751 c 256,13,14
 325 737 325 737 302 741 c 128,-1,15
 279 745 279 745 265 765 c 1,16,-1
 266 765 l 1,17,18
 232.454 802.273 232.454 802.273 211 813 c 1,19,20
 180.2 793.2 180.2 793.2 167.6 781.1 c 2,21,-1
 148 762 l 1,22,23
 126.917 739 126.917 739 105.958 739 c 128,-1,24
 85 739 85 739 67 753.5 c 128,-1,25
 49 768 49 768 46.5 791.5 c 128,-1,26
 44 815 44 815 59 833 c 0,0,1
86.5 59 m 128,-1,28
 74 78 74 78 59.5 111.5 c 128,-1,29
 45 145 45 145 39 194.5 c 0,30,31
 24.786 311.766 24.786 311.766 35 482 c 1,32,33
 42.3371 572.98 42.3371 572.98 82 634 c 0,34,35
 109.23 675.892 109.23 675.892 157 695 c 0,36,37
 182 705 182 705 215 705 c 1,38,39
 255 702 255 702 278.5 687 c 128,-1,40
 302 672 302 672 316.5 658 c 128,-1,41
 331 644 331 644 343.5 623 c 0,42,43
 370.638 577.409 370.638 577.409 379.319 508.704 c 0,44,45
 399.374 349.987 399.374 349.987 380 164 c 1,46,47
 365.535 62.7465 365.535 62.7465 304 17.5 c 0,48,49
 267.96 -9.00001 267.96 -9.00001 225.98 -9 c 128,-1,50
 184 -9 184 -9 160 0.5 c 128,-1,51
 136 10 136 10 117.5 25 c 128,-1,27
 99 40 99 40 86.5 59 c 128,-1,28
EndSplineSet
EndChar

StartChar: Ocircumflex
Encoding: 212 212 124
Width: 771
Flags: HW
LayerCount: 2
Fore
SplineSet
246 831 m 0,0,1
 247 832 247 832 260 847 c 128,-1,2
 273 862 273 862 294 879 c 0,3,4
 350.824 925 350.824 925 398 925 c 0,5,6
 444.167 925 444.167 925 499 878 c 0,7,8
 520 860 520 860 532.5 844.5 c 128,-1,9
 545 829 545 829 546 828 c 0,10,11
 560 809 560 809 556 786 c 128,-1,12
 552 763 552 763 532 749 c 256,13,14
 512 735 512 735 489 739 c 128,-1,15
 466 743 466 743 452 763 c 1,16,-1
 453 763 l 1,17,18
 419.454 800.273 419.454 800.273 398 811 c 1,19,20
 367.2 791.2 367.2 791.2 354.6 779.1 c 2,21,-1
 335 760 l 1,22,23
 313.917 737 313.917 737 292.958 737 c 128,-1,24
 272 737 272 737 254 751.5 c 128,-1,25
 236 766 236 766 233.5 789.5 c 128,-1,26
 231 813 231 813 246 831 c 0,0,1
404 704 m 1,27,28
 513.917 704 513.917 704 589 651 c 0,29,30
 649.014 608.637 649.014 608.637 684.007 533.819 c 128,-1,31
 719 459 719 459 724 365 c 1,32,33
 724 236.156 724 236.156 673.5 147.5 c 0,34,35
 633.865 77.9192 633.865 77.9192 564 36 c 0,36,37
 494 -5 494 -5 404 -11 c 1,38,39
 280.894 -11 280.894 -11 196 41.5 c 0,40,41
 128.819 83.0459 128.819 83.0459 88.9097 157.523 c 128,-1,42
 49 232 49 232 44 327 c 1,43,44
 44 468.549 44 468.549 100.5 560.5 c 0,45,46
 145.78 634.19 145.78 634.19 224.39 671.095 c 128,-1,47
 303 708 303 708 404 704 c 1,27,28
418 370 m 128,-1,49
 408 383 408 383 390 383 c 128,-1,50
 372 383 372 383 359.5 370 c 128,-1,51
 347 357 347 357 349 338.5 c 0,52,53
 352.73 304 352.73 304 389 304 c 256,54,55
 406 304 406 304 417 314 c 128,-1,56
 428 324 428 324 428 340.5 c 128,-1,48
 428 357 428 357 418 370 c 128,-1,49
EndSplineSet
EndChar

StartChar: acircumflex
Encoding: 226 226 125
Width: 704
Flags: HW
LayerCount: 2
Fore
SplineSet
202 655 m 0,0,1
 203 656 203 656 216 671 c 128,-1,2
 229 686 229 686 250 703 c 0,3,4
 306.824 749 306.824 749 354 749 c 0,5,6
 400.167 749 400.167 749 455 702 c 0,7,8
 476 684 476 684 488.5 668.5 c 128,-1,9
 501 653 501 653 502 652 c 0,10,11
 516 633 516 633 512 610 c 128,-1,12
 508 587 508 587 488 573 c 256,13,14
 468 559 468 559 445 563 c 128,-1,15
 422 567 422 567 408 587 c 1,16,-1
 409 587 l 1,17,18
 375.454 624.273 375.454 624.273 354 635 c 1,19,20
 323.2 615.2 323.2 615.2 310.6 603.1 c 2,21,-1
 291 584 l 1,22,23
 269.917 561 269.917 561 248.958 561 c 128,-1,24
 228 561 228 561 210 575.5 c 128,-1,25
 192 590 192 590 189.5 613.5 c 128,-1,26
 187 637 187 637 202 655 c 0,0,1
419 435 m 1,27,28
 433.922 479.765 433.922 479.765 476.5 506.5 c 0,29,30
 498 520 498 520 529.5 520 c 128,-1,31
 561 520 561 520 582 509 c 128,-1,32
 603 498 603 498 619 480 c 0,33,34
 678.84 412.68 678.84 412.68 683 265 c 1,35,36
 693.043 74.1801 693.043 74.1801 617 9 c 0,37,38
 584 -20 584 -20 540 -18 c 1,39,40
 487.46 -19.9459 487.46 -19.9459 450 18.5 c 0,41,42
 431 38 431 38 426 76 c 1,43,44
 407.252 19.757 407.252 19.757 328 -6 c 0,45,46
 288 -19 288 -19 228 -12 c 0,47,48
 72.6362 6.12578 72.6362 6.12578 38 149 c 0,49,50
 30 182 30 182 30 225 c 1,51,52
 27.0816 334.439 27.0816 334.439 73 412.5 c 0,53,54
 125.91 502.446 125.91 502.446 242 513 c 0,55,56
 333.309 521.153 333.309 521.153 386 479 c 0,57,58
 409 461 409 461 419 435 c 1,27,28
404 265 m 128,-1,60
 394 278 394 278 376 278 c 128,-1,61
 358 278 358 278 345.5 265 c 128,-1,62
 333 252 333 252 335 233.5 c 0,63,64
 338.73 199 338.73 199 375 199 c 256,65,66
 392 199 392 199 403 209 c 128,-1,67
 414 219 414 219 414 235.5 c 128,-1,59
 414 252 414 252 404 265 c 128,-1,60
EndSplineSet
EndChar

StartChar: ecircumflex
Encoding: 234 234 126
Width: 584
Flags: HW
LayerCount: 2
Fore
SplineSet
159 655 m 0,0,1
 160 656 160 656 173 671 c 128,-1,2
 186 686 186 686 207 703 c 0,3,4
 263.824 749 263.824 749 311 749 c 0,5,6
 357.167 749 357.167 749 412 702 c 0,7,8
 433 684 433 684 445.5 668.5 c 128,-1,9
 458 653 458 653 459 652 c 0,10,11
 473 633 473 633 469 610 c 128,-1,12
 465 587 465 587 445 573 c 256,13,14
 425 559 425 559 402 563 c 128,-1,15
 379 567 379 567 365 587 c 1,16,-1
 366 587 l 1,17,18
 332.454 624.273 332.454 624.273 311 635 c 1,19,20
 280.2 615.2 280.2 615.2 267.6 603.1 c 2,21,-1
 248 584 l 1,22,23
 226.917 561 226.917 561 205.958 561 c 128,-1,24
 185 561 185 561 167 575.5 c 128,-1,25
 149 590 149 590 146.5 613.5 c 128,-1,26
 144 637 144 637 159 655 c 0,0,1
365 207 m 1,27,28
 394 184 394 184 426 178.5 c 128,-1,29
 458 173 458 173 485.5 169 c 128,-1,30
 513 165 513 165 532.5 154 c 128,-1,31
 552 143 552 143 557 108 c 1,32,33
 559.015 67.707 559.015 67.707 531.5 34.5 c 0,34,35
 517 17 517 17 486 5 c 1,36,37
 400.38 -22.2427 400.38 -22.2427 291 -11.5 c 0,38,39
 235 -6 235 -6 174 19 c 1,40,41
 116.408 44.9165 116.408 44.9165 77.5 102.5 c 0,42,43
 31.8072 170.125 31.8072 170.125 37 261 c 0,44,45
 45.2968 410.342 45.2968 410.342 148.5 485 c 0,46,47
 172 502 172 502 203 513 c 1,48,49
 275.3 534.265 275.3 534.265 354.5 526.5 c 0,50,51
 440.653 518.054 440.653 518.054 507 460 c 1,52,53
 560.529 406.471 560.529 406.471 563 320 c 1,54,55
 563 246.965 563 246.965 499.5 218 c 0,56,57
 441.738 191.652 441.738 191.652 365 207 c 1,27,28
368 321 m 128,-1,59
 358 334 358 334 340 334 c 128,-1,60
 322 334 322 334 309.5 321 c 128,-1,61
 297 308 297 308 299 289.5 c 0,62,63
 302.73 255 302.73 255 339 255 c 256,64,65
 356 255 356 255 367 265 c 128,-1,66
 378 275 378 275 378 291.5 c 128,-1,58
 378 308 378 308 368 321 c 128,-1,59
EndSplineSet
EndChar

StartChar: icircumflex
Encoding: 238 238 127
Width: 389
Flags: HW
LayerCount: 2
Fore
SplineSet
41 653 m 0,0,1
 42 654 42 654 55 669 c 128,-1,2
 68 684 68 684 89 701 c 0,3,4
 145.824 747 145.824 747 193 747 c 0,5,6
 239.167 747 239.167 747 294 700 c 0,7,8
 315 682 315 682 327.5 666.5 c 128,-1,9
 340 651 340 651 341 650 c 0,10,11
 355 631 355 631 351 608 c 128,-1,12
 347 585 347 585 327 571 c 256,13,14
 307 557 307 557 284 561 c 128,-1,15
 261 565 261 565 247 585 c 1,16,-1
 248 585 l 1,17,18
 214.454 622.273 214.454 622.273 193 633 c 1,19,20
 162.2 613.2 162.2 613.2 149.6 601.1 c 2,21,-1
 130 582 l 1,22,23
 108.917 559 108.917 559 87.9583 559 c 128,-1,24
 67 559 67 559 49 573.5 c 128,-1,25
 31 588 31 588 28.5 611.5 c 128,-1,26
 26 635 26 635 41 653 c 0,0,1
347 106 m 0,27,28
 333.561 30.407 333.561 30.407 269 2 c 0,29,30
 240 -10 240 -10 201.5 -11.5 c 0,31,32
 136.05 -14.05 136.05 -14.05 91 31 c 0,33,34
 72 50 72 50 57 91 c 128,-1,35
 42 132 42 132 38.5 189.5 c 0,36,37
 32.0139 296.058 32.0139 296.058 58 404 c 1,38,39
 79.3399 479.51 79.3399 479.51 141 509 c 0,40,41
 168 521 168 521 207 522.5 c 128,-1,42
 246 524 246 524 274.5 506 c 0,43,44
 330.63 470.549 330.63 470.549 348 403 c 1,45,46
 375.16 274.96 375.16 274.96 347 106 c 0,27,28
EndSplineSet
EndChar

StartChar: ocircumflex
Encoding: 244 244 128
Width: 597
Flags: HW
LayerCount: 2
Fore
SplineSet
156 663 m 0,0,1
 157 664 157 664 170 679 c 128,-1,2
 183 694 183 694 204 711 c 0,3,4
 260.824 757 260.824 757 308 757 c 0,5,6
 354.167 757 354.167 757 409 710 c 0,7,8
 430 692 430 692 442.5 676.5 c 128,-1,9
 455 661 455 661 456 660 c 0,10,11
 470 641 470 641 466 618 c 128,-1,12
 462 595 462 595 442 581 c 256,13,14
 422 567 422 567 399 571 c 128,-1,15
 376 575 376 575 362 595 c 1,16,-1
 363 595 l 1,17,18
 329.454 632.273 329.454 632.273 308 643 c 1,19,20
 277.2 623.2 277.2 623.2 264.6 611.1 c 2,21,-1
 245 592 l 1,22,23
 223.917 569 223.917 569 202.958 569 c 128,-1,24
 182 569 182 569 164 583.5 c 128,-1,25
 146 598 146 598 143.5 621.5 c 128,-1,26
 141 645 141 645 156 663 c 0,0,1
582 263 m 1,27,28
 582 178 582 178 551 116 c 1,29,30
 523.404 65.9831 523.404 65.9831 472 30 c 1,31,32
 423.125 -6.125 423.125 -6.125 354 -16 c 0,33,34
 337 -19 337 -19 303 -19 c 128,-1,35
 269 -19 269 -19 227.5 -8 c 128,-1,36
 186 3 186 3 155 20.5 c 0,37,38
 97.9516 52.7047 97.9516 52.7047 68 108 c 1,39,40
 35 163 35 163 32 235 c 1,41,42
 32 426.111 32 426.111 178 491 c 0,43,44
 242 519 242 519 324 516 c 1,45,46
 486.5 516 486.5 516 550 389 c 0,47,48
 578 334 578 334 582 263 c 1,27,28
347 261 m 128,-1,50
 337 274 337 274 319 274 c 128,-1,51
 301 274 301 274 288.5 261 c 128,-1,52
 276 248 276 248 278 229.5 c 0,53,54
 281.73 195 281.73 195 318 195 c 256,55,56
 335 195 335 195 346 205 c 128,-1,57
 357 215 357 215 357 231.5 c 128,-1,49
 357 248 357 248 347 261 c 128,-1,50
EndSplineSet
EndChar

StartChar: ucircumflex
Encoding: 251 251 129
Width: 680
Flags: HW
LayerCount: 2
Fore
SplineSet
186 676 m 0,0,1
 187 677 187 677 200 692 c 128,-1,2
 213 707 213 707 234 724 c 0,3,4
 290.824 770 290.824 770 338 770 c 0,5,6
 384.167 770 384.167 770 439 723 c 0,7,8
 460 705 460 705 472.5 689.5 c 128,-1,9
 485 674 485 674 486 673 c 0,10,11
 500 654 500 654 496 631 c 128,-1,12
 492 608 492 608 472 594 c 256,13,14
 452 580 452 580 429 584 c 128,-1,15
 406 588 406 588 392 608 c 1,16,-1
 393 608 l 1,17,18
 359.454 645.273 359.454 645.273 338 656 c 1,19,20
 307.2 636.2 307.2 636.2 294.6 624.1 c 2,21,-1
 275 605 l 1,22,23
 253.917 582 253.917 582 232.958 582 c 128,-1,24
 212 582 212 582 194 596.5 c 128,-1,25
 176 611 176 611 173.5 634.5 c 128,-1,26
 171 658 171 658 186 676 c 0,0,1
89 476 m 128,-1,28
 114 500 114 500 142 509 c 128,-1,29
 170 518 170 518 202 514 c 128,-1,30
 234 510 234 510 255.5 496 c 0,31,32
 308.635 461.401 308.635 461.401 312 384 c 1,33,34
 312 300.538 312 300.538 324.5 276.5 c 0,35,36
 331 264 331 264 344 264 c 0,37,38
 367 264 367 264 370.5 292.5 c 128,-1,39
 374 321 374 321 374.5 377 c 0,40,41
 375.3 466.599 375.3 466.599 432 499 c 0,42,43
 457 513 457 513 498 515 c 128,-1,44
 539 517 539 517 567.5 500.5 c 0,45,46
 623.409 468.132 623.409 468.132 635.704 410.566 c 0,47,48
 654.653 321.852 654.653 321.852 633 219 c 0,49,50
 623 175 623 175 605.5 133.5 c 0,51,52
 580.111 73.2926 580.111 73.2926 520 29 c 0,53,54
 453.907 -19.7002 453.907 -19.7002 364.953 -17.3501 c 0,55,56
 224.977 -13.652 224.977 -13.652 145 37 c 0,57,58
 110 59 110 59 92 87 c 1,59,60
 39.3627 163.409 39.3627 163.409 42 290 c 1,61,62
 42 346 42 346 53 399 c 128,-1,27
 64 452 64 452 89 476 c 128,-1,28
EndSplineSet
EndChar

StartChar: Ntilde
Encoding: 209 209 130
Width: 833
Flags: HW
LayerCount: 2
Fore
SplineSet
615.5 872.5 m 128,-1,1
 619 849 619 849 601.5 818 c 128,-1,2
 584 787 584 787 565 773 c 128,-1,3
 546 759 546 759 526 754 c 0,4,5
 491.277 745.319 491.277 745.319 446.138 762.16 c 128,-1,6
 401 779 401 779 354 818 c 1,7,8
 339.12 761.786 339.12 761.786 295 754 c 1,9,10
 256.795 745.957 256.795 745.957 230.5 771 c 0,11,12
 209.739 790.773 209.739 790.773 207.369 812.886 c 128,-1,13
 205 835 205 835 210 848 c 0,14,15
 235.75 925.25 235.75 925.25 296.5 945.5 c 0,16,17
 364.488 968.163 364.488 968.163 470 887 c 0,18,19
 471 886 471 886 471 885 c 128,-1,20
 471 884 471 884 472 883 c 1,21,22
 482 912 482 912 505 928.5 c 128,-1,23
 528 945 528 945 556 935.5 c 128,-1,24
 584 926 584 926 598 911 c 128,-1,0
 612 896 612 896 615.5 872.5 c 128,-1,1
65 552 m 1,25,26
 38.558 421.679 38.558 421.679 43.5 266.5 c 0,27,28
 46 188 46 188 65 109 c 0,29,30
 80.3425 47.6298 80.3425 47.6298 133 13.5 c 0,31,32
 160 -4 160 -4 203 -2 c 1,33,34
 275.666 -7.93192 275.666 -7.93192 320.5 57 c 0,35,36
 371.958 131.526 371.958 131.526 364 296 c 1,37,38
 379.496 176.256 379.496 176.256 437 90 c 0,39,40
 500.136 -4.70398 500.136 -4.70398 611 -2 c 1,41,42
 661.404 -6.44737 661.404 -6.44737 704 25.5 c 0,43,44
 752.093 61.5701 752.093 61.5701 768.047 136.785 c 128,-1,45
 784 212 784 212 790 279 c 128,-1,46
 796 346 796 346 796 425.5 c 128,-1,47
 796 505 796 505 779 593 c 0,48,49
 767.123 656.346 767.123 656.346 711.5 690.5 c 0,50,51
 683 708 683 708 636.5 707.5 c 0,52,53
 568.822 706.772 568.822 706.772 525.5 651.5 c 0,54,55
 474.329 586.213 474.329 586.213 477 450 c 1,56,57
 472.753 558.995 472.753 558.995 420.5 635 c 0,58,59
 386.162 684.946 386.162 684.946 324.5 705.5 c 0,60,61
 293 716 293 716 242.5 713.5 c 128,-1,62
 192 711 192 711 155.5 685.5 c 0,63,64
 84.5131 635.906 84.5131 635.906 65 552 c 1,25,26
EndSplineSet
EndChar

StartChar: Ucircumflex
Encoding: 219 219 131
Width: 767
Flags: HW
LayerCount: 2
Fore
SplineSet
227 830 m 0,0,1
 228 831 228 831 241 846 c 128,-1,2
 254 861 254 861 275 878 c 0,3,4
 331.824 924 331.824 924 379 924 c 0,5,6
 425.167 924 425.167 924 480 877 c 0,7,8
 501 859 501 859 513.5 843.5 c 128,-1,9
 526 828 526 828 527 827 c 0,10,11
 541 808 541 808 537 785 c 128,-1,12
 533 762 533 762 513 748 c 256,13,14
 493 734 493 734 470 738 c 128,-1,15
 447 742 447 742 433 762 c 1,16,-1
 434 762 l 1,17,18
 400.454 799.273 400.454 799.273 379 810 c 1,19,20
 348.2 790.2 348.2 790.2 335.6 778.1 c 2,21,-1
 316 759 l 1,22,23
 294.917 736 294.917 736 273.958 736 c 128,-1,24
 253 736 253 736 235 750.5 c 128,-1,25
 217 765 217 765 214.5 788.5 c 128,-1,26
 212 812 212 812 227 830 c 0,0,1
37 559 m 1,27,28
 56.976 663.874 56.976 663.874 133.5 699 c 0,29,30
 164 713 164 713 201 711 c 128,-1,31
 238 709 238 709 264 693.5 c 0,32,33
 331 653.558 331 653.558 331 559 c 0,34,35
 331 516 331 516 330 477.5 c 128,-1,36
 329 439 329 439 332 409.5 c 0,37,38
 338.559 345 338.559 345 370 345 c 256,39,40
 413.442 345 413.442 345 410 477.5 c 0,41,42
 409 516 409 516 408 551.5 c 128,-1,43
 407 587 407 587 412.5 608.5 c 128,-1,44
 418 630 418 630 428 646 c 0,45,46
 464.25 704 464.25 704 547 704 c 1,47,48
 630.232 708.896 630.232 708.896 679 652 c 1,49,50
 699 626 699 626 709 594 c 1,51,52
 751.004 406.216 751.004 406.216 697 201 c 1,53,54
 666.823 113.342 666.823 113.342 593.5 52.5 c 0,55,56
 512.154 -15 512.154 -15 380 -15 c 0,57,58
 249.154 -15 249.154 -15 155 57 c 0,59,60
 115 88 115 88 94 123.5 c 128,-1,61
 73 159 73 159 61 194.5 c 128,-1,62
 49 230 49 230 41.5 266.5 c 0,63,64
 13.8418 401.103 13.8418 401.103 37 559 c 1,27,28
EndSplineSet
EndChar

StartChar: circumflex
Encoding: 710 710 132
Width: 393
Flags: HW
LayerCount: 2
Fore
SplineSet
46 655 m 0,0,1
 47 656 47 656 60 671 c 128,-1,2
 73 686 73 686 94 703 c 0,3,4
 150.824 749 150.824 749 198 749 c 0,5,6
 244.167 749 244.167 749 299 702 c 0,7,8
 320 684 320 684 332.5 668.5 c 128,-1,9
 345 653 345 653 346 652 c 0,10,11
 360 633 360 633 356 610 c 128,-1,12
 352 587 352 587 332 573 c 256,13,14
 312 559 312 559 289 563 c 128,-1,15
 266 567 266 567 252 587 c 1,16,-1
 253 587 l 1,17,18
 219.454 624.273 219.454 624.273 198 635 c 1,19,20
 167.2 615.2 167.2 615.2 154.6 603.1 c 2,21,-1
 135 584 l 1,22,23
 113.917 561 113.917 561 92.9583 561 c 128,-1,24
 72 561 72 561 54 575.5 c 128,-1,25
 36 590 36 590 33.5 613.5 c 128,-1,26
 31 637 31 637 46 655 c 0,0,1
EndSplineSet
EndChar

StartChar: scaron
Encoding: 353 353 133
Width: 556
Flags: HW
LayerCount: 2
Fore
SplineSet
429 695 m 0,0,1
 428 694 428 694 415 679 c 128,-1,2
 402 664 402 664 381 647 c 0,3,4
 324.176 601 324.176 601 277 601 c 0,5,6
 230.833 601 230.833 601 176 648 c 0,7,8
 155 666 155 666 142.5 681.5 c 128,-1,9
 130 697 130 697 129 698 c 0,10,11
 115 717 115 717 119 740 c 128,-1,12
 123 763 123 763 143 777 c 256,13,14
 163 791 163 791 186 787 c 128,-1,15
 209 783 209 783 223 763 c 1,16,-1
 222 763 l 1,17,18
 255.546 725.727 255.546 725.727 277 715 c 1,19,20
 319 742 319 742 335 760 c 128,-1,21
 351 778 351 778 362.5 783.5 c 128,-1,22
 374 789 374 789 388.5 789 c 128,-1,23
 403 789 403 789 421 774.5 c 128,-1,24
 439 760 439 760 441.5 736.5 c 128,-1,25
 444 713 444 713 429 695 c 0,0,1
325 318 m 1,26,27
 473.224 297.318 473.224 297.318 521 223 c 0,28,29
 543 190 543 190 543 153.5 c 128,-1,30
 543 117 543 117 533.5 91.5 c 128,-1,31
 524 66 524 66 508.5 47.5 c 0,32,33
 481.636 15.436 481.636 15.436 433.818 -5.28199 c 128,-1,34
 386 -26 386 -26 325 -31 c 1,35,36
 135.759 -37.7586 135.759 -37.7586 73 25 c 0,37,38
 44 53 44 53 44 90 c 1,39,40
 40.6447 173.882 40.6447 173.882 137 206 c 0,41,42
 179 220 179 220 234 222 c 1,43,44
 166 238 166 238 131 263 c 0,45,46
 63 311.571 63 311.571 63 368 c 1,47,48
 64.8146 426.068 64.8146 426.068 106.5 465.5 c 0,49,50
 138.059 495.353 138.059 495.353 193.529 513.676 c 128,-1,51
 249 532 249 532 319 532 c 1,52,53
 505.894 526.66 505.894 526.66 532 456.5 c 0,54,55
 540 435 540 435 539 411.5 c 128,-1,56
 538 388 538 388 528 372 c 128,-1,57
 518 356 518 356 503 345.5 c 0,58,59
 445.854 305.498 445.854 305.498 325 318 c 1,26,27
EndSplineSet
EndChar

StartChar: Scaron
Encoding: 352 352 134
Width: 625
Flags: HW
LayerCount: 2
Fore
SplineSet
470 842 m 0,0,1
 469 841 469 841 456 826 c 128,-1,2
 443 811 443 811 422 794 c 0,3,4
 365.176 748 365.176 748 318 748 c 0,5,6
 271.833 748 271.833 748 217 795 c 0,7,8
 196 813 196 813 183.5 828.5 c 128,-1,9
 171 844 171 844 170 845 c 0,10,11
 156 864 156 864 160 887 c 128,-1,12
 164 910 164 910 184 924 c 256,13,14
 204 938 204 938 227 934 c 128,-1,15
 250 930 250 930 264 910 c 1,16,-1
 263 910 l 1,17,18
 296.546 872.727 296.546 872.727 318 862 c 1,19,20
 360 889 360 889 376 907 c 128,-1,21
 392 925 392 925 403.5 930.5 c 128,-1,22
 415 936 415 936 429.5 936 c 128,-1,23
 444 936 444 936 462 921.5 c 128,-1,24
 480 907 480 907 482.5 883.5 c 128,-1,25
 485 860 485 860 470 842 c 0,0,1
306 460 m 1,26,27
 492.725 433.325 492.725 433.325 560 335 c 0,28,29
 590 291 590 291 590.5 242.5 c 128,-1,30
 591 194 591 194 580 159 c 128,-1,31
 569 124 569 124 550.5 98.5 c 0,32,33
 518.908 54.9539 518.908 54.9539 461.454 26.9769 c 128,-1,34
 404 -1 404 -1 339.5 -5.5 c 128,-1,35
 275 -10 275 -10 232 -6 c 128,-1,36
 189 -2 189 -2 157.5 7.5 c 0,37,38
 98.2908 25.3567 98.2908 25.3567 70 58 c 1,39,40
 37 92 37 92 36 131.5 c 128,-1,41
 35 171 35 171 44 194 c 128,-1,42
 53 217 53 217 69 232.5 c 0,43,44
 129.8 291.4 129.8 291.4 261 275 c 1,45,46
 118.88 307.3 118.88 307.3 75 417 c 1,47,48
 57 465 57 465 62.5 510.5 c 128,-1,49
 68 556 68 556 80.5 584 c 128,-1,50
 93 612 93 612 110 632 c 0,51,52
 172.9 706 172.9 706 289 706 c 1,53,54
 453.411 713.071 453.411 713.071 518.5 661 c 0,55,56
 562.61 625.712 562.61 625.712 557 564 c 1,57,58
 549.125 498.375 549.125 498.375 471.5 472.5 c 0,59,60
 403.103 449.701 403.103 449.701 306 460 c 1,26,27
EndSplineSet
EndChar

StartChar: Aring
Encoding: 197 197 135
Width: 746
Flags: HW
LayerCount: 2
Fore
SplineSet
492 802 m 256,0,1
 492 753.849 492 753.849 456.5 720.5 c 128,-1,2
 420.839 687 420.839 687 370 687 c 0,3,4
 319.742 687 319.742 687 283 720.5 c 0,5,6
 247 753.324 247 753.324 247 802 c 256,7,8
 247 849.118 247 849.118 283 883 c 128,-1,9
 319.125 917 319.125 917 370 917 c 0,10,11
 421.438 917 421.438 917 456.5 883 c 0,12,13
 492 848.576 492 848.576 492 802 c 256,0,1
406 842.5 m 128,-1,15
 390 854 390 854 366.5 854 c 128,-1,16
 343 854 343 854 330.5 838.5 c 128,-1,17
 318 823 318 823 318 799 c 128,-1,18
 318 775 318 775 332.5 762.5 c 128,-1,19
 347 750 347 750 369 750 c 128,-1,20
 391 750 391 750 406.5 762.5 c 128,-1,21
 422 775 422 775 422 803 c 128,-1,14
 422 831 422 831 406 842.5 c 128,-1,15
697.5 84.5 m 0,22,23
 666.688 6.28365 666.688 6.28365 572 -1 c 0,24,25
 516.194 -6.0733 516.194 -6.0733 478.597 15.9634 c 128,-1,26
 441 38 441 38 422.5 61.5 c 128,-1,27
 404 85 404 85 393 107.5 c 0,28,29
 379.218 135.69 379.218 135.69 373 173 c 1,30,31
 362.72 111.32 362.72 111.32 323.5 61.5 c 0,32,33
 305 38 305 38 277 21.5 c 0,34,35
 208.174 -19.0581 208.174 -19.0581 124 9 c 1,36,37
 55.7726 32.8796 55.7726 32.8796 40 117 c 1,38,39
 22.2309 201.403 22.2309 201.403 50 328.5 c 0,40,41
 74.1982 439.254 74.1982 439.254 125 526.5 c 0,42,43
 148 566 148 566 175.5 606 c 128,-1,44
 203 646 203 646 237.5 671 c 128,-1,45
 272 696 272 696 301.5 707.5 c 0,46,47
 338.696 722 338.696 722 373 722 c 256,48,49
 437.6 722 437.6 722 509 671 c 0,50,51
 544 646 544 646 571.5 606 c 128,-1,52
 599 566 599 566 621.5 526.5 c 128,-1,53
 644 487 644 487 663.5 437.5 c 0,54,55
 706.492 328.368 706.492 328.368 712 198 c 1,56,57
 716.546 132.846 716.546 132.846 697.5 84.5 c 0,22,23
406 356 m 128,-1,59
 396 369 396 369 378 369 c 128,-1,60
 360 369 360 369 347.5 356 c 128,-1,61
 335 343 335 343 337 324.5 c 0,62,63
 340.73 290 340.73 290 377 290 c 256,64,65
 394 290 394 290 405 300 c 128,-1,66
 416 310 416 310 416 326.5 c 128,-1,58
 416 343 416 343 406 356 c 128,-1,59
EndSplineSet
EndChar

StartChar: aring
Encoding: 229 229 136
Width: 704
Flags: HW
LayerCount: 2
Fore
SplineSet
493 650 m 256,0,1
 493 601.849 493 601.849 457.5 568.5 c 128,-1,2
 421.839 535 421.839 535 371 535 c 0,3,4
 320.742 535 320.742 535 284 568.5 c 0,5,6
 248 601.324 248 601.324 248 650 c 256,7,8
 248 697.118 248 697.118 284 731 c 128,-1,9
 320.125 765 320.125 765 371 765 c 0,10,11
 422.438 765 422.438 765 457.5 731 c 0,12,13
 493 696.576 493 696.576 493 650 c 256,0,1
318 648 m 0,14,15
 318 597 318 597 371 597 c 0,16,17
 400 597 400 597 411 614 c 128,-1,18
 422 631 422 631 422 650.5 c 128,-1,19
 422 670 422 670 409.5 686 c 128,-1,20
 397 702 397 702 372.5 702 c 128,-1,21
 348 702 348 702 333 686.5 c 128,-1,22
 318 671 318 671 318 648 c 0,14,15
419 435 m 1,23,24
 433.922 479.765 433.922 479.765 476.5 506.5 c 0,25,26
 498 520 498 520 529.5 520 c 128,-1,27
 561 520 561 520 582 509 c 128,-1,28
 603 498 603 498 619 480 c 0,29,30
 678.84 412.68 678.84 412.68 683 265 c 1,31,32
 693.043 74.1801 693.043 74.1801 617 9 c 0,33,34
 584 -20 584 -20 540 -18 c 1,35,36
 487.46 -19.9459 487.46 -19.9459 450 18.5 c 0,37,38
 431 38 431 38 426 76 c 1,39,40
 407.252 19.757 407.252 19.757 328 -6 c 0,41,42
 288 -19 288 -19 228 -12 c 0,43,44
 72.6362 6.12578 72.6362 6.12578 38 149 c 0,45,46
 30 182 30 182 30 225 c 1,47,48
 27.0816 334.439 27.0816 334.439 73 412.5 c 0,49,50
 125.91 502.446 125.91 502.446 242 513 c 0,51,52
 333.309 521.153 333.309 521.153 386 479 c 0,53,54
 409 461 409 461 419 435 c 1,23,24
404 265 m 128,-1,56
 394 278 394 278 376 278 c 128,-1,57
 358 278 358 278 345.5 265 c 128,-1,58
 333 252 333 252 335 233.5 c 0,59,60
 338.73 199 338.73 199 375 199 c 256,61,62
 392 199 392 199 403 209 c 128,-1,63
 414 219 414 219 414 235.5 c 128,-1,55
 414 252 414 252 404 265 c 128,-1,56
EndSplineSet
EndChar

StartChar: quotedblright
Encoding: 8221 8221 137
Width: 550
Flags: HW
LayerCount: 2
Fore
SplineSet
226 694 m 128,-1,1
 253 665 253 665 255 624 c 128,-1,2
 257 583 257 583 252.5 554 c 128,-1,3
 248 525 248 525 239.5 504.5 c 0,4,5
 224.437 468.172 224.437 468.172 195.219 450.586 c 128,-1,6
 166 433 166 433 127 438 c 1,7,8
 99.4 442.6 99.4 442.6 106 469 c 0,9,10
 110.8 485 110.8 485 125.4 485 c 128,-1,11
 140 485 140 485 140.5 494 c 128,-1,12
 141 503 141 503 140 512 c 1,13,14
 92 515 92 515 67.5 545 c 128,-1,15
 43 575 43 575 43 618.5 c 128,-1,16
 43 662 43 662 70 692.5 c 128,-1,17
 97 723 97 723 148 723 c 256,18,0
 199 723 199 723 226 694 c 128,-1,1
471 694 m 128,-1,20
 498 665 498 665 500 624 c 128,-1,21
 502 583 502 583 497.5 554 c 128,-1,22
 493 525 493 525 484.5 504.5 c 0,23,24
 469.437 468.172 469.437 468.172 440.219 450.586 c 128,-1,25
 411 433 411 433 372 438 c 1,26,27
 344.4 442.6 344.4 442.6 351 469 c 0,28,29
 355.8 485 355.8 485 370.4 485 c 128,-1,30
 385 485 385 485 385.5 494 c 128,-1,31
 386 503 386 503 385 512 c 1,32,33
 337 515 337 515 312.5 545 c 128,-1,34
 288 575 288 575 288 618.5 c 128,-1,35
 288 662 288 662 315 692.5 c 128,-1,36
 342 723 342 723 393 723 c 256,37,19
 444 723 444 723 471 694 c 128,-1,20
EndSplineSet
EndChar

StartChar: quotedblleft
Encoding: 8220 8220 138
Width: 541
Flags: HW
LayerCount: 2
Fore
SplineSet
309 453 m 128,-1,1
 282 482 282 482 280 523 c 128,-1,2
 278 564 278 564 282.5 593 c 128,-1,3
 287 622 287 622 295.5 642.5 c 0,4,5
 309.157 675.438 309.157 675.438 339.079 694.719 c 128,-1,6
 369 714 369 714 408 709 c 1,7,8
 435.5 704 435.5 704 429 678 c 1,9,10
 423.182 662 423.182 662 409.091 662 c 128,-1,11
 395 662 395 662 394.5 653 c 128,-1,12
 394 644 394 644 395 635 c 1,13,14
 443 632 443 632 467.5 602 c 128,-1,15
 492 572 492 572 492 528.5 c 128,-1,16
 492 485 492 485 465 454.5 c 128,-1,17
 438 424 438 424 387 424 c 256,18,0
 336 424 336 424 309 453 c 128,-1,1
64 453 m 128,-1,20
 37 482 37 482 35 523 c 128,-1,21
 33 564 33 564 37.5 593 c 128,-1,22
 42 622 42 622 50.5 642.5 c 0,23,24
 64.1573 675.438 64.1573 675.438 94.0787 694.719 c 128,-1,25
 124 714 124 714 163 709 c 1,26,27
 190.5 704 190.5 704 184 678 c 1,28,29
 178.182 662 178.182 662 164.091 662 c 128,-1,30
 150 662 150 662 149.5 653 c 128,-1,31
 149 644 149 644 150 635 c 1,32,33
 198 632 198 632 222.5 602 c 128,-1,34
 247 572 247 572 247 528.5 c 128,-1,35
 247 485 247 485 220 454.5 c 128,-1,36
 193 424 193 424 142 424 c 256,37,19
 91 424 91 424 64 453 c 128,-1,20
EndSplineSet
EndChar

StartChar: quoteleft
Encoding: 8216 8216 139
Width: 285
Flags: HW
LayerCount: 2
Fore
SplineSet
64 453 m 128,-1,1
 37 482 37 482 35 523 c 128,-1,2
 33 564 33 564 37.5 593 c 128,-1,3
 42 622 42 622 50.5 642.5 c 0,4,5
 64.1573 675.438 64.1573 675.438 94.0787 694.719 c 128,-1,6
 124 714 124 714 163 709 c 1,7,8
 190.5 704 190.5 704 184 678 c 1,9,10
 178.182 662 178.182 662 164.091 662 c 128,-1,11
 150 662 150 662 149.5 653 c 128,-1,12
 149 644 149 644 150 635 c 1,13,14
 198 632 198 632 222.5 602 c 128,-1,15
 247 572 247 572 247 528.5 c 128,-1,16
 247 485 247 485 220 454.5 c 128,-1,17
 193 424 193 424 142 424 c 256,18,0
 91 424 91 424 64 453 c 128,-1,1
EndSplineSet
EndChar

StartChar: quoteright
Encoding: 8217 8217 140
Width: 296
Flags: HW
LayerCount: 2
Fore
SplineSet
221 694 m 128,-1,1
 248 665 248 665 250 624 c 128,-1,2
 252 583 252 583 247.5 554 c 128,-1,3
 243 525 243 525 234.5 504.5 c 0,4,5
 219.437 468.172 219.437 468.172 190.219 450.586 c 128,-1,6
 161 433 161 433 122 438 c 1,7,8
 94.4 442.6 94.4 442.6 101 469 c 0,9,10
 105.8 485 105.8 485 120.4 485 c 128,-1,11
 135 485 135 485 135.5 494 c 128,-1,12
 136 503 136 503 135 512 c 1,13,14
 87 515 87 515 62.5 545 c 128,-1,15
 38 575 38 575 38 618.5 c 128,-1,16
 38 662 38 662 65 692.5 c 128,-1,17
 92 723 92 723 143 723 c 256,18,0
 194 723 194 723 221 694 c 128,-1,1
EndSplineSet
EndChar

StartChar: quotesinglbase
Encoding: 8218 8218 141
Width: 296
Flags: HW
LayerCount: 2
Fore
SplineSet
221 174 m 128,-1,1
 248 145 248 145 250 104 c 128,-1,2
 252 63 252 63 247.5 34 c 128,-1,3
 243 5 243 5 234.5 -15.5 c 0,4,5
 219.437 -51.8284 219.437 -51.8284 190.219 -69.4142 c 128,-1,6
 161 -87 161 -87 122 -82 c 1,7,8
 94.4 -77.4 94.4 -77.4 101 -51 c 0,9,10
 105.8 -35 105.8 -35 120.4 -35 c 128,-1,11
 135 -35 135 -35 135.5 -26 c 128,-1,12
 136 -17 136 -17 135 -8 c 1,13,14
 87 -5 87 -5 62.5 25 c 128,-1,15
 38 55 38 55 38 98.5 c 128,-1,16
 38 142 38 142 65 172.5 c 128,-1,17
 92 203 92 203 143 203 c 256,18,0
 194 203 194 203 221 174 c 128,-1,1
EndSplineSet
EndChar

StartChar: quotedblbase
Encoding: 8222 8222 142
Width: 544
Flags: HW
LayerCount: 2
Fore
SplineSet
226 170 m 128,-1,1
 253 141 253 141 255 100 c 128,-1,2
 257 59 257 59 252.5 30 c 128,-1,3
 248 1 248 1 239.5 -19.5 c 0,4,5
 224.437 -55.8284 224.437 -55.8284 195.219 -73.4142 c 128,-1,6
 166 -91 166 -91 127 -86 c 1,7,8
 99.4 -81.4 99.4 -81.4 106 -55 c 0,9,10
 110.8 -39 110.8 -39 125.4 -39 c 128,-1,11
 140 -39 140 -39 140.5 -30 c 128,-1,12
 141 -21 141 -21 140 -12 c 1,13,14
 92 -9 92 -9 67.5 21 c 128,-1,15
 43 51 43 51 43 94.5 c 128,-1,16
 43 138 43 138 70 168.5 c 128,-1,17
 97 199 97 199 148 199 c 256,18,0
 199 199 199 199 226 170 c 128,-1,1
471 170 m 128,-1,20
 498 141 498 141 500 100 c 128,-1,21
 502 59 502 59 497.5 30 c 128,-1,22
 493 1 493 1 484.5 -19.5 c 0,23,24
 469.437 -55.8284 469.437 -55.8284 440.219 -73.4142 c 128,-1,25
 411 -91 411 -91 372 -86 c 1,26,27
 344.4 -81.4 344.4 -81.4 351 -55 c 0,28,29
 355.8 -39 355.8 -39 370.4 -39 c 128,-1,30
 385 -39 385 -39 385.5 -30 c 128,-1,31
 386 -21 386 -21 385 -12 c 1,32,33
 337 -9 337 -9 312.5 21 c 128,-1,34
 288 51 288 51 288 94.5 c 128,-1,35
 288 138 288 138 315 168.5 c 128,-1,36
 342 199 342 199 393 199 c 256,37,19
 444 199 444 199 471 170 c 128,-1,20
EndSplineSet
EndChar

StartChar: degree
Encoding: 176 176 143
Width: 390
Flags: HW
LayerCount: 2
Fore
SplineSet
350 570 m 256,0,1
 350 507.55 350 507.55 308 464.5 c 0,2,3
 265.561 421 265.561 421 201 421 c 256,4,5
 135.439 421 135.439 421 93 464.5 c 0,6,7
 51 507.55 51 507.55 51 570 c 256,8,9
 51 633 51 633 93 675 c 0,10,11
 137 719 137 719 201 719 c 256,12,13
 264 719 264 719 308 675 c 0,14,15
 350 633 350 633 350 570 c 256,0,1
260 630.5 m 128,-1,17
 237 654 237 654 208.5 654 c 128,-1,18
 180 654 180 654 164 646 c 128,-1,19
 148 638 148 638 137.5 625.5 c 0,20,21
 116 599.905 116 599.905 116 567.452 c 128,-1,22
 116 535 116 535 137 513 c 128,-1,23
 158 491 158 491 200.5 491 c 128,-1,24
 243 491 243 491 263 513 c 128,-1,25
 283 535 283 535 283 571 c 128,-1,16
 283 607 283 607 260 630.5 c 128,-1,17
EndSplineSet
EndChar

StartChar: quotedbl
Encoding: 34 34 144
Width: 448
Flags: HW
LayerCount: 2
Fore
SplineSet
193 717 m 0,0,1
 199 702 199 702 200.5 681.5 c 128,-1,2
 202 661 202 661 200.5 639 c 128,-1,3
 199 617 199 617 194.5 595.5 c 0,4,5
 184.24 546.48 184.24 546.48 175.62 528.74 c 128,-1,6
 167 511 167 511 158 501.5 c 0,7,8
 135.117 477.346 135.117 477.346 112.059 478.673 c 0,9,10
 75.9541 480.751 75.9541 480.751 60 510 c 0,11,12
 52 523 52 523 46.5 546 c 128,-1,13
 41 569 41 569 37 597.5 c 0,14,15
 27.5119 665.103 27.5119 665.103 42 714 c 0,16,17
 59.5 774 59.5 774 117.5 770 c 0,18,19
 173.34 766.149 173.34 766.149 193 717 c 0,0,1
396 717 m 0,20,21
 402 702 402 702 403.5 681.5 c 128,-1,22
 405 661 405 661 403.5 639 c 128,-1,23
 402 617 402 617 397.5 595.5 c 0,24,25
 387.24 546.48 387.24 546.48 378.62 528.74 c 128,-1,26
 370 511 370 511 361 501.5 c 0,27,28
 338.117 477.346 338.117 477.346 315.059 478.673 c 0,29,30
 278.954 480.751 278.954 480.751 263 510 c 0,31,32
 255 523 255 523 249.5 546 c 128,-1,33
 244 569 244 569 240 597.5 c 0,34,35
 230.512 665.103 230.512 665.103 245 714 c 0,36,37
 262.5 774 262.5 774 320.5 770 c 0,38,39
 376.34 766.149 376.34 766.149 396 717 c 0,20,21
EndSplineSet
EndChar

StartChar: quotesingle
Encoding: 39 39 145
Width: 224
Flags: HW
LayerCount: 2
Fore
SplineSet
190 717 m 0,0,1
 196 702 196 702 197.5 681.5 c 128,-1,2
 199 661 199 661 197.5 639 c 128,-1,3
 196 617 196 617 191.5 595.5 c 0,4,5
 181.24 546.48 181.24 546.48 172.62 528.74 c 128,-1,6
 164 511 164 511 155 501.5 c 0,7,8
 132.117 477.346 132.117 477.346 109.059 478.673 c 0,9,10
 72.9541 480.751 72.9541 480.751 57 510 c 0,11,12
 49 523 49 523 43.5 546 c 128,-1,13
 38 569 38 569 34 597.5 c 0,14,15
 24.5119 665.103 24.5119 665.103 39 714 c 0,16,17
 56.5 774 56.5 774 114.5 770 c 0,18,19
 170.34 766.149 170.34 766.149 190 717 c 0,0,1
EndSplineSet
EndChar

StartChar: minus
Encoding: 8722 8722 146
Width: 543
Flags: HW
LayerCount: 2
Fore
SplineSet
395 404 m 1,0,1
 454.13 388.348 454.13 388.348 475 344 c 1,2,3
 495.455 303.091 495.455 303.091 482 256 c 0,4,5
 477 237 477 237 461.5 219 c 128,-1,6
 446 201 446 201 414 192 c 0,7,8
 340 172 340 172 276 172 c 128,-1,9
 212 172 212 172 159 180 c 128,-1,10
 106 188 106 188 86.5 205 c 128,-1,11
 67 222 67 222 57.5 241.5 c 128,-1,12
 48 261 48 261 47 286.5 c 128,-1,13
 46 312 46 312 54.5 333.5 c 128,-1,14
 63 355 63 355 81.5 374 c 128,-1,15
 100 393 100 393 145.5 403 c 0,16,17
 220.817 419.553 220.817 419.553 289.909 415.277 c 128,-1,18
 359 411 359 411 395 404 c 1,0,1
EndSplineSet
EndChar

StartChar: grave
Encoding: 96 96 147
Width: 376
Flags: HW
LayerCount: 2
Fore
SplineSet
178.5 769 m 0,0,1
 198 763 198 763 217.5 752.5 c 128,-1,2
 237 742 237 742 255 729.5 c 0,3,4
 294.15 702.312 294.15 702.312 307.575 685.156 c 128,-1,5
 321 668 321 668 326 656.5 c 0,6,7
 339.054 626.476 339.054 626.476 328.527 605.738 c 128,-1,8
 318 585 318 585 305 579 c 0,9,10
 276.541 565.865 276.541 565.865 248 573 c 1,11,12
 192.016 582.03 192.016 582.03 149.008 600.015 c 128,-1,13
 106 618 106 618 86 635.5 c 128,-1,14
 66 653 66 653 60 669.5 c 128,-1,15
 54 686 54 686 55.5 701 c 0,16,17
 59.1617 737.617 59.1617 737.617 95 763.5 c 0,18,19
 125.286 785.373 125.286 785.373 178.5 769 c 0,0,1
EndSplineSet
EndChar

StartChar: tilde
Encoding: 732 732 148
Width: 510
Flags: HW
LayerCount: 2
Fore
SplineSet
456.5 687.5 m 128,-1,1
 460 664 460 664 442.5 633 c 128,-1,2
 425 602 425 602 406 588 c 128,-1,3
 387 574 387 574 367 569 c 0,4,5
 332.277 560.319 332.277 560.319 287.138 577.16 c 128,-1,6
 242 594 242 594 195 633 c 1,7,8
 180.12 576.786 180.12 576.786 136 569 c 1,9,10
 97.7953 560.957 97.7953 560.957 71.5 586 c 0,11,12
 50.7386 605.773 50.7386 605.773 48.3693 627.886 c 128,-1,13
 46 650 46 650 51 663 c 0,14,15
 76.75 740.25 76.75 740.25 137.5 760.5 c 0,16,17
 205.488 783.163 205.488 783.163 311 702 c 0,18,19
 312 701 312 701 312 700 c 128,-1,20
 312 699 312 699 313 698 c 1,21,22
 323 727 323 727 346 743.5 c 128,-1,23
 369 760 369 760 397 750.5 c 128,-1,24
 425 741 425 741 439 726 c 128,-1,0
 453 711 453 711 456.5 687.5 c 128,-1,1
EndSplineSet
EndChar

StartChar: exclam
Encoding: 33 33 149
Width: 446
Flags: HW
LayerCount: 2
Fore
SplineSet
62 408 m 1,0,1
 46.1146 467.003 46.1146 467.003 57 594 c 1,2,3
 73.3988 716.991 73.3988 716.991 172 747 c 0,4,5
 195 754 195 754 224 754 c 1,6,7
 292.338 748.142 292.338 748.142 344 693.5 c 0,8,9
 370 666 370 666 382 616 c 0,10,11
 411.614 492.609 411.614 492.609 383 371 c 1,12,13
 359.793 303.314 359.793 303.314 301.5 267 c 0,14,15
 271 248 271 248 221 248 c 128,-1,16
 171 248 171 248 139 273 c 0,17,18
 77.4516 321.085 77.4516 321.085 62 408 c 1,0,1
353 76.5 m 0,19,20
 353 54 353 54 343 34.5 c 128,-1,21
 333 15 333 15 315 0.5 c 0,22,23
 275.897 -31 275.897 -31 223 -31 c 256,24,25
 169.517 -31 169.517 -31 131.5 0.5 c 0,26,27
 94 31.5714 94 31.5714 94 77 c 128,-1,28
 94 122.429 94 122.429 131.5 153.5 c 0,29,30
 169.517 185 169.517 185 223 185 c 256,31,32
 275.897 185 275.897 185 315 153.5 c 0,33,34
 353 122.889 353 122.889 353 76.5 c 0,19,20
EndSplineSet
EndChar

StartChar: exclamdown
Encoding: 161 161 150
Width: 446
Flags: HW
LayerCount: 2
Fore
SplineSet
346.5 -190.5 m 128,-1,1
 359 -176 359 -176 372.5 -151 c 128,-1,2
 386 -126 386 -126 390.5 -86.5 c 128,-1,3
 395 -47 395 -47 396.642 2.60379 c 0,4,5
 402.139 168.739 402.139 168.739 309.5 240 c 0,6,7
 277 265 277 265 227 265 c 0,8,9
 147.522 265 147.522 265 99 203 c 0,10,11
 78 176 78 176 66 142 c 1,12,13
 36.4242 16.303 36.4242 16.303 66 -102 c 1,14,15
 85.6427 -185.481 85.6427 -185.481 158 -223 c 0,16,17
 190 -239 190 -239 222 -240 c 128,-1,18
 254 -241 254 -241 277 -234 c 128,-1,19
 300 -227 300 -227 317 -216 c 128,-1,0
 334 -205 334 -205 346.5 -190.5 c 128,-1,1
96 435.5 m 0,20,21
 96 458 96 458 106 478 c 128,-1,22
 116 498 116 498 134 512.5 c 0,23,24
 173.103 544 173.103 544 226 544 c 256,25,26
 279.483 544 279.483 544 317.5 512.5 c 0,27,28
 355 481.429 355 481.429 355 436 c 128,-1,29
 355 390.571 355 390.571 317.5 359.5 c 0,30,31
 279.483 328 279.483 328 226 328 c 256,32,33
 173.103 328 173.103 328 134 359.5 c 0,34,35
 96 390.111 96 390.111 96 435.5 c 0,20,21
EndSplineSet
EndChar

StartChar: zcaron
Encoding: 382 382 151
Width: 542
Flags: HW
LayerCount: 2
Fore
SplineSet
451 687 m 0,0,1
 450 686 450 686 437 671 c 128,-1,2
 424 656 424 656 403 639 c 0,3,4
 346.176 593 346.176 593 299 593 c 0,5,6
 252.833 593 252.833 593 198 640 c 0,7,8
 177 658 177 658 164.5 673.5 c 128,-1,9
 152 689 152 689 151 690 c 0,10,11
 137 709 137 709 141 732 c 128,-1,12
 145 755 145 755 165 769 c 256,13,14
 185 783 185 783 208 779 c 128,-1,15
 231 775 231 775 245 755 c 1,16,-1
 244 755 l 1,17,18
 277.546 717.727 277.546 717.727 299 707 c 1,19,20
 341 734 341 734 357 752 c 128,-1,21
 373 770 373 770 384.5 775.5 c 128,-1,22
 396 781 396 781 410.5 781 c 128,-1,23
 425 781 425 781 443 766.5 c 128,-1,24
 461 752 461 752 463.5 728.5 c 128,-1,25
 466 705 466 705 451 687 c 0,0,1
180 306 m 1,26,27
 88.5801 303.968 88.5801 303.968 48.5 355.5 c 0,28,29
 24.35 386.55 24.35 386.55 27.175 428.275 c 0,30,31
 34.3331 534 34.3331 534 199 553.5 c 0,32,33
 237 558 237 558 296 556.5 c 128,-1,34
 355 555 355 555 400.5 545 c 128,-1,35
 446 535 446 535 473 518.5 c 0,36,37
 524.698 486.907 524.698 486.907 514 427 c 1,38,39
 502.881 380.67 502.881 380.67 456.5 318.5 c 0,40,41
 433 287 433 287 393 253 c 1,42,43
 493.834 250.899 493.834 250.899 540.5 200.5 c 0,44,45
 568 170.8 568 170.8 568 121.4 c 128,-1,46
 568 72 568 72 545 44 c 128,-1,47
 522 16 522 16 485.5 3.5 c 0,48,49
 434.4 -14 434.4 -14 317 -14 c 256,50,51
 201.529 -14 201.529 -14 159.765 -4 c 128,-1,52
 118 6 118 6 92 24 c 128,-1,53
 66 42 66 42 58.5 70.5 c 128,-1,54
 51 99 51 99 52.5 121.5 c 128,-1,55
 54 144 54 144 61.5 164.5 c 0,56,57
 73.9659 198.573 73.9659 198.573 105.483 236.787 c 128,-1,58
 137 275 137 275 180 306 c 1,26,27
EndSplineSet
EndChar

StartChar: Zcaron
Encoding: 381 381 152
Width: 786
Flags: HW
LayerCount: 2
Fore
SplineSet
548 831 m 0,0,1
 547 830 547 830 534 815 c 128,-1,2
 521 800 521 800 500 783 c 0,3,4
 443.176 737 443.176 737 396 737 c 0,5,6
 349.833 737 349.833 737 295 784 c 0,7,8
 274 802 274 802 261.5 817.5 c 128,-1,9
 249 833 249 833 248 834 c 0,10,11
 234 853 234 853 238 876 c 128,-1,12
 242 899 242 899 262 913 c 256,13,14
 282 927 282 927 305 923 c 128,-1,15
 328 919 328 919 342 899 c 1,16,-1
 341 899 l 1,17,18
 374.546 861.727 374.546 861.727 396 851 c 1,19,20
 438 878 438 878 454 896 c 128,-1,21
 470 914 470 914 481.5 919.5 c 128,-1,22
 493 925 493 925 507.5 925 c 128,-1,23
 522 925 522 925 540 910.5 c 128,-1,24
 558 896 558 896 560.5 872.5 c 128,-1,25
 563 849 563 849 548 831 c 0,0,1
282 392 m 1,26,27
 161.03 387.829 161.03 387.829 106.5 448 c 0,28,29
 74 483.862 74 483.862 74 535.431 c 0,30,31
 74 607.023 74 607.023 143 652.5 c 0,32,33
 220.633 703.667 220.633 703.667 386 701 c 1,34,35
 547.97 697.049 547.97 697.049 608.5 661.5 c 0,36,37
 667.404 626.906 667.404 626.906 657 552 c 1,38,39
 639.638 474.836 639.638 474.836 576.5 384.5 c 0,40,41
 544 338 544 338 490 289 c 1,42,43
 587.181 299.153 587.181 299.153 656 271 c 0,44,45
 701.844 252.245 701.844 252.245 722.5 207 c 0,46,47
 733 184 733 184 733 152 c 0,48,49
 733 -7.28829 733 -7.28829 528.5 -16.5 c 0,50,51
 473 -19 473 -19 421 -19 c 256,52,53
 369 -19 369 -19 319 -18 c 128,-1,54
 269 -17 269 -17 227 -7 c 128,-1,55
 185 3 185 3 154 25.5 c 128,-1,56
 123 48 123 48 110.5 84.5 c 128,-1,57
 98 121 98 121 100 149.5 c 128,-1,58
 102 178 102 178 112.5 204.5 c 0,59,60
 150.365 300.065 150.365 300.065 282 392 c 1,26,27
EndSplineSet
EndChar

StartChar: caron
Encoding: 711 711 153
Width: 412
Flags: HW
LayerCount: 2
Fore
SplineSet
360 619 m 0,0,1
 359 618 359 618 346 603 c 128,-1,2
 333 588 333 588 312 571 c 0,3,4
 255.176 525 255.176 525 208 525 c 0,5,6
 161.833 525 161.833 525 107 572 c 0,7,8
 86 590 86 590 73.5 605.5 c 128,-1,9
 61 621 61 621 60 622 c 0,10,11
 46 641 46 641 50 664 c 128,-1,12
 54 687 54 687 74 701 c 256,13,14
 94 715 94 715 117 711 c 128,-1,15
 140 707 140 707 154 687 c 1,16,-1
 153 687 l 1,17,18
 186.546 649.727 186.546 649.727 208 639 c 1,19,20
 250 666 250 666 266 684 c 128,-1,21
 282 702 282 702 293.5 707.5 c 128,-1,22
 305 713 305 713 319.5 713 c 128,-1,23
 334 713 334 713 352 698.5 c 128,-1,24
 370 684 370 684 372.5 660.5 c 128,-1,25
 375 637 375 637 360 619 c 0,0,1
EndSplineSet
EndChar

StartChar: ring
Encoding: 730 730 154
Width: 329
Flags: HW
LayerCount: 2
Fore
SplineSet
286 631 m 256,0,1
 286 582.849 286 582.849 250.5 549.5 c 128,-1,2
 214.839 516 214.839 516 164 516 c 0,3,4
 113.742 516 113.742 516 77 549.5 c 0,5,6
 41 582.324 41 582.324 41 631 c 256,7,8
 41 678.118 41 678.118 77 712 c 128,-1,9
 113.125 746 113.125 746 164 746 c 0,10,11
 215.438 746 215.438 746 250.5 712 c 0,12,13
 286 677.576 286 677.576 286 631 c 256,0,1
209.5 678 m 128,-1,15
 192 696 192 696 169.5 696 c 128,-1,16
 147 696 147 696 135 690 c 128,-1,17
 123 684 123 684 114.5 674 c 0,18,19
 98 654.588 98 654.588 98 629.294 c 128,-1,20
 98 604 98 604 114.5 587 c 128,-1,21
 131 570 131 570 163.5 570 c 128,-1,22
 196 570 196 570 211.5 587 c 128,-1,23
 227 604 227 604 227 632 c 128,-1,14
 227 660 227 660 209.5 678 c 128,-1,15
EndSplineSet
EndChar

StartChar: cent
Encoding: 162 162 155
Width: 555
Flags: HW
LayerCount: 2
Fore
SplineSet
368 663 m 2,0,-1
 369 634 l 1,1,2
 433.874 620.578 433.874 620.578 480 578 c 1,3,4
 503.763 554.237 503.763 554.237 507.382 523.118 c 128,-1,5
 511 492 511 492 501.5 467.5 c 128,-1,6
 492 443 492 443 475.5 430 c 0,7,8
 432.401 396.044 432.401 396.044 366 409 c 1,9,10
 330.549 418.329 330.549 418.329 310 406 c 0,11,12
 300 400 300 400 300.5 384.5 c 128,-1,13
 301 369 301 369 307.5 362 c 0,14,15
 323.842 344.401 323.842 344.401 358.921 358.2 c 128,-1,16
 394 372 394 372 418.5 371 c 0,17,18
 481.001 368.449 481.001 368.449 514 314 c 1,19,20
 526 290 526 290 526 266.5 c 0,21,22
 526 209.829 526 209.829 467 166 c 0,23,24
 432.721 141.07 432.721 141.07 368 127 c 1,25,26
 367 115 367 115 367 104.5 c 128,-1,27
 367 94 367 94 365 85 c 1,28,29
 360.303 31.7657 360.303 31.7657 329 9 c 0,30,31
 315 0 315 0 298 0.5 c 128,-1,32
 281 1 281 1 268 10 c 0,33,34
 231 35.6154 231 35.6154 231 108.5 c 0,35,36
 231 119 231 119 230 130 c 1,37,-1
 196.5 141 l 2,38,39
 179 147 179 147 153 159.5 c 128,-1,40
 127 172 127 172 102.5 200.5 c 0,41,42
 41 272.041 41 272.041 41 381 c 0,43,44
 41 492.222 41 492.222 109 564 c 0,45,46
 154 611.5 154 611.5 216 627 c 0,47,48
 219 628 219 628 223 628.5 c 128,-1,49
 227 629 227 629 233 631 c 1,50,51
 234 640 234 640 234 648.5 c 128,-1,52
 234 657 234 657 236 677.5 c 128,-1,53
 238 698 238 698 248.5 715.5 c 0,54,55
 269.2 750 269.2 750 302 750 c 1,56,57
 336.51 748.083 336.51 748.083 356 713 c 0,58,59
 366 695 366 695 368 663 c 2,0,-1
EndSplineSet
EndChar

StartChar: one
Encoding: 49 49 156
Width: 492
Flags: HW
LayerCount: 2
Fore
SplineSet
206 454 m 1,0,1
 137.78 405.845 137.78 405.845 82 414.5 c 0,2,3
 53 419 53 419 36 454 c 0,4,5
 -3.24999 532.5 -3.24999 532.5 65 606 c 0,6,7
 95 639 95 639 142 664 c 1,8,9
 226.242 705.295 226.242 705.295 305 689 c 0,10,11
 374.283 674.736 374.283 674.736 407 617 c 0,12,13
 451.709 538.101 451.709 538.101 459 385 c 0,14,15
 464 287 464 287 457.5 213 c 128,-1,16
 451 139 451 139 444 113.5 c 128,-1,17
 437 88 437 88 426.5 69 c 0,18,19
 406.922 33.5735 406.922 33.5735 378 18 c 1,20,21
 348 0 348 0 310.5 0 c 0,22,23
 246.522 0 246.522 0 210 60 c 0,24,25
 173.967 118.553 173.967 118.553 176 239.5 c 0,26,27
 177.884 351.576 177.884 351.576 206 454 c 1,0,1
EndSplineSet
EndChar

StartChar: six
Encoding: 54 54 157
Width: 614
Flags: HW
LayerCount: 2
Fore
SplineSet
529.5 376 m 0,0,1
 544 357 544 357 559 324.5 c 128,-1,2
 574 292 574 292 575 240 c 128,-1,3
 576 188 576 188 565 153.5 c 128,-1,4
 554 119 554 119 536.5 93.5 c 0,5,6
 504.608 47.0286 504.608 47.0286 449.804 21.5143 c 128,-1,7
 395 -4 395 -4 337 -5 c 128,-1,8
 279 -6 279 -6 243 4.5 c 128,-1,9
 207 15 207 15 178.5 32 c 0,10,11
 129.861 61.0125 129.861 61.0125 94.9307 115.506 c 128,-1,12
 60 170 60 170 47 238 c 1,13,14
 26.8793 402.319 26.8793 402.319 122 545 c 0,15,16
 164 607 164 607 221 655 c 1,17,18
 289.189 715.071 289.189 715.071 365 702 c 0,19,20
 398 696 398 696 421 679 c 128,-1,21
 444 662 444 662 453.5 648 c 128,-1,22
 463 634 463 634 466.5 620.5 c 0,23,24
 479.42 570.667 479.42 570.667 432 515 c 2,25,-1
 404 482 l 2,26,27
 385.143 459.714 385.143 459.714 374 443 c 1,28,29
 478.368 443 478.368 443 529.5 376 c 0,0,1
344 261 m 128,-1,31
 334 274 334 274 316 274 c 128,-1,32
 298 274 298 274 285.5 261 c 128,-1,33
 273 248 273 248 275 229.5 c 0,34,35
 278.73 195 278.73 195 315 195 c 256,36,37
 332 195 332 195 343 205 c 128,-1,38
 354 215 354 215 354 231.5 c 128,-1,30
 354 248 354 248 344 261 c 128,-1,31
EndSplineSet
EndChar

StartChar: two
Encoding: 50 50 158
Width: 582
Flags: HW
LayerCount: 2
Fore
SplineSet
226 706 m 1,0,1
 345.433 714.531 345.433 714.531 415 663 c 1,2,3
 472.579 621.615 472.579 621.615 487 543.5 c 0,4,5
 502.399 460.089 502.399 460.089 461 366 c 0,6,7
 434 307 434 307 388 254 c 1,8,9
 511.46 251.256 511.46 251.256 542 164 c 0,10,11
 549 144 549 144 548 117.5 c 128,-1,12
 547 91 547 91 534.5 72 c 128,-1,13
 522 53 522 53 501.5 40 c 0,14,15
 425.582 -8.14312 425.582 -8.14312 264 -4 c 1,16,17
 133 -4 133 -4 74 55 c 0,18,19
 48 81 48 81 43 118.5 c 128,-1,20
 38 156 38 156 48.5 186.5 c 128,-1,21
 59 217 59 217 79 241 c 128,-1,22
 99 265 99 265 126.5 286.5 c 2,23,-1
 183 332 l 1,24,25
 236 377.429 236 377.429 236 418.5 c 0,26,27
 236 434 236 434 224.5 449.5 c 0,28,29
 194.539 489.883 194.539 489.883 127 465 c 1,30,31
 71.3636 453.545 71.3636 453.545 45 501 c 0,32,33
 34 521 34 521 29 550 c 1,34,35
 26.3448 616.379 26.3448 616.379 88.5 659 c 0,36,37
 139.295 693.831 139.295 693.831 226 706 c 1,0,1
EndSplineSet
EndChar

StartChar: three
Encoding: 51 51 159
Width: 618
Flags: HW
LayerCount: 2
Fore
SplineSet
109 678 m 128,-1,1
 127 687 127 687 158.5 696.5 c 128,-1,2
 190 706 190 706 247.5 709 c 128,-1,3
 305 712 305 712 351.5 705.5 c 0,4,5
 468.228 689.183 468.228 689.183 500 634 c 1,6,7
 533.333 572.333 533.333 572.333 504 503 c 0,8,9
 491 472 491 472 468 445 c 1,10,11
 534.007 413.733 534.007 413.733 565 344 c 0,12,13
 579 312 579 312 584 279 c 1,14,15
 596.004 157.245 596.004 157.245 532 83 c 0,16,17
 503 49 503 49 464 28 c 1,18,19
 338.22 -25.6661 338.22 -25.6661 201 6 c 0,20,21
 140 20 140 20 89 49 c 1,22,23
 13.3364 98.3458 13.3364 98.3458 30 165 c 0,24,25
 37 193 37 193 59.5 216.5 c 0,26,27
 95.1807 253.767 95.1807 253.767 153 240 c 0,28,29
 178 234 178 234 202 219.5 c 0,30,31
 240.106 196.478 240.106 196.478 276 202 c 0,32,33
 291 205 291 205 302 213 c 1,34,35
 321.578 230.798 321.578 230.798 319 254 c 0,36,37
 315.723 290.05 315.723 290.05 272 298 c 0,38,39
 259 301 259 301 228 300.5 c 128,-1,40
 197 300 197 300 174 315 c 0,41,42
 130 343.696 130 343.696 130 397 c 256,43,44
 130 466.5 130 466.5 244 495 c 1,45,46
 110.908 478.769 110.908 478.769 63 532 c 0,47,48
 43 555 43 555 43.5 582 c 128,-1,49
 44 609 44 609 53 626.5 c 128,-1,50
 62 644 62 644 76.5 656.5 c 128,-1,0
 91 669 91 669 109 678 c 128,-1,1
EndSplineSet
EndChar

StartChar: four
Encoding: 52 52 160
Width: 649
Flags: HW
LayerCount: 2
Fore
SplineSet
536 376 m 1,0,1
 582.536 374.395 582.536 374.395 603.5 330 c 0,2,3
 612 312 612 312 612.5 284.5 c 128,-1,4
 613 257 613 257 600.5 240 c 0,5,6
 576.85 207.836 576.85 207.836 536 202 c 1,7,8
 555.068 41.2815 555.068 41.2815 452.5 2 c 0,9,10
 429 -7 429 -7 397.5 -7 c 128,-1,11
 366 -7 366 -7 344 2 c 128,-1,12
 322 11 322 11 307 25.5 c 0,13,14
 278.859 52.7025 278.859 52.7025 268.93 97.8512 c 128,-1,15
 259 143 259 143 265 202 c 1,16,17
 153 202 153 202 102 223 c 1,18,19
 23.5385 243.923 23.5385 243.923 32.5 342.5 c 0,20,21
 39.8422 423.265 39.8422 423.265 102 540 c 1,22,23
 179.143 674.161 179.143 674.161 298 700 c 0,24,25
 351 711 351 711 402 699 c 1,26,27
 501.096 671.663 501.096 671.663 528 521 c 0,28,29
 540 455 540 455 536 376 c 1,0,1
279 419 m 128,-1,31
 269 432 269 432 251 432 c 128,-1,32
 233 432 233 432 220.5 419 c 128,-1,33
 208 406 208 406 210 387.5 c 0,34,35
 213.73 353 213.73 353 250 353 c 256,36,37
 267 353 267 353 278 363 c 128,-1,38
 289 373 289 373 289 389.5 c 128,-1,30
 289 406 289 406 279 419 c 128,-1,31
EndSplineSet
EndChar

StartChar: five
Encoding: 53 53 161
Width: 591
Flags: HW
LayerCount: 2
Fore
SplineSet
110 651 m 0,0,1
 170.517 706.015 170.517 706.015 299 702 c 0,2,3
 456.283 697.861 456.283 697.861 500 625 c 0,4,5
 514 601 514 601 513.5 575.5 c 128,-1,6
 513 550 513 550 503.5 532.5 c 128,-1,7
 494 515 494 515 479.5 502 c 0,8,9
 453.339 478.545 453.339 478.545 407.669 468.272 c 128,-1,10
 362 458 362 458 304 460 c 1,11,12
 410.183 453.258 410.183 453.258 477 407 c 0,13,14
 507 386 507 386 523 360 c 0,15,16
 576.644 272.829 576.644 272.829 553 173 c 0,17,18
 542 128 542 128 519 89 c 1,19,20
 460.877 0.106585 460.877 0.106585 323 -5 c 1,21,22
 261 -9 261 -9 192 4 c 1,23,24
 126.074 21.8177 126.074 21.8177 86.5 58 c 0,25,26
 56.8375 85.12 56.8375 85.12 45.4188 122.56 c 128,-1,27
 34 160 34 160 44 200 c 1,28,29
 65.6667 260 65.6667 260 119 260 c 0,30,31
 143 260 143 260 172.5 245.5 c 0,32,33
 225.164 219.615 225.164 219.615 250 237 c 0,34,35
 261 245 261 245 265 262.5 c 0,36,37
 272.015 293.191 272.015 293.191 234 316 c 0,38,39
 216 327 216 327 192 333 c 1,40,41
 160 344 160 344 134.5 357 c 128,-1,42
 109 370 109 370 91.5 392 c 0,43,44
 54.3863 438.657 54.3863 438.657 58 529 c 0,45,46
 61.4143 607.529 61.4143 607.529 110 651 c 0,0,1
EndSplineSet
EndChar

StartChar: seven
Encoding: 55 55 162
Width: 600
Flags: HW
LayerCount: 2
Fore
SplineSet
295 465 m 1,0,1
 102.102 416.096 102.102 416.096 51.5 497.5 c 0,2,3
 40 516 40 516 38.5 549.5 c 128,-1,4
 37 583 37 583 48.5 610.5 c 128,-1,5
 60 638 60 638 79.5 657 c 0,6,7
 114.072 690.685 114.072 690.685 176.536 706.843 c 128,-1,8
 239 723 239 723 311.5 719 c 0,9,10
 478.119 709.807 478.119 709.807 534 619 c 1,11,12
 591.291 531.379 591.291 531.379 523 316 c 0,13,14
 492 220 492 220 442 115 c 1,15,16
 410.174 38.087 410.174 38.087 354 10 c 0,17,18
 306.345 -13.8276 306.345 -13.8276 250 1 c 1,19,20
 188.902 20.2941 188.902 20.2941 170 77 c 0,21,22
 162 102 162 102 165 129 c 1,23,24
 171.436 220.711 171.436 220.711 234 354 c 0,25,26
 261 411 261 411 295 465 c 1,0,1
EndSplineSet
EndChar

StartChar: eight
Encoding: 56 56 163
Width: 625
Flags: HW
LayerCount: 2
Fore
SplineSet
482 403 m 1,0,1
 587 340.778 587 340.778 587 214 c 0,2,3
 587 102.575 587 102.575 509.5 41 c 0,4,5
 435.241 -18 435.241 -18 313 -18 c 256,6,7
 190.241 -18 190.241 -18 117 41 c 0,8,9
 40 103.028 40 103.028 40 214 c 0,10,11
 40 348.275 40 348.275 138 404 c 1,12,13
 83.8974 452.306 83.8974 452.306 86 528 c 1,14,15
 86 611.915 86 611.915 149.5 662.5 c 0,16,17
 209.128 710 209.128 710 308 710 c 0,18,19
 404.217 710 404.217 710 464.5 663 c 0,20,21
 527 614.271 527 614.271 527 529.636 c 128,-1,22
 527 445 527 445 482 403 c 1,0,1
345 260 m 128,-1,24
 335 273 335 273 317 273 c 128,-1,25
 299 273 299 273 286.5 260 c 128,-1,26
 274 247 274 247 276 228.5 c 0,27,28
 279.73 194 279.73 194 316 194 c 256,29,30
 333 194 333 194 344 204 c 128,-1,31
 355 214 355 214 355 230.5 c 128,-1,23
 355 247 355 247 345 260 c 128,-1,24
345 524 m 128,-1,33
 335 537 335 537 317 537 c 128,-1,34
 299 537 299 537 286.5 524 c 128,-1,35
 274 511 274 511 276 492.5 c 0,36,37
 279.73 458 279.73 458 316 458 c 256,38,39
 333 458 333 458 344 468 c 128,-1,40
 355 478 355 478 355 494.5 c 128,-1,32
 355 511 355 511 345 524 c 128,-1,33
EndSplineSet
EndChar

